<svg width="98" height="97" viewBox="0 0 98 97" fill="none" xmlns="http://www.w3.org/2000/svg">
<path d="M0.864746 69.6974C0.864746 69.2884 0.864746 29.6164 0.864746 29.6164L29.3085 1.02271H69.1305L97.275 29.1672V68.9603L69.3757 96.8596H29.4578L0.864746 69.6974Z" fill="white"/>
<path d="M0.863136 69.698C0.863136 69.698 1.03942 69.8523 1.37128 70.1609C1.70566 70.4746 2.19624 70.9338 2.8399 71.5367C4.13097 72.7544 6.03308 74.548 8.49478 76.8704C13.4138 81.5265 20.5686 88.2987 29.5309 96.7817L29.4569 96.7522C40.6493 96.7428 54.2056 96.7315 69.3741 96.7183L69.2744 96.7597C77.7705 88.2561 87.1938 78.8246 97.1611 68.8485L97.1147 68.9602C97.1128 56.4133 97.1109 42.9982 97.109 29.1671L97.1567 29.2826C96.9986 29.1245 96.8267 28.9532 96.6555 28.7813C87.1079 19.2319 77.8383 9.95974 69.0159 1.13489L69.1276 1.18131C54.9546 1.17566 41.5847 1.17002 29.3057 1.165L29.406 1.12297C18.5887 11.9804 8.98097 21.6227 0.939671 29.6922L0.97104 29.6163C0.949083 42.1745 0.931517 52.1869 0.91897 59.067C0.907051 62.5042 0.897639 65.1579 0.891365 66.959C0.885092 67.8536 0.880701 68.5355 0.877564 69.0004C0.872546 69.4602 0.863136 69.698 0.863136 69.698C0.863136 69.698 0.853726 69.4684 0.849335 69.0129C0.846198 68.5505 0.84118 67.8724 0.835534 66.9816C0.82926 65.1836 0.819849 62.5337 0.807929 59.1015C0.79601 52.2139 0.778444 42.1895 0.755859 29.6163V29.5718L0.787226 29.5404C8.81472 21.4571 18.4062 11.7985 29.2072 0.922845L29.2486 0.880814H29.3075C41.5859 0.875795 54.9559 0.870148 69.1295 0.864502H69.1954L69.2418 0.910925C78.0666 9.73389 87.3388 19.0029 96.8882 28.5505C97.0601 28.7224 97.232 28.8942 97.3895 29.0517L97.4371 29.0994V29.1671C97.4352 42.9982 97.4334 56.4127 97.4315 68.9602V69.0255L97.3851 69.0719C87.409 79.0391 77.9775 88.4624 69.4739 96.9586L69.4325 97H69.3741C54.2056 96.9868 40.6487 96.9755 29.4569 96.9661H29.4136L29.3828 96.9366C20.4407 88.4123 13.3015 81.6062 8.39315 76.9268C5.95152 74.5906 4.06573 72.7864 2.78532 71.5612C2.15359 70.9526 1.67178 70.489 1.34368 70.1722C1.0206 69.8604 0.863136 69.698 0.863136 69.698Z" fill="#263238"/>
<path d="M5.81543 67.7988C5.81543 67.4274 5.81543 31.3846 5.81543 31.3846L31.6576 5.40625H67.8366L93.4065 30.9762V67.1288L68.0599 92.4754H31.7938L5.81543 67.7988Z" fill="#FF725E"/>
<path d="M5.81431 67.7994C5.81431 67.7994 5.97553 67.9393 6.27728 68.2197C6.58217 68.5052 7.02821 68.9223 7.6129 69.4694C8.78729 70.576 10.5156 72.2052 12.7527 74.3137C17.2232 78.5439 23.7244 84.6944 31.8667 92.3988L31.7926 92.3693C41.9613 92.3599 54.2779 92.348 68.0581 92.3355L67.9584 92.3769C75.6772 84.6511 84.238 76.0822 93.2931 67.0184L93.2466 67.13C93.2448 55.7312 93.2429 43.5431 93.241 30.9774L93.2887 31.0929C93.145 30.9492 92.9894 30.793 92.8332 30.6374C84.1596 21.9612 75.7381 13.5373 67.7225 5.51979L67.8342 5.56622C54.9579 5.56057 42.8107 5.55492 31.6559 5.5499L31.7562 5.50787C21.927 15.3704 13.1969 24.1293 5.89084 31.4605L5.92221 31.3846C5.90025 42.7928 5.88268 51.8881 5.87014 58.1389C5.85822 61.2612 5.84881 63.6721 5.84253 65.3095C5.83626 66.1219 5.83187 66.7411 5.82874 67.1645C5.82372 67.583 5.81431 67.7994 5.81431 67.7994C5.81431 67.7994 5.80489 67.5911 5.8005 67.1777C5.79737 66.7567 5.79235 66.1407 5.7867 65.3327C5.78043 63.6978 5.77102 61.2913 5.75847 58.174C5.74655 51.915 5.72899 42.8079 5.70703 31.3852V31.3407L5.7384 31.3087C13.0313 23.9637 21.7445 15.1884 31.5561 5.30712L31.5975 5.26509H31.6565C42.8119 5.26007 54.9586 5.25443 67.8348 5.24878H67.9007L67.9471 5.2952C75.9646 13.3108 84.3885 21.7322 93.0647 30.4059C93.2209 30.5621 93.3765 30.7177 93.5202 30.8614L93.5678 30.909V30.9768C93.566 43.5425 93.5641 55.7299 93.5622 67.1294V67.1946L93.5158 67.2411C84.4519 76.2961 75.883 84.8569 68.1573 92.5757L68.1159 92.6171H68.0575C54.2766 92.604 41.9606 92.5927 31.792 92.5833H31.7487L31.718 92.5538C23.5951 84.8073 17.1103 78.623 12.6505 74.3702C10.4334 72.2479 8.72142 70.608 7.55769 69.4945C6.98493 68.9418 6.54767 68.5202 6.24906 68.2323C5.95671 67.9474 5.81431 67.7994 5.81431 67.7994Z" fill="#263238"/>
<path opacity="0.3" d="M6.24805 68.2317L70.9028 8.71875L79.0538 16.8541L15.2285 76.8295L6.24805 68.2317Z" fill="white"/>
<path opacity="0.3" d="M16.9619 78.5893L81.616 19.0769L83.8312 21.6804L20.0058 81.6557L16.9619 78.5893Z" fill="white"/>
<path d="M13.9302 53.2228V43.5899C13.9302 41.2223 14.6497 41.0134 18.735 41.0134H22.2632C23.9112 41.0134 25.6057 41.0367 25.6057 43.2418C25.6057 44.2399 25.2575 45.5629 22.7274 45.5629C21.8918 45.5629 21.0794 45.4237 20.5223 45.4237C20.0349 45.4237 19.7099 45.5397 19.7099 45.9343C19.7099 46.2825 19.9884 46.3289 20.4759 46.3289H21.4972C25.5825 46.3289 26.9984 48.6501 26.9984 52.48C26.9984 56.3796 25.5128 57.3081 20.9633 57.3081C14.3712 57.3081 13.9302 57.1456 13.9302 53.2228ZM19.06 51.157C19.06 51.7605 19.7331 52.2711 20.4991 52.2711C21.2883 52.2711 21.7757 51.7605 21.7757 51.0641C21.7757 50.2285 21.0794 49.5786 20.1741 49.5786C19.5242 49.5786 19.06 50.2053 19.06 51.157Z" fill="white"/>
<path d="M29.7015 53.8263C29.7015 46.9092 32.5101 40.7813 36.5257 40.7813C41.0984 40.7813 43.9303 46.3986 43.9303 53.9424C43.9303 56.1475 43.1875 57.2617 41.377 57.2617C39.2183 57.2617 38.754 55.7065 38.6148 53.8263C38.3827 50.507 37.7791 47.7913 36.8507 47.7913C35.899 47.7913 35.2259 50.6463 34.9009 53.9888C34.7152 55.7993 34.2742 57.2617 32.3244 57.2617C30.6299 57.2617 29.7015 56.1475 29.7015 53.8263Z" fill="white"/>
<path d="M52.3503 57.517C48.2418 57.517 46.3849 54.778 46.3849 46.6075C46.3849 42.8007 49.0542 40.8045 53.743 40.8045C57.2712 40.8045 60.1727 43.1721 60.1727 46.6075C60.1727 55.6136 58.6175 57.517 52.3503 57.517ZM51.5843 48.2323C51.5843 49.4393 52.3503 50.3678 53.2788 50.3678C54.2072 50.3678 54.9732 49.4393 54.9732 48.2323C54.9732 47.0253 54.2072 46.0968 53.2788 46.0968C52.3503 46.0968 51.5843 47.0253 51.5843 48.2323Z" fill="white"/>
<path d="M62.8698 51.9462C62.8698 49.8107 63.0322 47.1646 63.3108 43.5667C63.4036 42.3133 64.4249 41.0367 66.1658 41.0367C68.3245 41.0367 68.7655 41.4545 68.8584 46.5146C70.2975 43.9613 73.0597 41.0367 74.4756 41.0367C75.8451 41.0367 76.8664 41.8026 76.8664 43.0793C76.8664 43.8453 76.4951 44.9827 75.5202 46.1432L73.1526 48.9286C73.7096 49.625 74.9863 50.6927 75.7987 51.7373C76.6111 52.7818 77.0289 53.8727 77.0289 54.8012C77.0289 56.1939 76.1237 57.2384 74.4756 57.2384C73.0365 57.2384 70.3207 54.337 68.8816 51.7837V53.1532C68.8816 56.1011 68.6727 57.3081 66.0962 57.3081C64.1 57.3081 62.8698 56.5885 62.8698 51.9462Z" fill="white"/>
<path d="M82.3812 51.6212C80.269 51.6212 79.4798 50.8552 79.4798 47.8841C79.4798 46.3986 79.619 44.4024 79.8279 41.7098C79.8976 40.7117 80.1761 39.76 82.2884 39.76C84.4239 39.76 84.4471 40.2475 84.4471 47.2342V48.9519C84.4471 50.4838 84.2846 51.6212 82.3812 51.6212ZM79.6655 55.0101C79.6655 53.5478 80.5011 52.7586 82.0795 52.7586C83.6347 52.7586 84.7256 53.5478 84.7256 55.219C84.7256 56.6814 83.8668 57.4706 82.3116 57.4706C80.7332 57.4706 79.6655 56.6814 79.6655 55.0101Z" fill="white"/>
</svg>
