<svg width="27" height="24" viewBox="0 0 27 24" fill="none" xmlns="http://www.w3.org/2000/svg">
<path fill-rule="evenodd" clip-rule="evenodd" d="M13.1013 18.0978C13.102 18.0976 13.1024 18.0976 13.1031 18.0974C13.1024 18.0974 13.1017 18.0974 13.1009 18.0976L13.1013 18.0978ZM25.8306 11.0674C26.0877 11.3565 26.4761 11.6268 26.4613 12.0564C26.4139 12.8082 25.5034 12.8481 24.9281 12.7756C23.5854 12.4988 23.4433 12.4823 22.2324 13.1769C21.1439 13.7378 20.022 14.235 18.9648 14.8559C18.2835 15.2871 17.5034 15.5111 16.7867 15.8617C16.6844 16.2783 16.5482 16.6865 16.3757 17.0793C17.5849 17.8534 18.8642 18.5632 20.2504 18.9584C20.998 19.148 22.0525 18.8534 22.6534 19.2987C23.0996 19.6502 23.2909 20.6776 22.8065 21.0461C22.6284 21.3929 22.3127 21.624 22.0472 21.8971C21.8813 22.069 21.9175 22.3142 21.8888 22.5318C21.8517 22.9141 21.5512 23.3418 21.1238 23.2628C20.1538 23.019 20.1302 21.8151 19.4742 21.2305C19.0139 20.747 18.4234 20.4163 17.849 20.099C17.1636 19.734 16.4787 19.3578 15.7534 19.0765C15.5923 19.0259 15.3666 19.0061 15.3295 18.8198C14.8282 18.6594 14.2706 18.5586 13.91 18.1479C13.4542 18.6634 12.7941 18.8858 12.4934 18.0965C12.4616 18.0025 12.4034 17.8811 12.3658 17.7605C12.3639 17.7596 12.3621 17.7589 12.3603 17.758C12.1211 17.6397 11.8789 17.516 11.6794 17.3364C11.3755 17.7781 10.8982 18.1444 10.3407 17.9794C10.077 18.0687 9.82411 18.1912 9.57064 18.3061C8.84607 18.7419 7.95472 19.0998 7.48911 19.8207C7.3033 20.2676 7.39602 20.7846 7.20766 21.2387C7.04764 21.7623 6.58587 22.6183 5.93117 22.2553C5.65612 22.0743 5.64295 21.7136 5.53889 21.43C5.401 21.0553 5.34614 20.5899 4.97672 20.364C4.36609 19.9633 3.70389 19.5756 3.23371 19.0103C2.74615 18.2658 3.63147 17.7269 4.31562 17.7957C4.95898 17.7437 5.55041 18.1548 6.18884 18.0283C6.74955 17.8897 7.22741 17.533 7.72996 17.2616C8.09352 17.0468 8.4869 16.8835 8.84022 16.651C9.13868 16.5106 9.27382 16.2747 9.37989 16.0696C8.65825 15.765 7.95929 15.4111 7.27496 15.032C6.28357 14.5859 5.29091 14.145 4.41967 13.4828C4.10713 13.2831 3.66914 13.1079 3.316 13.2968C2.95207 13.4843 2.6452 13.7776 2.2564 13.9161C1.66351 14.1046 1.10134 13.6191 0.906207 13.0869C0.708332 12.5516 1.10609 12.0752 1.54336 11.8144C1.68271 11.708 1.83158 11.61 1.94935 11.4792C2.01189 11.4044 2.08449 11.3239 2.18874 11.3186C2.53401 10.7852 2.28676 10.133 2.44952 9.55276C2.65416 8.74352 3.32167 9.02826 3.63567 9.59153C3.95918 10.0493 4.00436 10.6303 4.28434 11.1056C4.49173 11.4531 4.8189 11.7281 5.18868 11.8753C5.77572 12.1972 6.41122 12.3695 6.95181 12.7681C6.21115 11.8925 5.54017 10.8817 5.35638 9.72723C5.33626 9.53337 5.21885 9.2468 5.38436 9.1058C5.34065 8.85252 5.30938 8.59777 5.31048 8.34009C5.13839 8.12338 5.36735 7.60218 5.39296 7.33225C5.45477 7.12011 5.44581 6.64663 5.6691 6.55154C5.604 6.09324 5.97396 5.67372 6.18957 5.29425C6.34465 4.86704 6.63854 4.49287 6.91816 4.13845C7.65937 3.23009 9.25883 2.04595 10.6897 1.61637C10.7912 1.5189 10.9393 1.46915 11.075 1.43258C12.4746 1.05292 13.9765 1.0681 15.3957 1.33364C16.4392 1.60668 17.4498 2.07924 18.3527 2.66738C20.0796 3.88388 21.0785 5.92591 21.3308 7.98841C21.3255 8.28376 21.3557 8.57747 21.3723 8.8719C21.613 9.84847 21.254 10.7749 20.8226 11.6412C21.5172 11.3002 22.3171 10.9596 22.658 10.2133C22.9012 9.74131 22.9607 9.18627 23.2608 8.7437C23.5638 8.34466 24.1472 7.82254 24.657 8.17074C25.0915 8.54894 24.8864 9.14604 24.8317 9.64603C24.8525 9.72613 24.8606 9.81373 24.8915 9.88834C24.9516 10.0736 25.065 10.2331 25.1921 10.3783C25.4078 10.605 25.6314 10.8247 25.8306 11.0674Z" fill="white"/>
<path fill-rule="evenodd" clip-rule="evenodd" d="M17.1397 14.8568C17.1063 14.6143 17.1416 14.3019 17.1282 14.1004C17.1277 14.1046 17.1273 14.109 17.1269 14.1134C17.0593 14.2776 17.0011 14.5865 16.9384 14.9632C16.9962 14.925 17.0666 14.8893 17.1397 14.8568ZM15.8272 10.6904C15.7831 10.6462 15.7707 10.577 15.7568 10.5185C15.6864 10.2575 15.5553 10.011 15.5123 9.73944C15.4247 9.20325 15.4556 8.64821 15.5684 8.11676C15.5962 7.91212 15.8016 7.10837 16.0821 7.18865C16.1357 7.14476 16.2096 7.12446 16.2764 7.14915C16.3755 7.02754 16.6149 7.05241 16.6017 7.23657C16.613 7.23785 16.6242 7.24004 16.6359 7.24278C16.6531 7.24644 16.6686 7.25394 16.6825 7.26363C16.7829 7.24041 16.8753 7.33203 16.8614 7.43225C16.8272 7.56099 16.7224 7.65902 16.6546 7.77167C16.7197 7.90005 16.5876 8.0202 16.5452 8.13615C16.3727 8.4902 16.1957 8.84517 16.0659 9.21751C16.0507 9.41136 16.0505 9.60686 16.0481 9.80162C16.0593 10.0238 16.0287 10.25 16.0525 10.4689C16.1163 10.6332 15.9938 10.8166 15.8272 10.6904ZM8.87508 10.6467C8.58138 10.6445 8.81692 9.48341 8.91202 9.31553C8.99267 8.83072 9.37031 8.50556 9.67755 8.15444C9.79514 7.96534 10.081 7.34373 10.3396 7.41871C10.5651 7.25431 10.8527 7.25376 11.104 7.3591C11.2198 7.43152 11.4034 7.53338 11.3701 7.69541C11.3496 7.76947 11.2808 7.81026 11.207 7.80459C10.9714 7.88944 10.735 7.98289 10.5173 8.11018C10.4295 8.16778 10.3498 8.26544 10.2394 8.23399C9.91785 8.46789 9.77411 8.84992 9.54496 9.16045C9.48461 9.24439 9.44877 9.37497 9.3352 9.39746C9.23992 9.65898 9.17591 9.93074 9.11593 10.2023C9.10112 10.2654 9.1035 10.3424 9.0479 10.3856C9.05631 10.5004 9.02156 10.6633 8.87508 10.6467ZM5.1727 20.7195C5.11509 20.7158 5.05913 20.6807 5.03517 20.6271C5.01981 20.5928 5.01049 20.5564 5.00152 20.5198C4.76762 20.4902 4.59498 20.2736 4.4121 20.1368C4.16997 19.9754 4.09463 19.5366 4.44594 19.4657C4.99659 19.3748 5.44117 20.0236 5.31297 20.5222C5.35796 20.616 5.27493 20.7292 5.1727 20.7195ZM22.0177 20.6319C22.3695 20.5227 22.9748 20.8212 22.7495 21.2465C22.6224 21.5057 22.3243 21.6134 22.1671 21.8488C21.7949 22.425 22.0508 23.4347 21.0067 23.2706C19.8787 22.9274 20.1033 21.7266 19.241 21.06C18.5964 20.5595 17.8136 20.2791 17.1138 19.8775C16.4099 19.5026 15.7219 19.0986 15.0182 18.7241C14.7874 18.5504 14.0401 18.5087 14.0838 18.1786C14.1327 17.9966 14.2479 17.8337 14.2994 17.6499C14.4035 17.4324 14.3369 17.1413 14.4913 16.9549C14.6246 16.8648 14.7466 16.9966 14.761 17.1292C14.8901 17.6104 15.1934 18.426 15.83 18.2073C16.2125 18.0383 16.3122 17.272 16.8146 17.4374C16.9259 17.3818 17.0382 17.4973 17.0808 17.5921C17.2566 17.5034 17.7703 17.5253 17.5889 17.823C17.5373 17.8744 17.4567 17.8765 17.4011 17.8338C16.4848 17.8679 16.8696 18.6065 17.4205 18.9053C17.7849 19.1467 18.2021 19.2762 18.6084 19.426C19.4041 19.7672 20.2589 20.2839 20.4877 21.1747C20.6252 21.6419 21.0685 22.3787 21.5627 21.8104C21.7518 21.4424 21.5705 20.8468 22.0177 20.6319ZM11.9853 17.6371C12.0824 17.6782 12.1834 17.5948 12.1868 17.4948C12.2642 17.4145 12.2741 17.2554 12.2106 17.1641C12.202 17.0491 12.2351 16.8975 12.1382 16.8139C12.0897 16.773 12.0208 16.7781 11.9716 16.8115C12.02 16.694 12.057 16.5844 12.0795 16.4913C12.1183 16.3558 12.1159 16.1316 11.9315 16.1214C11.7 16.1393 11.6609 16.4462 11.5354 16.6009C11.2788 17.0731 10.9261 17.4961 10.4202 17.7095C10.3484 17.7415 10.307 17.7815 10.2889 17.8216C10.2659 17.7386 10.2198 17.6528 10.1867 17.5809C10.0932 17.3648 10.0161 17.1407 9.96723 16.9101C9.91017 16.6769 9.93779 16.4291 9.87268 16.1991C9.84324 16.1428 9.80447 16.1078 9.75856 16.0906C9.82605 16.0138 9.85458 15.8953 9.84562 15.7291C9.865 15.4548 9.8703 15.1795 9.8725 14.9045C9.86043 14.6704 9.92169 14.3988 9.80227 14.1885C9.65981 14.0461 9.42774 14.0713 9.24833 14.0007C8.92702 13.9032 8.63331 13.7342 8.32041 13.6163C8.02945 13.5733 8.10223 13.8336 8.20154 13.9985C8.29535 14.6404 6.61159 13.511 6.37202 13.4104C5.61947 13.0042 4.86382 12.4486 3.97502 12.4495C3.53191 12.3963 2.45384 13.1585 2.29492 12.4682C2.92603 10.7325 1.85656 10.893 2.19781 11.3566C1.94452 11.4761 1.74573 11.6866 1.49482 11.8127C1.23514 11.9495 0.970145 12.1048 0.830243 12.3745C0.484419 13.0953 1.196 13.8853 1.92898 13.9001C2.46481 13.9996 2.88214 13.6315 3.35452 13.4733C4.0041 13.3705 4.58804 13.7961 5.19282 13.9645C6.03955 14.1995 6.75588 14.7308 7.5108 15.1607C8.09583 15.5148 8.65709 16.0272 9.33959 16.1945C9.34306 16.1949 9.34617 16.1952 9.34965 16.1954C9.03857 16.379 8.68361 16.717 8.50036 16.7806C8.29279 16.6437 8.01116 16.8847 8.2767 17.0248C8.56236 17.0506 8.78711 17.4136 8.7809 17.6885C8.69183 18.2707 7.95282 18.3827 7.52854 18.6621C7.0216 18.9035 6.63335 19.3678 6.50149 19.9155C6.4181 20.24 6.47297 20.6191 6.24711 20.8918C5.76431 21.361 5.67653 20.5461 5.35082 20.7198C5.10631 21.0476 5.60173 22.4184 6.03698 22.5232C6.63079 22.666 7.03276 21.9599 7.18766 21.4797C7.41443 20.9126 7.24362 20.2153 7.64815 19.7232C8.42538 19.0973 9.27503 18.5419 10.1805 18.0992C10.2598 18.0599 10.294 18.0052 10.3015 17.9436C10.3551 18.0158 10.489 18.0432 10.6124 17.9293C10.5998 17.9551 10.5943 17.9847 10.5987 18.0202C10.6062 18.0782 10.6479 18.1191 10.7013 18.1374C11.181 18.1435 11.6528 17.5003 11.9089 16.9529C11.9045 17.0725 11.926 17.1923 11.9242 17.3117C11.9206 17.4236 11.845 17.5789 11.9853 17.6371ZM14.1555 16.0972C13.9147 16.2669 13.8293 16.5648 13.7177 16.8231C13.5348 17.2731 13.3944 17.7658 13.0043 18.0864C12.9057 18.2232 12.6195 18.253 12.6488 18.4511L12.649 18.4512C12.6877 18.5889 12.8461 18.5654 12.935 18.4926C12.9215 18.5414 12.9269 18.5941 12.9564 18.6403C13.1544 18.8726 13.529 18.6136 13.5901 18.3744C13.9534 18.1065 14.1096 17.6751 14.1965 17.245C14.2453 17.1261 14.3426 16.9899 14.2885 16.8587C14.3346 16.6515 14.4286 16.4586 14.4821 16.2543C14.5152 16.063 14.2866 15.9731 14.1555 16.0972ZM18.8718 13.1549C18.8447 13.1415 18.8242 13.1192 18.8116 13.0867C18.4698 13.2886 18.0995 13.4351 17.7237 13.5605C17.5106 13.6161 17.3407 13.6669 17.237 13.7953C17.466 13.6324 17.9629 13.6048 18.1637 13.4897C18.4049 13.3903 18.6412 13.2781 18.8718 13.1549ZM26.0916 11.2166C26.265 11.4695 26.5249 11.7261 26.4962 12.0554C26.4636 12.5276 26.1024 12.9118 25.6291 12.9574C24.5931 13.0614 23.6994 12.429 22.6954 13.0009C21.2578 13.7203 19.9096 14.6115 18.4131 15.2172C18.0287 15.408 17.6326 15.5714 17.2467 15.7584C17.1096 15.8169 16.9195 15.9829 16.7888 15.8626C16.5521 17.1958 16.1725 18.6429 15.231 17.9944C15.0374 17.7574 15.3429 17.6074 15.4313 17.4099C15.8651 16.1773 15.328 14.7874 15.7892 13.5596C15.9819 13.1565 16.3693 12.915 16.6986 12.635C17.1002 12.25 17.3875 11.7637 17.6375 11.2711C18.5168 9.54139 18.716 7.92291 18.3118 6.03176C17.899 3.67537 15.7069 2.05104 13.4668 1.5847C12.5301 1.4512 11.5579 1.46437 10.6367 1.69333C10.3432 1.77252 10.0609 1.89066 9.78819 2.02452C9.71888 2.05854 9.63128 2.01703 9.60257 1.94918C9.54917 1.68876 9.9718 1.67065 10.1342 1.56202C10.9319 1.26009 11.8059 1.19005 12.6526 1.22918C12.7393 1.23248 12.8258 1.2376 12.9125 1.24455C12.9176 1.22022 12.93 1.19736 12.9505 1.17889C13.1438 1.08014 13.4 1.14451 13.6147 1.13464C13.7473 0.972056 14.011 1.1361 14.1901 1.12915C14.9359 1.22297 15.6696 1.39999 16.3592 1.70229C17.8908 2.36193 19.3837 3.28145 20.2946 4.71833C20.8785 5.70587 21.2549 6.8293 21.345 7.97576C21.4714 8.61785 21.4266 9.29578 21.2644 9.92799C21.6448 10.1736 20.6687 11.6911 20.4849 12.0285C20.4817 12.0351 20.4774 12.0426 20.4721 12.0508C20.4796 12.0444 20.487 12.0382 20.4943 12.0318C20.6547 11.9252 20.7673 11.6798 20.967 11.6661C21.0724 11.5371 21.2704 11.1985 21.4436 11.4117C21.4904 11.4912 21.4465 11.5765 21.3741 11.62C21.2395 11.7562 21.1287 11.9163 21.0374 12.0845C20.8143 12.449 20.9136 12.7098 21.0147 12.9188C21.5367 12.6388 22.0597 12.3603 22.5873 12.0898C22.9317 11.9183 23.2912 11.7306 23.6861 11.7365C24.355 11.7059 25.5569 12.1745 25.7491 11.2392C25.7586 11.0265 26.0179 11.0554 26.0916 11.2166Z" fill="#EBD8D6"/>
<path fill-rule="evenodd" clip-rule="evenodd" d="M11.2135 7.97639C11.6468 7.82972 11.6177 8.45279 11.5936 8.72437C11.548 9.31506 11.4002 9.89644 11.1973 10.4518C11.0285 11.0654 10.3317 11.2015 9.77592 11.1695C9.53744 11.1673 9.28562 11.0025 9.2752 10.7477C9.10695 10.728 9.4557 9.47362 9.58426 9.45424C9.8637 8.75418 10.4829 8.17463 11.2135 7.97639Z" fill="#A88885"/>
<path fill-rule="evenodd" clip-rule="evenodd" d="M17.5278 8.00838C17.9404 8.56031 18.3261 9.25543 18.2542 9.96518C18.1392 10.6398 17.0889 11.0458 16.4843 10.9094C15.9152 10.6729 16.2169 9.31523 16.3243 8.83591C16.412 8.61316 16.5276 7.86317 16.8018 7.86592C17.0543 7.60458 17.3489 7.7454 17.5278 8.00838Z" fill="#A88885"/>
<path fill-rule="evenodd" clip-rule="evenodd" d="M12.5927 11.5348C12.339 11.3653 12.5371 11.0041 12.6121 10.7806C12.6583 10.6164 12.8681 10.39 13.0471 10.5175C13.2432 10.7093 13.0378 11.0262 12.9802 11.2453C12.9297 11.4092 12.7853 11.6054 12.5927 11.5348Z" fill="#A88885"/>
<path fill-rule="evenodd" clip-rule="evenodd" d="M14.1145 11.5699C14.1059 11.5677 14.0979 11.5642 14.09 11.56C13.6921 11.6289 13.7038 11.0479 13.8722 10.8217C13.8278 10.6838 13.958 10.524 14.0977 10.6125C14.6059 10.3947 14.5618 11.6622 14.1145 11.5699Z" fill="#A88885"/>
<path fill-rule="evenodd" clip-rule="evenodd" d="M9.70622 14.2369C5.75019 13.5909 4.05527 9.45203 5.54811 5.92705C7.25692 1.64256 12.5619 -0.176715 16.7187 1.52022C19.2721 2.47082 21.2989 4.8519 21.5716 7.59417C22.069 10.975 20.8448 13.2155 17.3752 13.8989C17.156 13.9582 17.0654 13.6208 17.2827 13.5628C17.6146 13.4902 17.9509 13.4307 18.2723 13.3177C19.1102 12.9847 19.9948 12.5577 20.5052 11.7878C21.5227 10.4906 21.4008 8.74502 21.1561 7.21195C20.7504 4.56021 18.5864 2.44156 16.0834 1.65445C12.3559 0.433186 7.82714 1.96589 6.08101 5.59073C4.60683 8.40396 5.41241 12.3216 8.56378 13.5392C8.9385 13.697 9.32492 13.87 9.73658 13.8872C10.0648 13.8221 10.0166 14.2928 9.70622 14.2369Z" fill="#623425"/>
<path fill-rule="evenodd" clip-rule="evenodd" d="M13.1101 18.9174C12.2704 18.8408 12.1743 17.7787 12.0824 17.1161C11.8086 17.8577 10.9556 18.8799 10.2002 18.0489C9.7768 17.3001 9.72743 16.2483 9.67384 15.3968C9.72084 14.9987 9.56283 14.272 9.74516 13.9589C9.85508 13.8702 10.0314 13.9541 10.0286 14.0964C9.99132 15.3072 10.0065 16.5691 10.4072 17.7264C10.8185 18.4279 11.4973 17.6329 11.6778 17.1536C11.8651 16.921 11.9114 16.2374 12.1465 16.184C12.6175 16.0755 12.2212 18.2887 13.0284 18.557C14.5693 18.679 13.9344 15.476 14.6077 16.019C14.8804 16.6457 14.7987 17.4657 15.3177 17.9807C16.4455 18.6248 16.6783 15.4833 16.7611 14.8202C16.8202 14.4429 16.8738 14.0649 16.9157 13.6853C16.942 13.4634 17.2953 13.5081 17.2611 13.7326C17.076 14.853 17.0643 16.0115 16.7273 17.1005C16.2686 18.8536 14.8906 18.9081 14.5167 17.0766C14.413 17.867 14.0593 18.9046 13.1101 18.9174Z" fill="#623425"/>
<path fill-rule="evenodd" clip-rule="evenodd" d="M9.9328 11.3304C8.38583 11.2285 8.08609 10.0932 8.84869 8.88109C9.32272 8.09599 10.0359 6.58376 11.1592 7.03292C12.0085 7.4069 11.7356 8.75362 11.6987 9.50781C11.5824 10.4604 11.0279 11.4549 9.9328 11.3304ZM10.1192 10.9782C11.0826 11.0041 11.3369 9.85437 11.3911 9.09524C11.3838 8.53033 11.5648 7.7412 11.0573 7.34875C11.0546 7.34893 11.0518 7.34893 11.0493 7.34893C11.001 7.34893 10.9566 7.32845 10.9247 7.29553C9.95109 7.28986 9.52845 8.48351 9.08168 9.1843C8.44563 10.2454 8.88491 11.0061 10.1192 10.9782Z" fill="#623425"/>
<path fill-rule="evenodd" clip-rule="evenodd" d="M16.6298 11.1431C15.6442 11.1368 15.2922 10.2947 15.2917 9.4293C15.2821 8.61915 15.2233 7.63526 15.7924 6.99262C16.8781 6.39351 18.0295 8.15463 18.3543 9.02258C18.7523 10.2087 17.8271 11.2087 16.6298 11.1431ZM16.7748 10.7947C19.9918 10.5004 16.3116 5.8831 15.8189 7.5996C15.8505 7.66818 15.8246 7.74115 15.7819 7.80095C15.5854 8.34117 15.6234 8.94229 15.6453 9.50867C15.6547 10.2283 15.9564 10.8634 16.7748 10.7947Z" fill="#623425"/>
<path fill-rule="evenodd" clip-rule="evenodd" d="M12.6733 11.8678C12.2295 11.846 12.0982 11.2829 12.2426 10.9331C12.3204 10.7012 13.0382 9.6445 13.0901 10.3497C13.493 10.374 13.3505 11.944 12.6733 11.8678ZM12.6878 11.5194C13.0468 11.3791 12.9486 10.8504 12.9186 10.5412C12.7223 10.7906 12.4321 11.0931 12.574 11.4331L12.5733 11.436C12.5812 11.4486 12.5897 11.4607 12.5993 11.472C12.6046 11.4771 12.6097 11.4823 12.6148 11.4876L12.6102 11.4865C12.6278 11.4993 12.6464 11.5099 12.6461 11.5086C12.6592 11.5143 12.6731 11.519 12.6878 11.5194Z" fill="#623425"/>
<path fill-rule="evenodd" clip-rule="evenodd" d="M13.9623 11.7943C13.4965 11.6248 13.5508 11.0679 13.5773 10.6658C13.5093 9.79804 14.5089 10.367 14.6759 10.8269C15.0029 11.3243 14.5444 11.997 13.9623 11.7943ZM14.1357 11.4774C14.7293 11.4542 14.3039 10.6557 13.9316 10.5879C13.9491 10.8644 13.7639 11.4216 14.1594 11.4789L14.1357 11.4774Z" fill="#623425"/>
<path fill-rule="evenodd" clip-rule="evenodd" d="M5.89413 18.1923C5.41609 17.8434 7.15399 17.3141 7.35314 17.1389C7.96798 16.8086 8.58794 16.4862 9.19253 16.1375C9.41473 16.0524 9.80737 15.6117 9.9972 15.9047C10.0528 16.0321 9.94325 16.1303 9.83151 16.1689C9.54458 16.3183 9.2783 16.5041 8.99173 16.6545C8.05247 17.1846 7.07754 17.6471 6.12218 18.1449C6.06915 18.2151 5.97021 18.2373 5.89413 18.1923Z" fill="#623425"/>
<path fill-rule="evenodd" clip-rule="evenodd" d="M20.7444 11.5851C20.7367 11.4285 20.9234 11.4148 21.0187 11.3621C23.0024 10.4119 22.1633 10.5214 22.9353 8.81445C23.8268 7.14916 25.7474 7.69011 24.9934 9.65405C24.8893 10.0304 24.6781 10.417 24.7741 10.8155C24.7977 10.9075 24.7452 11.0042 24.6525 11.0298C24.3425 11.0717 24.4019 10.6207 24.4124 10.4216C24.5062 9.80419 24.8879 9.2219 24.7867 8.58128C24.6214 7.79362 23.624 8.30093 23.3614 8.7691C22.8795 9.38649 22.9859 10.5044 22.4923 10.9179C22.2314 11.0379 20.7784 12.1417 20.7444 11.5851Z" fill="#623425"/>
<path fill-rule="evenodd" clip-rule="evenodd" d="M16.7813 15.9778C16.5779 15.6934 18.4815 15.0422 18.7427 14.8661C20.1062 14.2854 21.3715 13.5131 22.663 12.7926C23.7702 12.0298 25.1796 13.2739 26.2775 12.4625C26.7778 11.9018 25.9693 11.2471 25.5551 10.9042C25.2058 10.6169 24.9395 10.2455 24.8086 9.81094C24.6089 9.65495 24.8914 9.37423 25.058 9.55546C25.2219 9.82045 25.2729 10.152 25.511 10.3762C25.8294 10.7284 26.2597 10.9697 26.5216 11.3733C27.1538 12.2085 26.5602 13.0274 25.6006 13.0726C24.7065 13.2641 23.7641 12.5722 22.9302 13.0468C21.3386 13.952 19.745 14.8503 18.0539 15.5616C17.7884 15.6212 16.8892 16.3059 16.7813 15.9778Z" fill="#623425"/>
<path fill-rule="evenodd" clip-rule="evenodd" d="M6.0942 22.6738C5.07209 22.4807 5.29721 21.1396 5.20796 20.3684C5.17706 20.1784 5.06221 20.0151 4.9 19.9129C4.71986 19.7795 4.93511 19.4957 5.11305 19.6367C5.87566 20.1296 5.41114 21.131 5.69497 21.847C6.06841 23.0117 7.07827 21.7621 7.13386 21.0824C7.25657 20.5381 7.13167 19.8931 7.5073 19.4357C8.39316 18.781 9.43009 18.2512 10.45 17.8326C10.5989 17.8273 10.6865 18.0274 10.5744 18.1302C10.3655 18.2489 10.0886 18.3354 9.88692 18.4497C9.1832 18.8401 8.42919 19.1793 7.78052 19.6526C7.47603 20.0606 7.59837 20.6281 7.48426 21.1023C7.35277 21.8037 6.90197 22.6635 6.0942 22.6738Z" fill="#623425"/>
<path fill-rule="evenodd" clip-rule="evenodd" d="M5.25988 21.0231C5.13625 21.0169 5.0898 20.8874 5.02415 20.8029C4.89065 20.6325 4.72514 20.4917 4.55945 20.3538C4.07501 19.9196 3.41518 19.7192 2.9717 19.2435C2.24512 17.6399 4.15584 17.2393 5.31639 17.7673C5.52067 17.8928 6.14081 17.9458 6.0757 18.2525C6.04479 18.3385 5.94037 18.3942 5.85277 18.3577C5.55486 18.234 5.2586 18.1064 4.94917 18.0148C4.21583 17.7254 2.88813 17.9008 3.20615 18.9639C3.53863 19.4077 4.14066 19.5511 4.55397 19.9127C4.75641 20.074 5.86905 20.8766 5.25988 21.0231Z" fill="#623425"/>
<path fill-rule="evenodd" clip-rule="evenodd" d="M6.82172 12.7833C6.4737 12.5663 3.70529 11.3847 4.1879 10.9568C4.28977 10.8838 4.40114 10.9461 4.46588 11.0356C4.75922 11.2815 5.08858 11.4803 5.42435 11.6625C5.94573 11.9553 6.4342 12.2155 6.96583 12.4659C7.17121 12.5577 7.02581 12.8797 6.82172 12.7833Z" fill="#623425"/>
<path fill-rule="evenodd" clip-rule="evenodd" d="M2.13106 12.3345C2.06687 12.2658 2.06907 12.1522 2.13948 12.0882C2.60326 11.371 1.96044 10.4948 2.17971 9.71352C2.48804 8.275 3.87079 8.90374 4.09829 10.0314C4.19979 10.3181 4.25099 10.6297 4.41942 10.8878C4.55073 11.0703 4.26434 11.2746 4.13505 11.0891C3.83842 10.6292 3.80971 10.0493 3.52442 9.58094C3.25558 9.10234 2.6391 9.10984 2.53852 9.70091C2.34119 10.4326 2.80771 11.1639 2.61039 11.8925C2.56449 12.0935 2.39075 12.5394 2.13106 12.3345Z" fill="#623425"/>
<path fill-rule="evenodd" clip-rule="evenodd" d="M9.29813 16.3482C7.49276 15.3674 5.72048 14.2559 3.79294 13.5385C3.20681 13.4083 2.81819 14.0567 2.25529 14.125C0.476064 14.2861 -0.303363 12.133 1.62052 11.529C2.27797 11.211 1.98445 10.4948 2.34673 10.5232C2.65708 10.6194 2.38916 11.2124 2.26718 11.398C1.98024 11.8792 1.36906 11.9328 0.994526 12.3049C0.506972 12.9874 1.25842 13.7638 1.97092 13.7941C2.96248 13.7369 3.16804 12.7618 4.36187 13.3558C5.79016 14.0368 7.2082 14.75 8.57521 15.5468C8.77675 15.7197 9.71766 16.0028 9.53807 16.2922C9.4887 16.3727 9.37915 16.3981 9.29813 16.3482Z" fill="#623425"/>
<path fill-rule="evenodd" clip-rule="evenodd" d="M12.1608 17.9293C11.9891 17.7748 11.368 17.7163 11.65 17.4021C11.8889 17.2883 12.1286 17.55 12.3446 17.6329C12.5383 17.7474 12.3517 18.0513 12.1608 17.9293Z" fill="#623425"/>
<path fill-rule="evenodd" clip-rule="evenodd" d="M21.0663 23.5355C19.9873 23.4636 19.9443 22.2343 19.4953 21.518C18.5098 20.5995 17.1792 20.1467 16.0254 19.4765C15.5371 19.2217 15.0331 18.9995 14.5219 18.7953C14.3018 18.664 13.5969 18.5592 13.8771 18.206C13.9256 18.0702 14.8996 18.6188 15.0933 18.6541C16.4158 19.2404 17.6859 19.9454 18.9487 20.6495C20.4289 21.3901 19.8126 22.426 20.8049 23.1108C22.387 23.5536 21.3958 21.7875 21.7244 21.0326C21.8007 20.8629 21.892 20.4865 22.1431 20.6083C22.2228 20.6577 22.2508 20.7685 22.1994 20.8483C21.5489 21.7486 22.9095 23.4684 21.0663 23.5355Z" fill="#623425"/>
<path fill-rule="evenodd" clip-rule="evenodd" d="M21.6713 22.1477C21.4676 21.6115 23.8135 21.2363 22.8525 19.6538C22.1493 18.5196 20.8564 19.949 18.3603 18.3885C17.9259 18.1197 17.4905 17.8481 17.0386 17.6102C16.8682 17.477 16.4122 17.4233 16.5359 17.1332C16.6886 16.8602 17.522 17.5324 17.7608 17.6144C18.6423 18.1775 19.5682 18.7212 20.6291 18.838C21.2933 18.9569 22.0257 18.6175 22.6396 18.9759C23.793 19.7414 23.6076 21.1205 22.4668 21.8016C22.2463 21.9001 21.8973 22.3815 21.6713 22.1477Z" fill="#623425"/>
<path fill-rule="evenodd" clip-rule="evenodd" d="M9.07396 10.973C8.82891 10.7186 9.06994 10.2914 9.10615 9.98706C9.38888 8.88558 10.2991 7.6528 11.5414 7.69541C11.8038 7.74753 11.6787 8.12444 11.4329 8.03282C10.1473 8.1634 9.43881 9.56297 9.31774 10.7272C9.44283 10.881 9.23106 11.0982 9.07396 10.973Z" fill="#623425"/>
<path fill-rule="evenodd" clip-rule="evenodd" d="M16.1626 11.0411C15.7316 10.1804 15.8963 8.24503 16.6461 7.59124C17.3446 6.98921 17.492 8.06746 16.9821 7.78253C16.2672 8.29185 16.3005 9.40028 16.2899 10.1962C16.3058 10.427 16.3583 10.6585 16.4636 10.8651C16.5787 11.0579 16.2756 11.2378 16.1626 11.0411Z" fill="#623425"/>
<path fill-rule="evenodd" clip-rule="evenodd" d="M7.61044 2.17088C7.3694 1.62846 10.1587 0.617142 10.6334 0.495711C10.9021 0.452551 12.4551 0.0205918 12.4562 0.374828C12.4591 0.699803 11.8876 0.563375 11.6681 0.650243C11.2183 0.712787 10.7713 0.798741 10.3428 0.95181C9.71098 1.18644 9.06268 1.3995 8.49027 1.76306C8.25051 1.84078 7.81288 2.40533 7.61044 2.17088Z" fill="#623425"/>
<path fill-rule="evenodd" clip-rule="evenodd" d="M14.6908 0.502089C14.3519 0.434424 14.056 0.378097 13.7217 0.360175C13.5785 0.345545 13.3719 0.44558 13.3113 0.255935C13.2653 -0.245702 14.4763 0.141087 14.768 0.161935C14.9887 0.209666 14.9095 0.553661 14.6908 0.502089Z" fill="#623425"/>
<path fill-rule="evenodd" clip-rule="evenodd" d="M18.0832 16.451C17.4699 16.1741 18.8277 15.7869 19.0179 15.6377C19.6671 15.3222 20.3074 14.9889 20.9416 14.6447C21.1335 14.5284 21.3171 14.8292 21.1214 14.9433C20.1229 15.4632 19.1191 16.0294 18.0832 16.451Z" fill="#623425"/>
<path fill-rule="evenodd" clip-rule="evenodd" d="M21.6746 14.3805C21.6806 14.1044 22.1308 14.0929 22.3238 13.9678C22.5299 13.8765 22.6718 14.1987 22.4641 14.2869C22.2296 14.3251 21.805 14.7317 21.6746 14.3805Z" fill="#623425"/>
<path fill-rule="evenodd" clip-rule="evenodd" d="M6.96707 15.8704C6.21233 15.4849 5.46636 15.0665 4.65219 14.8174C4.46748 14.7183 4.04192 14.8145 4.071 14.5126C4.2654 14.0647 5.95099 14.9871 6.30614 15.1402C6.50457 15.3026 7.33922 15.4963 7.20225 15.7958C7.15836 15.881 7.05028 15.9138 6.96707 15.8704Z" fill="#623425"/>
<path fill-rule="evenodd" clip-rule="evenodd" d="M16.9744 20.8603C16.3598 20.5116 15.7113 20.2239 15.0513 19.9727C14.8556 19.852 14.3271 19.8701 14.4289 19.5392C14.5577 19.2155 16.3671 20.1842 16.6781 20.3042C16.8517 20.4355 17.3034 20.4986 17.2094 20.7857C17.1672 20.8671 17.0558 20.9075 16.9744 20.8603Z" fill="#623425"/>
<path fill-rule="evenodd" clip-rule="evenodd" d="M18.2663 21.6423C18.1224 21.4743 17.7771 21.4468 17.7546 21.2083C17.868 20.832 18.2822 21.2402 18.4657 21.3563C18.6515 21.4845 18.4494 21.7734 18.2663 21.6423Z" fill="#623425"/>
<path fill-rule="evenodd" clip-rule="evenodd" d="M18.9215 13.186C18.7433 13.107 18.8415 12.9225 18.8969 12.7934C19.0091 12.4678 19.0219 12.1217 19.0169 11.7806C19.0149 11.5553 19.3675 11.5545 19.3655 11.7806C19.3574 12.0902 19.3754 13.2555 18.9215 13.186Z" fill="#623425"/>
<path fill-rule="evenodd" clip-rule="evenodd" d="M17.8885 13.6833C17.6838 13.5876 17.8407 13.376 17.8875 13.2288C18.0031 13.0374 17.9194 12.6047 18.2118 12.5994C18.5069 12.6787 18.2785 13.0562 18.2462 13.2533C18.1789 13.4154 18.1348 13.7654 17.8885 13.6833Z" fill="#623425"/>
<path fill-rule="evenodd" clip-rule="evenodd" d="M7.59677 19.9678C7.3038 19.9272 7.55124 19.2391 7.48558 18.9982C7.50387 18.8088 7.40768 18.5778 7.52161 18.4128C7.62238 18.3037 7.82665 18.3854 7.81934 18.5361C7.77965 18.8185 7.99691 19.9812 7.59677 19.9678Z" fill="#623425"/>
<path fill-rule="evenodd" clip-rule="evenodd" d="M8.25416 18.8015C8.31286 18.5938 8.11736 18.2126 8.3957 18.1366C8.67971 18.0751 8.64533 18.7867 8.5517 18.9248C8.45148 19.034 8.24574 18.952 8.25416 18.8015Z" fill="#623425"/>
</svg>
