<svg width="32" height="24" viewBox="0 0 32 24" fill="none" xmlns="http://www.w3.org/2000/svg">
<path fill-rule="evenodd" clip-rule="evenodd" d="M20.5642 21.4432C19.334 21.3298 18.1111 20.8052 17.1842 19.9891C16.5445 19.2458 17.0629 18.2477 17.3601 17.4743C16.6184 17.5028 15.8319 17.542 15.1572 17.1794C13.8471 19.4082 11.5475 20.1576 9.13088 20.5599C7.5928 20.859 5.77765 20.9138 4.59872 19.7089C4.18102 19.2741 3.99945 18.6847 3.64997 18.2035C2.93686 18.2129 2.13619 18.4483 1.48782 18.0401C1.47765 18.0339 1.46773 18.0267 1.45781 18.0187C1.29187 18.1083 1.05176 18.0611 0.974869 17.859C0.39421 14.5834 4.65626 13.0885 7.19568 12.517C7.10887 10.9623 7.44868 9.63303 8.37312 8.36283C9.1852 7.16282 10.1434 6.28798 11.5842 6.02184C11.6075 5.97297 11.6363 5.92634 11.6701 5.88467C11.8186 5.56445 11.8682 5.211 11.9843 4.87937C12.5357 3.17832 13.9041 1.92027 15.2917 0.868831C15.9701 0.3859 16.9431 0.194911 17.7093 0.577634C18.8513 1.34011 18.2902 3.79817 17.7321 4.81587C18.921 4.39098 20.3149 4.07225 21.5472 4.47408C22.9412 5.09641 23.7867 6.50774 24.1824 7.93099C24.2362 8.30999 24.9349 9.82353 25.0966 10.7539C25.3859 10.6644 25.7135 10.6227 25.8976 10.587C27.1281 10.367 28.3668 10.8574 29.2327 11.7332C29.6308 12.0405 30.0428 12.3701 30.3578 12.7611C30.93 13.3578 31.4968 14.028 31.5285 14.8959C31.8058 15.1075 31.4499 16.1431 31.2914 16.4082C30.9444 17.7174 29.5851 17.9203 28.4293 17.672C27.7953 19.1597 26.4202 20.1593 24.92 20.6757C23.752 21.1477 22.5069 21.4759 21.2453 21.4759C21.0186 21.4761 20.7917 21.4655 20.5642 21.4432ZM15.9872 8.11876C15.8686 8.12347 15.7778 8.18151 15.6965 8.26138C15.6756 8.28172 15.6548 8.30181 15.634 8.32165C15.5675 8.38093 15.4993 8.43823 15.4331 8.49776C15.3854 8.54067 15.3418 8.58234 15.3028 8.63344C15.2339 8.72372 15.2053 8.85965 15.2445 8.96779C15.2567 9.00202 15.2721 9.03377 15.2904 9.06304C15.2651 9.10546 15.2465 9.15184 15.2369 9.20194C15.2215 9.28107 15.2292 9.38301 15.2698 9.4542C15.3182 9.53903 15.3767 9.60922 15.4665 9.65362C15.5293 9.68462 15.5965 9.70596 15.666 9.71513C15.7272 9.72357 15.7877 9.73002 15.8495 9.73002C15.8537 9.73002 15.8577 9.73002 15.8614 9.73002C15.9705 9.72853 16.0886 9.72059 16.192 9.68165C16.3483 9.62336 16.4639 9.48545 16.4691 9.31381C16.4716 9.22327 16.4604 9.13423 16.4503 9.04444C16.4384 8.93927 16.3858 8.8465 16.3089 8.78425C16.3141 8.76639 16.3193 8.74878 16.3245 8.73092C16.3629 8.59946 16.3974 8.47271 16.3389 8.33902C16.2806 8.20656 16.1444 8.11777 16.0001 8.11777C15.9959 8.11851 15.9914 8.11851 15.9872 8.11876Z" fill="#FEB904"/>
<path fill-rule="evenodd" clip-rule="evenodd" d="M14.0385 9.93514C13.7694 9.89917 13.6801 9.59334 13.8001 9.37407C13.8661 9.12802 13.8964 8.87502 13.9127 8.62103C13.5759 8.39234 13.5935 7.55942 13.4591 7.17397C13.4452 7.11692 13.4189 7.06682 13.3862 7.02068C13.3105 7.04176 13.2222 7.03432 13.1282 6.98372C12.9025 6.88773 12.8702 6.6707 12.9494 6.51022C12.6681 6.29517 12.8921 5.76932 13.2894 5.92534C13.7081 6.17189 14.2739 6.20538 14.5415 6.66251C14.707 6.9165 14.8739 7.19629 14.9481 7.49468C14.9515 7.40465 14.9706 7.31808 15.0056 7.24491C14.794 6.57694 15.909 6.72105 16.1664 6.28649C16.3232 6.14659 16.5395 6.19223 16.6583 6.32444C16.7947 6.02629 16.9706 5.80331 17.1866 5.77131C17.4394 5.41885 17.6708 4.81834 18.1634 4.79453C18.248 4.73674 18.3219 4.65216 18.4017 4.58172C18.2219 4.68713 17.953 4.62016 17.8913 4.38552C17.859 4.14666 18.0017 3.92044 18.0803 3.69969C18.1956 3.40924 18.2266 3.07488 18.3951 2.81047C18.5511 2.24246 18.2938 1.79822 18.186 1.26742C18.2785 0.576633 19.0702 1.00252 19.2577 1.41476C19.5385 1.91877 19.4703 2.53292 19.3096 3.06521C19.2667 3.39138 18.9903 4.55691 18.5426 4.41479C18.5263 4.45794 18.5027 4.49441 18.4742 4.52442C18.5481 4.47332 18.6304 4.44157 18.7321 4.45646C18.9856 4.48498 19.1126 4.80272 18.9549 5.0009C18.5885 5.3107 18.2395 5.64034 18.0805 6.11112C18.0426 6.82423 17.9302 7.53958 17.9188 8.25715C17.8528 8.73885 18.2008 9.84163 17.3592 9.68114C17.2464 9.64816 17.1392 9.59805 17.0408 9.53356C17.014 9.51595 16.9874 9.4971 16.9624 9.47676C16.2145 9.76573 16.3547 8.43252 16.2989 8.00167C16.2947 7.81093 16.3296 7.4793 16.4048 7.12932C16.1835 7.42871 16.1634 8.0106 15.7304 8.00986C15.6448 8.07559 15.5453 8.12321 15.4369 8.12693C15.1849 8.14182 15.0272 7.94661 14.9709 7.71792C14.9183 8.24922 15.273 9.9463 14.4205 9.67668C14.3729 9.84138 14.2099 9.96118 14.0385 9.93514ZM29.0431 18.868C28.8774 18.8464 28.7023 18.8296 28.5512 18.7556C28.5832 18.8494 28.5751 18.9595 28.5024 19.0692C28.5448 19.2743 28.4501 19.4883 28.3551 19.6664C28.6552 20.033 28.1467 20.3753 27.9386 20.6437C27.3381 21.3075 26.4789 21.8713 25.5661 21.9028C24.567 22.3031 23.4975 22.4688 22.4351 22.6027C21.7919 22.6823 21.1403 22.7166 20.4994 22.5988C20.2858 22.5663 20.0676 22.5268 19.8612 22.4641C19.6546 22.4013 19.3974 22.2718 19.2731 22.0799C18.7713 21.9615 18.2445 21.9405 17.7695 21.7232C17.4319 21.5865 16.8619 21.2043 17.2154 20.8092C17.1167 20.7201 16.9842 20.6961 16.8867 20.6092C16.6861 20.4143 16.8121 20.0546 17.0886 20.0224C17.4324 20.0219 17.6938 20.3719 18.0126 20.4865C18.4583 20.7092 18.942 20.8434 19.4398 20.8729C19.6333 20.8689 19.8699 20.8801 19.9505 21.0907C21.0974 21.2271 22.2516 21.3442 23.396 21.116C24.5147 20.8741 25.6819 20.4552 26.6924 19.9105C27.3259 19.5206 27.5229 19.2324 27.9178 18.6388C28.046 18.4865 28.2206 18.4744 28.3568 18.5408C28.3119 18.3717 28.4019 18.1668 28.5855 18.1169C28.5676 18.0651 28.5622 18.0093 28.5703 17.9545C28.4411 17.8037 28.4932 17.54 28.6678 17.4415C29.0508 17.283 29.4797 17.4815 29.8778 17.4872C30.0789 17.4973 30.2833 17.4864 30.477 17.4276C30.6268 17.3413 30.827 17.3135 30.956 17.4524C31.3 17.8719 30.6521 18.2219 30.3453 18.4104C30.0323 18.7772 29.5117 18.9154 29.0431 18.868ZM17.8841 17.4118C19.0323 17.4234 20.1675 17.2114 21.2182 16.7426C21.5479 16.8688 21.8063 16.4935 22.0541 16.3301C22.5229 15.9669 22.8605 15.4451 22.9468 14.8525C23.0103 14.4715 22.4386 14.3177 22.2994 14.6727C22.0075 14.8146 21.8681 15.2146 21.5399 15.294C21.1282 15.4039 20.7502 15.6167 20.3498 15.7591C19.4852 15.9374 18.6084 16.0461 17.7293 16.1217C17.5311 15.9029 17.1973 16.021 16.9368 15.99C16.3549 16.0014 15.7758 15.8918 15.178 15.9007C15.0359 15.9074 14.9312 15.9811 14.8704 16.0791C14.6839 15.9798 14.4046 16.0461 14.3632 16.3226C14.3582 16.5925 14.3466 16.8614 14.2285 17.1119C13.4338 17.1724 12.7968 18.4617 12.1363 18.8221C10.9244 19.3988 9.56264 19.6734 8.2907 20.1189C7.96229 20.0606 7.62372 20.167 7.29358 20.1868C6.64644 20.193 5.98518 20.1896 5.36334 19.9879C5.31498 19.8473 5.17409 19.7652 5.02973 19.7639C4.59417 19.3723 4.15341 20.0375 4.62543 20.3485C4.75788 20.6462 4.83998 21.014 5.10786 21.2219C5.29861 21.34 5.5712 21.2211 5.61237 20.9994C5.6719 21.0339 5.73416 21.0636 5.79815 21.0889C5.80857 21.0932 5.81899 21.0971 5.82941 21.1013C6.01965 21.6103 6.94533 21.5622 7.40421 21.6356C8.71112 21.7244 10.0984 21.7195 11.3041 21.1462C12.3151 21.0029 13.2582 20.5408 13.9281 19.7604C14.3161 19.7488 14.4641 19.2621 14.7072 19.0196C14.8999 18.6944 15.5952 18.1603 15.0371 17.858C15.0664 17.8193 15.0937 17.7794 15.118 17.7379C15.1782 17.6348 15.177 17.5088 15.1239 17.4073C15.1562 17.1868 15.2105 16.9115 15.0264 16.7423C15.0324 16.6989 15.0344 16.655 15.0351 16.6111C15.0624 16.6195 15.0922 16.6257 15.1247 16.6285C15.139 16.7235 15.1939 16.8031 15.266 16.8641C15.2861 17.2401 15.7214 17.1937 15.9923 17.2389C16.6206 17.319 17.2504 17.4073 17.8841 17.4118ZM3.10545 19.91C2.70189 19.8254 1.57406 19.9708 1.59787 19.377C1.57182 19.3621 1.54652 19.3465 1.52172 19.3299C0.927664 19.817 0.786036 18.7618 0.802406 18.3623C0.474499 18.1182 0.83688 17.5864 1.18463 17.8037C1.34486 17.9073 1.4736 18.0522 1.66483 18.0981C2.22168 18.3818 2.83583 18.4024 3.44749 18.3776C3.96391 18.3923 4.11149 18.7653 4.1983 19.2123C4.37887 19.912 3.60946 19.9919 3.10545 19.91Z" fill="#E88913"/>
<path fill-rule="evenodd" clip-rule="evenodd" d="M9.3462 12.0496C8.61052 11.8777 8.89576 10.6931 9.01209 10.1586C9.245 9.21924 9.85121 8.38137 10.6144 7.79748C10.8984 7.51621 11.5912 7.37383 11.7328 7.87785C11.7829 8.46173 11.0921 8.7631 10.8364 9.22668C10.4983 9.77857 10.3103 10.4061 10.1397 11.0262C10.0186 11.433 9.87973 12.0662 9.3462 12.0496Z" fill="#FFD976"/>
<path fill-rule="evenodd" clip-rule="evenodd" d="M13.9981 4.58993C12.9134 4.24665 14.7323 2.41488 15.3335 2.33575C15.7106 2.15022 16.4133 2.1269 16.2419 2.73534C16.1032 2.99975 15.8194 3.14659 15.6089 3.34874C15.0947 3.68285 14.6182 4.57803 13.9981 4.58993Z" fill="#FFD976"/>
<path fill-rule="evenodd" clip-rule="evenodd" d="M23.3446 10.2335C22.9753 10.0269 22.9277 9.52757 22.7404 9.18007C22.3808 8.39329 21.9951 7.51523 21.1559 7.14392C20.7772 6.92664 20.3563 6.92713 19.949 7.00353C19.5606 7.07248 19.4102 6.46876 19.7868 6.3492C20.3719 5.22559 21.9846 5.85139 22.629 6.61436C23.114 6.97029 24.7049 10.5001 23.3446 10.2335Z" fill="#FFD976"/>
<path fill-rule="evenodd" clip-rule="evenodd" d="M23.5252 11.9824C23.3022 11.7872 23.3744 11.4454 23.3456 11.1797C23.3364 10.8613 23.7794 10.7169 23.9578 10.9786C24.3782 11.2485 24.1021 12.3547 23.5252 11.9824Z" fill="#FFD976"/>
<path fill-rule="evenodd" clip-rule="evenodd" d="M13.4732 12.451C13.4583 12.3969 13.4578 12.3426 13.469 12.2912C12.9307 11.4603 15.5198 11.1964 16.0181 11.0669C16.9368 10.9196 17.865 11.0245 18.774 11.1877C19.4155 11.3206 20.1382 11.4958 20.578 12.0144C20.7564 12.3049 20.4696 12.6075 20.17 12.6144C19.5241 12.6618 18.8824 12.5202 18.2549 12.3827C17.1891 12.1811 16.086 12.1109 15.0215 12.3547C14.7315 12.4157 14.4482 12.4971 14.1677 12.5933C13.9293 12.7087 13.5684 12.7823 13.4732 12.451Z" fill="#FFD976"/>
<path fill-rule="evenodd" clip-rule="evenodd" d="M5.90347 18.5999C5.57482 18.3923 5.80177 17.9726 5.97689 17.7365C5.83972 16.7118 9.11185 14.8528 10.0579 14.7707C10.6048 14.7154 11.2725 14.6214 11.7324 14.985C12.0174 15.2449 11.8529 15.6713 11.5208 15.7958C10.6911 16.0965 9.80809 16.2398 8.98014 16.5553C8.11672 16.8636 7.28653 17.3394 6.64114 17.9957C6.41939 18.2281 6.36011 18.8328 5.90347 18.5999ZM9.12772 15.7899C9.55931 15.6495 9.99562 15.5242 10.4349 15.4096C9.98049 15.4483 9.536 15.5892 9.12772 15.7899Z" fill="#FFD976"/>
<path fill-rule="evenodd" clip-rule="evenodd" d="M5.75175 18.2296C5.19887 17.9932 5.72099 17.2553 5.94225 16.9313C6.3277 16.4697 6.85652 16.15 7.39154 15.8883C8.20759 15.4984 9.09507 15.2911 9.97511 15.1021C10.3129 15.0051 10.9742 14.9024 10.8837 15.4523C10.8579 15.8117 8.82025 16.2224 8.32615 16.5779C7.7579 16.8696 7.19261 17.1806 6.68984 17.5767C6.59806 17.7104 6.42047 17.7898 6.26098 17.7181C6.18036 17.9652 6.09256 18.3216 5.75175 18.2296Z" fill="#FFD976"/>
<path fill-rule="evenodd" clip-rule="evenodd" d="M21.5362 20.0806C21.3529 20.0541 21.2205 19.8824 21.2455 19.6979C21.25 19.6654 21.2592 19.6344 21.2723 19.6056C19.8751 19.7951 20.0813 18.8322 20.6592 18.9161C21.8704 18.9575 23.1515 18.8406 24.2622 18.3262C24.9937 18.0186 25.5428 17.3016 26.3308 17.1505C27.2486 17.2688 26.6012 18.353 26.1294 18.6559C24.8352 19.5994 23.1284 20.088 21.5362 20.0806Z" fill="#FFD976"/>
<path fill-rule="evenodd" clip-rule="evenodd" d="M29.4597 15.301C29.1975 15.2181 29.0936 14.9073 28.8835 14.7434C28.4931 14.349 28.0347 14.0335 27.554 13.7597C27.2058 13.5325 26.6665 13.3536 26.6192 12.8786C26.6164 12.4924 27.109 12.2789 27.4412 12.3808C28.2098 12.5505 28.8996 13.0195 29.3513 13.6627C29.61 14.1245 30.5049 15.2362 29.4597 15.301Z" fill="#FFD976"/>
<path fill-rule="evenodd" clip-rule="evenodd" d="M5.92326 20.2057C4.94178 20.0541 3.98062 19.4693 3.69811 18.4699C3.65371 18.3451 3.6361 18.178 3.74821 18.0837C3.08247 15.422 10.3669 12.5276 12.4541 13.1874C15.7927 13.9216 15.2686 16.876 12.9222 18.5294C10.9441 19.9254 8.32304 20.5941 5.92326 20.2057ZM7.83937 19.8329C9.38167 19.6783 10.9359 19.2358 12.2634 18.4235C14.4508 17.0489 15.5896 14.32 12.2487 13.6255C10.1942 13.3643 8.19753 14.3458 6.43571 15.298C5.51425 15.8908 4.18898 16.5677 4.18278 17.8148C4.19567 17.9416 4.2428 18.0919 4.12325 18.1827C4.45339 19.8088 6.49152 19.9098 7.83937 19.8329Z" fill="#623425"/>
<path fill-rule="evenodd" clip-rule="evenodd" d="M8.2301 21.9829C7.0415 21.9308 5.75914 21.7914 4.76872 21.076C4.1201 20.4418 3.99757 19.4432 3.82841 18.5897C3.72051 18.207 4.3215 18.1678 4.30141 18.5587C4.46785 19.3088 4.54053 20.2456 5.15343 20.7742C6.80487 21.7257 8.85169 21.5868 10.6678 21.2861C12.6092 20.9317 15.1769 19.3626 14.9936 17.1335C14.8294 16.4633 14.6754 15.7844 14.4142 15.1439C14.2904 14.8656 14.7352 14.6749 14.8498 14.9599C14.9505 15.2047 15.037 15.4525 15.11 15.7067C15.765 17.4884 15.5572 18.7341 14.1466 20.0536C12.6102 21.6029 10.3248 21.9707 8.2301 21.9829Z" fill="#623425"/>
<path fill-rule="evenodd" clip-rule="evenodd" d="M17.564 16.2098C17.2582 16.212 13.5582 16.0872 14.7994 15.4483C16.682 15.798 18.6368 15.889 20.4896 15.3545C22.1515 14.8716 23.8203 13.2196 22.0448 11.7403C19.8606 9.92396 16.0361 9.14958 13.4424 10.4533C12.5355 10.8608 11.1234 12.0139 11.8132 13.0867C11.9085 13.1733 11.901 13.3332 11.8132 13.4211C11.1755 13.7326 11.0386 12.4336 11.2435 12.0415C11.9397 10.1335 14.278 9.36983 16.1509 9.33858C18.4733 9.18926 24.7219 10.9851 22.9589 14.2197C21.7646 15.896 19.4769 16.1792 17.564 16.2098Z" fill="#623425"/>
<path fill-rule="evenodd" clip-rule="evenodd" d="M17.8386 17.7484C17.4276 17.731 14.8641 17.609 15.0211 17.0896C15.0516 16.9631 15.1806 16.8864 15.3061 16.9152C17.2822 17.3934 19.4994 17.5321 21.3719 16.6173C22.2425 16.1356 22.6971 15.7564 22.6696 14.7082C22.7267 14.2498 22.7668 13.7889 22.7502 13.3266C22.7472 13.2232 22.7507 13.1103 22.8311 13.0337C23.03 12.8236 23.4073 13.0897 23.2227 13.3378C23.2076 14.1697 23.1838 15.0472 22.9735 15.8489C21.8545 17.4512 19.6671 17.794 17.8386 17.7484Z" fill="#623425"/>
<path fill-rule="evenodd" clip-rule="evenodd" d="M21.3278 21.4035C19.8292 21.3067 16.1922 20.8171 16.7485 18.6569C17.3039 16.8879 18.1058 17.8178 17.5358 18.115C15.7561 20.5666 20.9749 21.0828 22.4713 20.8881C24.432 20.6757 26.4667 19.9591 27.8237 18.4754C29.9596 16.0446 24.8755 14.2949 23.1573 15.2318C22.8798 15.3613 22.6836 14.922 22.9641 14.8004C23.1787 14.7015 23.3982 14.6087 23.6252 14.543C24.7902 14.3294 26.3913 14.7541 27.4194 15.3253C30.0667 16.8232 28.4607 19.15 26.3794 20.1826C24.8435 21.0332 23.0802 21.4367 21.3278 21.4035Z" fill="#623425"/>
<path fill-rule="evenodd" clip-rule="evenodd" d="M21.524 22.8093C19.9703 22.8016 18.2442 22.4816 16.9762 21.5443C16.7359 21.4282 16.5722 19.1291 16.8408 19.0902C17.0397 18.9701 17.2766 19.1882 17.1779 19.3975C17.2446 20.0015 17.104 20.7305 17.3733 21.2685C18.1795 21.8159 19.2225 22.0493 20.1407 22.2589C22.4385 22.4343 25.7543 22.3586 27.563 20.7848C28.5391 19.9618 28.349 18.5795 28.2875 17.4447C28.2841 17.316 28.3868 17.2049 28.5162 17.2006C28.9657 17.0826 28.7916 19.1609 28.7663 19.4593C28.1687 22.5459 24.0558 22.7131 21.524 22.8093Z" fill="#623425"/>
<path fill-rule="evenodd" clip-rule="evenodd" d="M8.02013 14.2954C6.84319 13.7628 6.77274 12.2878 6.97142 11.1755C7.2594 8.88069 8.98997 6.15128 11.3984 5.72192C13.5856 5.46247 14.3327 8.23902 13.856 9.94156C13.8565 10.2474 13.3822 10.2479 13.3832 9.94156C13.4056 9.63225 13.503 9.33188 13.5194 9.02009C13.5879 7.83397 13.0159 6.08381 11.573 6.18104C8.87686 6.5407 6.87519 10.4587 7.47122 12.9651C7.59351 13.3461 7.82914 13.6931 8.20393 13.8596C8.49016 13.9719 8.29719 14.4231 8.02013 14.2954Z" fill="#623425"/>
<path fill-rule="evenodd" clip-rule="evenodd" d="M15.1001 9.68215C14.7111 9.57103 15.009 9.0427 14.9217 8.752C14.824 7.96051 14.7121 7.02714 14.1588 6.42267C13.405 6.30163 12.6462 6.12924 11.8793 6.14735C11.5747 6.15057 11.5722 5.67161 11.8793 5.67458C12.4701 5.65276 13.0562 5.7614 13.6376 5.8554C14.0891 5.91369 14.5864 5.95834 14.7766 6.44474C15.0847 6.84657 15.8534 9.64668 15.1001 9.68215Z" fill="#623425"/>
<path fill-rule="evenodd" clip-rule="evenodd" d="M2.71041 18.5624C0.81167 18.527 -0.12195 16.9363 1.04656 15.358C1.9462 14.1483 3.32157 13.43 4.71976 12.9498C5.18905 12.8102 6.86853 12.0432 7.06051 12.7047C7.00545 13.117 6.45257 12.8456 6.17724 12.9744C5.24139 13.2197 4.3554 13.5781 3.47635 13.971C1.65773 14.7669 -0.643577 17.7032 2.69701 18.0887C3.13058 18.1115 3.56539 18.0574 3.9945 17.9986C4.12174 17.9793 4.24354 18.0743 4.26065 18.2008C4.32142 18.653 3.02343 18.5319 2.71041 18.5624Z" fill="#623425"/>
<path fill-rule="evenodd" clip-rule="evenodd" d="M3.05318 20.159C2.23266 20.0876 1.27573 19.8639 0.73476 19.1989C0.584201 18.9102 0.599077 18.5679 0.559639 18.2514C0.591884 17.9118 0.303416 16.562 0.764024 16.5642C1.16833 16.6168 0.928726 17.1672 0.994456 17.4435C1.07631 17.9815 0.875643 18.7827 1.33303 19.1346C1.94295 19.5248 2.68459 19.723 3.40787 19.6821C3.73677 19.7401 4.42955 19.3102 4.56547 19.6945C4.6446 20.192 3.38778 20.1355 3.05318 20.159Z" fill="#623425"/>
<path fill-rule="evenodd" clip-rule="evenodd" d="M24.3462 14.7756C24.1172 14.5271 24.6533 14.1198 24.68 13.8035C24.9254 13.0386 24.9611 12.2235 24.9107 11.4268C24.7445 8.66244 23.0618 2.95581 19.3311 4.88828C18.0428 5.8095 17.9565 7.67376 18.2315 9.1037C18.2712 9.34132 18.36 9.5653 18.423 9.79325C18.423 10.0802 18.0038 10.1053 17.9408 9.83467C17.224 7.74966 17.6223 4.46488 20.2201 4.03627C23.5668 3.7225 24.8452 7.73552 25.2726 10.3995C25.4485 11.597 25.4993 12.8578 25.1049 14.0186C24.975 14.3041 24.7577 15.0447 24.3462 14.7756Z" fill="#623425"/>
<path fill-rule="evenodd" clip-rule="evenodd" d="M16.2734 9.6313C15.9554 8.04113 16.2853 6.20316 17.3248 4.93097C18.0121 4.17172 19.1543 4.03108 20.1249 3.95618C20.5436 4.02786 20.3551 4.52121 19.9689 4.42919C19.2394 4.53361 18.4274 4.61298 17.8363 5.08649C17.015 5.89237 16.7226 7.07328 16.6479 8.18772C16.6179 8.62724 16.602 9.07867 16.7295 9.50579C16.8141 9.79699 16.3542 9.92994 16.2734 9.6313Z" fill="#623425"/>
<path fill-rule="evenodd" clip-rule="evenodd" d="M11.5182 5.85666C11.3282 3.43754 15.692 -1.44386 18.0875 0.473974C19.1186 1.80793 18.5027 3.75478 17.6877 5.05153C17.5339 5.31494 17.1229 5.07683 17.2794 4.81316C17.3955 4.62515 17.5096 4.43614 17.6105 4.2397C18.0632 3.32493 18.3142 2.23827 18.0076 1.23942C17.5051 -0.0722081 15.7852 0.654545 14.9558 1.24364C13.5 2.305 12.1964 3.85797 11.9811 5.69916C12.1381 6.01814 11.605 6.18953 11.5182 5.85666Z" fill="#623425"/>
<path fill-rule="evenodd" clip-rule="evenodd" d="M14.8945 7.06403C14.5217 7.03278 14.6311 6.51685 14.9877 6.59027C15.5034 6.5496 15.9357 6.22293 16.3098 5.89031C16.5985 5.73528 16.9517 4.93635 17.2893 5.22408C17.5269 5.54181 16.9936 5.80821 16.8359 6.04682C16.3083 6.55629 15.6639 7.06949 14.8945 7.06403Z" fill="#623425"/>
<path fill-rule="evenodd" clip-rule="evenodd" d="M18.8753 4.36639C18.6954 4.26072 18.7646 4.05733 18.8574 3.9162C18.9817 3.66667 19.0737 3.40176 19.135 3.13016C19.1895 2.60457 19.4028 1.92345 19.1374 1.45367C18.4826 1.06474 17.8623 0.478379 17.0584 0.469946C16.6947 0.582803 16.5449 0.0420786 16.9378 0.00512085C17.6787 -0.0501918 18.3663 0.351631 18.9452 0.773297C19.2808 0.98661 19.7203 1.1714 19.7062 1.63846C19.8019 2.09013 19.5586 4.62385 18.8753 4.36639Z" fill="#623425"/>
<path fill-rule="evenodd" clip-rule="evenodd" d="M15.1486 8.48105C14.9166 8.20647 15.2917 8.02664 15.5281 7.99167C15.7491 7.9113 15.9574 7.79398 16.1402 7.6459C16.3801 7.45615 16.6725 7.83391 16.4292 8.02019C16.1682 8.21416 15.4437 8.68766 15.1486 8.48105Z" fill="#623425"/>
<path fill-rule="evenodd" clip-rule="evenodd" d="M29.444 17.7007C29.1721 17.6766 28.904 17.6059 28.6567 17.4901C28.3831 17.3517 28.6024 16.9305 28.874 17.0702C29.5501 17.3445 30.5202 17.3542 31.0098 16.7358C31.5126 16.0406 31.7123 15.002 31.272 14.2304C30.4188 12.6553 28.9439 11.4233 27.2253 10.9047C25.518 10.4203 25.1303 11.6131 24.8992 10.9883C25.1085 10.1633 26.8788 10.2526 27.5224 10.5011C29.4814 11.1733 31.5359 12.8515 31.9903 14.9437C32.0385 16.5084 31.182 17.9468 29.444 17.7007Z" fill="#623425"/>
<path fill-rule="evenodd" clip-rule="evenodd" d="M25.1361 14.9197C24.923 14.729 24.3166 14.2808 24.8913 14.1324C25.12 14.1679 25.243 14.4189 25.4248 14.5454C25.6679 14.7312 25.3752 15.1097 25.1361 14.9197Z" fill="#623425"/>
<path fill-rule="evenodd" clip-rule="evenodd" d="M29.1368 19.0446C28.8756 18.9985 28.3096 18.8512 28.4636 18.492C28.5269 18.3839 28.6782 18.338 28.7871 18.4069C29.0135 18.5801 29.2956 18.6014 29.5704 18.5803C29.9863 18.6244 30.2205 18.2512 30.4038 17.9577C30.76 17.4435 31.0948 16.8912 31.299 16.3003C31.3334 15.99 31.8181 16.0349 31.7742 16.3504C31.6494 16.7711 31.4498 17.1704 31.2317 17.5504C30.6439 18.4416 30.3877 19.2279 29.1368 19.0446Z" fill="#623425"/>
<path fill-rule="evenodd" clip-rule="evenodd" d="M6.08468 21.4014C5.95173 21.0144 5.78554 20.6349 5.63672 20.2621C5.63672 20.1334 5.74437 20.0258 5.8731 20.0258C6.27393 20.1088 6.33569 20.8907 6.52024 21.2173C6.64029 21.4984 6.20076 21.6849 6.08468 21.4014Z" fill="#623425"/>
<path fill-rule="evenodd" clip-rule="evenodd" d="M7.56284 21.6736C7.4356 21.2164 7.37433 20.737 7.18384 20.3099C7.18384 20.1811 7.29149 20.0735 7.42022 20.0735C7.88876 20.1499 7.8466 21.1716 8.01874 21.5481C8.10307 21.841 7.64445 21.9705 7.56284 21.6736Z" fill="#623425"/>
<path fill-rule="evenodd" clip-rule="evenodd" d="M9.66196 21.5684C9.39358 21.2497 9.40574 20.7511 9.25939 20.3639C9.11901 20.1003 9.23583 19.7289 9.5739 19.9127C9.82541 20.3232 9.82368 20.853 10.0095 21.3013C10.0749 21.4962 9.83286 21.6783 9.66196 21.5684Z" fill="#623425"/>
<path fill-rule="evenodd" clip-rule="evenodd" d="M11.3024 21.1391C11.1062 20.6323 10.9187 20.1085 10.7817 19.5854C10.7817 19.4566 10.8894 19.349 11.0181 19.349C11.3309 19.3234 11.4673 20.3672 11.6112 20.6336C11.6715 20.8367 11.8932 21.1334 11.6122 21.2651C11.4949 21.3157 11.3555 21.2579 11.3024 21.1391Z" fill="#623425"/>
<path fill-rule="evenodd" clip-rule="evenodd" d="M13.0149 20.3309C12.8376 19.8638 12.6089 19.4106 12.4603 18.9347C12.4099 18.6953 12.7366 18.5249 12.8887 18.729C12.975 18.9845 13.0705 19.2462 13.1866 19.497C13.2778 19.7123 13.356 19.9335 13.4507 20.1471C13.5725 20.4259 13.1355 20.6146 13.0149 20.3309Z" fill="#623425"/>
<path fill-rule="evenodd" clip-rule="evenodd" d="M14.1512 19.185C13.9769 18.6837 13.6919 18.2155 13.554 17.7062C13.554 17.5775 13.6616 17.4698 13.7903 17.4698C14.0875 17.4875 14.1465 18.0909 14.3048 18.3169C14.3648 18.6076 14.8185 19.0982 14.461 19.311C14.345 19.3604 14.1999 19.3048 14.1512 19.185Z" fill="#623425"/>
<path fill-rule="evenodd" clip-rule="evenodd" d="M1.88383 19.5352C1.79528 19.124 1.65687 18.6785 1.75485 18.2601C1.80098 18.1398 1.94931 18.0852 2.0649 18.1343C2.19363 18.1881 2.22959 18.3273 2.19313 18.4511C2.18991 18.6929 2.23952 18.9315 2.28169 19.1686C2.50021 19.6766 2.06292 19.8981 1.88383 19.5352Z" fill="#623425"/>
<path fill-rule="evenodd" clip-rule="evenodd" d="M3.09228 19.9534C3.00621 19.472 2.87996 18.991 2.85938 18.5014C2.85938 18.3727 2.96702 18.265 3.09575 18.265C3.47103 18.3012 3.30584 18.8975 3.42291 19.1634C3.43978 19.4417 3.60374 19.7399 3.52412 20.01C3.43085 20.1863 3.13395 20.1511 3.09228 19.9534Z" fill="#623425"/>
<path fill-rule="evenodd" clip-rule="evenodd" d="M13.9756 8.93307C13.677 8.92315 13.6862 8.45733 13.9861 8.46056C14.2946 8.56572 15.0752 8.26882 15.1427 8.657C15.1682 9.10918 14.2698 8.91397 13.9756 8.93307Z" fill="#623425"/>
<path fill-rule="evenodd" clip-rule="evenodd" d="M13.7589 7.72862C13.4109 7.76979 13.2948 7.26677 13.6704 7.23279C13.9936 7.36896 14.9321 7.02642 14.9609 7.48207C14.9465 7.89232 14.0528 7.68124 13.7589 7.72862Z" fill="#623425"/>
<path fill-rule="evenodd" clip-rule="evenodd" d="M15.9219 7.52885C15.7351 7.37085 15.5446 7.21508 15.3747 7.03848C15.0347 6.80408 15.3268 6.31842 15.6389 6.62053C15.8197 6.84302 16.0075 6.97597 16.2106 7.15481C16.4537 7.34059 16.1613 7.7191 15.9219 7.52885Z" fill="#623425"/>
<path fill-rule="evenodd" clip-rule="evenodd" d="M18.9532 3.57073C18.7639 3.33286 18.0506 3.11533 18.3825 2.75121C18.688 2.57238 18.9934 3.0558 19.2422 3.19669C19.4852 3.38272 19.1923 3.76123 18.9532 3.57073Z" fill="#623425"/>
<path fill-rule="evenodd" clip-rule="evenodd" d="M17.91 6.60619C17.6309 6.51739 16.9635 6.68978 16.9277 6.30185C16.9823 5.8586 17.6763 6.16716 17.9742 6.13765C18.2783 6.17535 18.2121 6.6496 17.91 6.60619Z" fill="#623425"/>
<path fill-rule="evenodd" clip-rule="evenodd" d="M17.6394 8.19109C17.336 8.12338 16.5222 8.33248 16.4852 7.91156C16.4736 7.49807 17.3479 7.77092 17.6394 7.71833C17.9454 7.71709 17.9452 8.19531 17.6394 8.19109Z" fill="#623425"/>
<path fill-rule="evenodd" clip-rule="evenodd" d="M16.3664 17.0736C16.3662 16.7556 16.008 15.7325 16.5696 15.795C16.6958 15.8295 16.7608 15.9567 16.737 16.0795C16.7373 16.3913 16.7881 16.7018 16.8347 17.0094C16.8801 17.3115 16.4081 17.3785 16.3664 17.0736Z" fill="#623425"/>
<path fill-rule="evenodd" clip-rule="evenodd" d="M18.3123 17.3303C18.0951 16.9722 18.139 16.4719 18.0745 16.0594C18.072 15.7536 18.55 15.7531 18.5472 16.0594C18.5715 16.4121 18.6271 16.7638 18.6911 17.1111C18.7288 17.3127 18.4681 17.4606 18.3123 17.3303Z" fill="#623425"/>
<path fill-rule="evenodd" clip-rule="evenodd" d="M19.903 17.2586C19.811 16.8486 19.7344 16.4386 19.6493 16.0274C19.5853 15.8468 19.6113 15.5812 19.8532 15.5782C20.1838 15.5345 20.1801 16.5257 20.2843 16.7886C20.3145 16.998 20.4842 17.3311 20.1937 17.4238C20.0737 17.4566 19.9325 17.3841 19.903 17.2586Z" fill="#623425"/>
<path fill-rule="evenodd" clip-rule="evenodd" d="M21.5264 16.2162C21.4897 15.9352 21.428 15.6549 21.4141 15.3716C21.4141 15.2429 21.5217 15.1353 21.6504 15.1353C21.9585 15.1489 21.8774 15.5264 21.9332 15.737C21.9533 15.8754 21.9731 16.0138 21.9947 16.1517C22.0396 16.4536 21.5674 16.5208 21.5264 16.2162Z" fill="#623425"/>
<path fill-rule="evenodd" clip-rule="evenodd" d="M18.5149 22.029C18.5082 21.6835 18.0223 20.5294 18.6851 20.6308C18.8518 20.6943 18.827 20.8726 18.8188 21.015C18.85 21.335 18.9321 21.6475 18.9832 21.9648C19.0289 22.2661 18.5568 22.3341 18.5149 22.029Z" fill="#623425"/>
<path fill-rule="evenodd" clip-rule="evenodd" d="M19.9833 22.317C19.9344 21.9908 19.6186 20.5346 20.3335 20.9788C20.393 21.056 20.3957 21.1584 20.3513 21.2388C20.3243 21.5776 20.4032 21.9189 20.4518 22.253C20.4969 22.5541 20.0249 22.6216 19.9833 22.317Z" fill="#623425"/>
<path fill-rule="evenodd" clip-rule="evenodd" d="M22.0178 22.3351C21.9531 22.0054 21.6597 20.7357 22.3442 21.0703C22.4268 21.1517 22.4278 21.2722 22.378 21.3672C22.3695 21.6505 22.4177 21.9327 22.4737 22.2095C22.5553 22.504 22.095 22.6315 22.0178 22.3351Z" fill="#623425"/>
<path fill-rule="evenodd" clip-rule="evenodd" d="M23.996 22.1041C24.0072 21.7827 23.6287 20.5876 24.2676 20.7938C24.4008 20.8662 24.3849 21.0133 24.3738 21.139C24.3986 21.4399 24.4231 21.7413 24.4646 22.0402C24.509 22.3423 24.0364 22.4087 23.996 22.1041Z" fill="#623425"/>
<path fill-rule="evenodd" clip-rule="evenodd" d="M26.0595 21.7589C25.8744 21.5203 25.9216 21.1574 25.8499 20.8702C25.8263 20.6221 25.6949 20.1509 26.0659 20.1216C26.4355 20.128 26.2386 20.735 26.347 21.0031C26.3745 21.1824 26.4025 21.3618 26.4385 21.5399C26.4772 21.741 26.2145 21.8891 26.0595 21.7589Z" fill="#623425"/>
<path fill-rule="evenodd" clip-rule="evenodd" d="M27.2092 20.8858C27.2501 20.538 26.8443 19.0178 27.4302 19.1418C27.7273 19.2428 27.5425 19.6709 27.609 19.8842C27.5649 20.1895 27.8702 21.0153 27.4756 21.0879C27.3523 21.1048 27.2213 21.0143 27.2092 20.8858Z" fill="#623425"/>
<path fill-rule="evenodd" clip-rule="evenodd" d="M5.35674 18.3632C4.79518 17.8683 5.81884 16.8464 6.21272 16.4986C7.28177 15.5551 8.62391 14.9717 10.0072 14.6671C10.1325 14.6374 10.263 14.7048 10.2979 14.8323C10.4286 15.2446 9.30354 15.2485 9.02127 15.4351C7.72948 15.9408 6.17726 16.6782 5.66332 18.0472C5.75708 18.2364 5.54624 18.447 5.35674 18.3632Z" fill="#623425"/>
<path fill-rule="evenodd" clip-rule="evenodd" d="M11.7538 15.0437C11.5844 14.9793 11.4085 15.039 11.2408 15.0033C11.0538 14.9326 11.0506 14.6372 11.2408 14.5678C11.4475 14.4983 11.6722 14.542 11.8793 14.5878C12.1762 14.6655 12.047 15.1263 11.7538 15.0437Z" fill="#623425"/>
<path fill-rule="evenodd" clip-rule="evenodd" d="M8.49299 11.6882C7.86123 11.5558 8.91912 9.02923 9.20957 8.68545C9.42735 8.3377 9.67886 8.00731 9.98271 7.73025C10.2387 7.5343 11.049 6.87923 11.2256 7.40383C11.248 7.56555 11.1118 7.66948 10.9642 7.68585C9.97204 8.0713 9.43107 9.12894 9.06298 10.0613C8.90349 10.5219 8.80403 11.0009 8.75913 11.4863C8.74623 11.6143 8.61651 11.7051 8.49299 11.6882Z" fill="#623425"/>
<path fill-rule="evenodd" clip-rule="evenodd" d="M13.171 11.9681C13.7209 10.876 15.4547 10.7768 16.5498 10.708C17.2914 10.6535 18.0219 10.8112 18.7308 11.0139C19.0574 11.1379 19.4789 11.1441 19.74 11.3817C19.8489 11.5519 19.6686 11.795 19.4732 11.729C17.7289 11.1009 15.1538 10.7663 13.6304 12.0457C13.554 12.2905 13.1643 12.2283 13.171 11.9681Z" fill="#623425"/>
<path fill-rule="evenodd" clip-rule="evenodd" d="M20.5262 12.4418C20.3782 12.2776 20.2053 11.9519 20.5084 11.8497C20.7237 11.7882 20.7956 12.0191 20.9003 12.153C21.0885 12.3941 20.7105 12.6861 20.5262 12.4418Z" fill="#623425"/>
<path fill-rule="evenodd" clip-rule="evenodd" d="M19.1312 8.87046C18.9722 8.14246 19.0447 7.37826 19.2979 6.68003C19.3763 6.35882 19.9825 5.17071 20.1961 5.9875C19.7429 6.63389 19.4777 7.43654 19.5226 8.24118C19.5115 8.46863 19.6414 8.71097 19.5633 8.92701C19.4698 9.10312 19.1731 9.06839 19.1312 8.87046Z" fill="#623425"/>
<path fill-rule="evenodd" clip-rule="evenodd" d="M20.5934 5.82762C20.3285 5.25217 21.9276 5.24002 21.8083 5.76239C21.7168 6.05607 21.4018 5.87153 21.1907 5.86681C20.9818 5.82217 20.7422 6.07765 20.5934 5.82762Z" fill="#623425"/>
<path fill-rule="evenodd" clip-rule="evenodd" d="M29.8603 14.4841C29.4131 13.6309 28.6218 12.9351 27.7103 12.6171C27.4734 12.4673 26.9835 12.5911 26.9434 12.2424C26.9434 12.1136 27.051 12.006 27.1797 12.006C28.5033 12.1823 29.6929 13.1254 30.2958 14.2998C30.4166 14.5791 29.9803 14.7679 29.8603 14.4841Z" fill="#623425"/>
<path fill-rule="evenodd" clip-rule="evenodd" d="M21.6868 20.0033C21.283 19.9479 19.4949 19.8544 19.4648 19.4147C19.4805 19.1143 19.7985 19.1741 19.9959 19.2527C21.0386 19.5226 22.1417 19.6404 23.2082 19.4496C23.6237 19.3943 24.0372 19.3199 24.4341 19.1818C24.5561 19.1401 24.6925 19.2281 24.725 19.347C24.8808 19.9348 22.1149 20.0472 21.6868 20.0033Z" fill="#623425"/>
<path fill-rule="evenodd" clip-rule="evenodd" d="M25.5097 19.1693C25.0084 18.8942 25.6729 18.6154 25.913 18.4716C26.0509 18.3498 26.2558 18.1945 26.4073 18.387C26.6844 18.6782 25.7314 19.1911 25.5097 19.1693ZM25.721 19.1237C25.7453 19.1043 25.7662 19.081 25.7793 19.0542C25.7644 19.0812 25.7443 19.1046 25.721 19.1237Z" fill="#623425"/>
<path fill-rule="evenodd" clip-rule="evenodd" d="M13.3759 4.51351C12.5442 4.16254 14.6191 2.29282 15.0437 2.08025C15.4929 1.67495 15.8503 2.05545 15.5366 2.33127C15.2546 2.49572 14.9837 2.68571 14.7372 2.89803C14.3224 3.30978 13.8303 3.73343 13.6438 4.30169C13.6349 4.43414 13.5039 4.53137 13.3759 4.51351Z" fill="#623425"/>
<path fill-rule="evenodd" clip-rule="evenodd" d="M16.4977 1.89867C16.3095 1.90487 16.0512 1.86295 16.0813 1.6174C16.1142 1.37506 16.3816 1.41053 16.562 1.43037C16.8658 1.4646 16.8003 1.94505 16.4977 1.89867Z" fill="#623425"/>
<path fill-rule="evenodd" clip-rule="evenodd" d="M25.0274 6.91425C24.5596 5.96774 23.919 5.08224 23.1756 4.35326C22.9858 4.07396 22.2841 3.99062 22.3957 3.61435C22.9077 2.56762 26.6672 7.73601 25.0274 6.91425Z" fill="#623425"/>
<path fill-rule="evenodd" clip-rule="evenodd" d="M25.4309 8.56246C25.4036 8.30872 25.1201 7.85109 25.5046 7.75758C25.8498 7.73972 25.7921 8.20876 25.8868 8.43671C25.9692 8.73138 25.5088 8.85837 25.4309 8.56246Z" fill="#623425"/>
<path fill-rule="evenodd" clip-rule="evenodd" d="M5.75343 11.3358C5.77327 10.1682 6.17262 8.98509 6.89168 8.06264C7.08193 7.88306 7.30144 7.37582 7.60876 7.62187C7.85382 7.96789 7.20992 8.28364 7.08317 8.5922C6.83612 8.96426 6.64587 9.37129 6.50077 9.7932C6.34227 10.2923 6.22049 10.8099 6.22619 11.336C6.22917 11.6406 5.7507 11.6426 5.75343 11.3358Z" fill="#623425"/>
<path fill-rule="evenodd" clip-rule="evenodd" d="M7.98009 6.83316C7.6951 6.55634 8.42755 6.01909 8.61581 6.35518C8.79688 6.59504 8.15992 7.05887 7.98009 6.83316Z" fill="#623425"/>
<path fill-rule="evenodd" clip-rule="evenodd" d="M20.479 23.9731C20.0958 23.983 17.4938 23.4837 17.7431 22.9698C17.9167 22.5915 18.5936 23.1427 18.9049 23.1707C20.1111 23.5983 21.4114 23.5829 22.6672 23.4326C22.7954 23.4195 22.9162 23.4991 22.9363 23.6311C23.1151 24.1281 20.8037 23.9823 20.479 23.9731Z" fill="#623425"/>
<path fill-rule="evenodd" clip-rule="evenodd" d="M23.7365 23.6154C23.7028 23.3026 24.0793 23.3411 24.2859 23.2825C24.4982 23.2505 24.8328 23.0625 24.9323 23.3589C24.9673 23.4807 24.8946 23.6186 24.7703 23.6516C24.4647 23.6779 23.8806 24.0328 23.7365 23.6154Z" fill="#623425"/>
</svg>
