<svg width="30" height="24" viewBox="0 0 30 24" fill="none" xmlns="http://www.w3.org/2000/svg">
<path fill-rule="evenodd" clip-rule="evenodd" d="M23.4057 1.65609C24.8159 3.28004 25.6788 5.53325 25.4608 7.69538C25.2156 10.5983 23.6393 13.2051 21.8038 15.3947C20.0379 17.3593 18.1997 19.2608 16.2636 21.0578C15.8343 21.4663 14.4392 22.8135 13.6755 23.1105C13.7073 23.3681 13.4 23.6506 13.1319 23.4374C11.7893 22.4586 10.7682 21.1147 9.39487 20.1698C7.45292 18.6256 5.38863 17.123 3.95036 15.067C2.76244 13.1534 1.32552 11.2648 0.995666 8.97708C0.885445 7.07555 0.909428 5.05869 1.71386 3.29595C2.13049 2.47266 2.89288 1.89999 3.61053 1.35023C4.34813 0.796965 5.28784 0.63042 6.1653 0.417523C7.05677 0.279813 7.95903 0.502949 8.81682 0.73552C10.0406 1.06241 11.1606 1.69518 11.9095 2.7373C12.5002 3.36225 12.8074 4.15697 12.9484 4.98673C14.3077 2.06384 16.493 0.35823 19.9139 0.399463C21.1436 0.505642 22.456 0.829568 23.4057 1.65609Z" fill="#FA6B44"/>
<path fill-rule="evenodd" clip-rule="evenodd" d="M27.3031 6.9654C27.4069 8.30342 27.3209 9.69291 26.8294 10.9531C26.7062 11.298 26.5195 12.1617 26.1907 12.5433C25.9425 13.0058 25.5418 13.5073 25.4415 13.7681C24.7047 15.0145 23.8496 16.1895 22.8765 17.2621C22.4507 17.6394 21.556 18.8626 21.0518 18.8742C19.9355 20.0796 18.5859 21.0323 17.218 21.9297C16.2643 22.5096 15.3168 23.2299 14.2256 23.5011C13.0859 23.0707 15.0362 22.3261 15.358 21.976C16.063 21.4268 16.5737 20.7108 17.3059 20.195C17.7597 19.9063 18.0976 19.3946 18.5838 19.1881C18.9659 18.8055 19.2545 18.1827 19.7919 18.0226C20.0353 17.2583 20.7642 16.6986 21.2226 16.0453C22.33 14.727 23.3958 13.3739 24.3929 11.9696C24.2787 11.7025 24.4579 11.4325 24.536 11.1794C24.8104 10.4553 25.0933 9.73496 25.3771 9.01461C25.4267 8.90061 25.4464 8.74242 25.4666 8.57992C25.4469 8.40691 25.4771 8.20101 25.5064 8.04498C25.5983 7.37718 25.5342 6.70292 25.5415 6.03135C25.6272 4.64886 25.0901 3.41675 24.1064 2.4606C23.8459 2.20216 23.1126 1.74079 23.6785 1.4112C23.9024 1.31176 24.0792 1.49933 24.2358 1.63218C25.8042 2.27734 26.8148 4.02283 26.9129 5.6802C26.9458 5.7058 26.9736 5.7376 26.994 5.77479C27.014 5.81144 27.0275 5.84944 27.0377 5.88852C27.3048 6.15747 27.228 6.61587 27.3031 6.9654ZM13.9766 2.52285C14.0092 2.30537 13.827 2.0817 13.6058 2.10164C13.2029 1.77502 12.7326 1.48019 12.2322 1.35191C11.5609 0.988101 10.8731 0.63291 10.1199 0.475797C9.86038 0.42163 9.56421 0.357762 9.31223 0.466636C8.97375 0.61216 9.07454 1.10398 9.4168 1.16839C10.4662 1.38775 11.296 1.63892 11.8425 2.64412C11.9656 2.84894 12.095 3.1734 12.3828 3.14133C12.482 3.31839 12.5321 3.54098 12.6908 3.67762C12.7256 3.81128 12.7674 3.956 12.8682 4.05167C12.8175 4.20528 12.7887 4.38476 12.8962 4.52193C13.0835 4.7774 13.5281 4.64105 13.5209 4.31793C13.5449 4.02822 13.6888 3.7493 13.7507 3.46203C13.9 3.50003 14.0523 3.41702 14.141 3.29035C14.3142 3.04269 14.1013 2.74572 13.9766 2.52285Z" fill="#C94D2B"/>
<path fill-rule="evenodd" clip-rule="evenodd" d="M4.2846 12.5628C4.08841 12.2066 3.89842 11.8471 3.70924 11.487C3.61249 11.269 3.52113 11.0483 3.43058 10.8281C2.95897 9.7127 2.70485 8.50835 2.70754 7.28998C2.71212 5.41164 3.0444 3.73622 4.71821 2.70542C5.73634 2.03304 6.99756 1.85544 8.17658 2.06376C8.83629 2.18664 9.43052 2.53833 9.95037 2.96494C10.2096 3.17325 10.4317 3.42711 10.605 3.7152C10.6796 3.8362 10.7502 3.96016 10.8181 4.08493C10.8866 4.20297 10.7826 4.36224 10.6508 4.3334C10.5451 4.39404 10.4368 4.2981 10.3387 4.26172C10.2452 4.22022 10.1498 4.18384 10.0738 4.15581C9.74097 4.0305 9.39306 3.95396 9.03976 3.92809C8.22104 3.90599 7.39856 4.18626 6.71217 4.63577C5.85034 5.2715 5.19413 6.18884 4.76187 7.18165C4.40317 8.08336 4.27166 9.06511 4.29376 10.0369C4.27786 10.2889 4.27274 10.5422 4.27544 10.7942C4.2784 11.1224 4.29511 11.4504 4.32475 11.7773C4.35197 12.0737 4.37865 12.3707 4.42392 12.665C4.36868 12.6501 4.32314 12.6095 4.2846 12.5628Z" fill="#FFC0AF"/>
<path fill-rule="evenodd" clip-rule="evenodd" d="M13.0618 23.7859C12.7117 23.4215 14.0096 22.768 14.2284 22.4721C14.6289 22.132 15.028 21.79 15.4269 21.4475C17.8005 19.4029 20.2025 17.3208 22.1099 14.8216C23.3636 13.0238 24.6677 11.1007 25.0512 8.91379C25.4473 6.31671 25.257 3.29789 22.8904 1.68364C20.4997 -0.0634669 16.7915 0.617259 14.8167 2.69907C14.271 3.30192 13.867 4.02848 13.6377 4.80838C13.5078 5.03906 13.5806 5.5069 13.2308 5.5166C12.6058 5.43306 13.4253 4.01338 13.5342 3.659C15.1932 0.342921 20.1338 -0.919908 23.1564 1.23871C25.6174 2.9171 25.9647 5.8637 25.616 8.60819C25.315 11.0897 23.8506 13.2459 22.4401 15.242C20.8005 17.3922 18.761 19.2013 16.7519 20.9975C15.9874 21.6472 15.2272 22.3037 14.4613 22.9518C14.109 23.145 13.4032 24.1063 13.0618 23.7859Z" fill="#633728"/>
<path fill-rule="evenodd" clip-rule="evenodd" d="M13.332 23.7859C13.6821 23.4215 12.3842 22.768 12.1654 22.4721C11.7649 22.132 11.3658 21.79 10.967 21.4475C8.5933 19.4029 6.19133 17.3208 4.28415 14.8216C3.03048 13.0238 1.72641 11.1007 1.34293 8.91379C0.946777 6.31671 1.13704 3.29789 3.5037 1.68364C5.89435 -0.0634669 9.60254 0.617259 11.5774 2.69907C12.1231 3.30192 12.527 4.02848 12.7564 4.80838C12.8863 5.03906 12.8135 5.5069 13.1633 5.5166C13.7883 5.43306 12.9687 4.01338 12.8599 3.659C11.2009 0.342921 6.26032 -0.919908 3.23771 1.23871C0.776728 2.9171 0.429355 5.8637 0.778076 8.60819C1.0791 11.0897 2.54351 13.2459 3.95402 15.242C5.5936 17.3922 7.6331 19.2013 9.64215 20.9975C10.4067 21.6472 11.1669 22.3037 11.9328 22.9518C12.285 23.145 12.9906 24.1063 13.332 23.7859Z" fill="#633728"/>
<path fill-rule="evenodd" clip-rule="evenodd" d="M13.3128 23.8058C13.292 23.6684 13.3931 23.5377 13.5278 23.5159C13.9622 23.4229 14.4225 23.2216 14.799 23.0324C16.9105 21.9617 18.8686 20.6212 20.6289 19.0383C24.8394 15.3398 29.5436 8.66423 25.7751 3.20328C24.9836 2.32528 23.9792 1.68443 22.8667 1.31604C22.5215 1.11931 21.049 0.98241 21.0859 0.614826C21.194 0.0173654 22.1157 0.65013 22.4905 0.657945C23.4672 0.931208 24.409 1.34595 25.2073 1.97925C26.8293 3.10384 27.496 5.07866 27.6165 6.97696C27.9243 12.0361 24.3301 16.4102 20.765 19.6047C19.5515 20.6466 18.2981 21.6507 16.9062 22.4462C16.34 22.7198 13.5674 24.6 13.3128 23.8058Z" fill="#633728"/>
<path fill-rule="evenodd" clip-rule="evenodd" d="M14.1509 3.06768C13.9412 2.9898 13.8698 2.73054 13.7116 2.58286C13.4507 2.27295 13.15 1.997 12.8056 1.78221C10.9698 0.636879 8.74274 0.373586 6.62293 0.575164C6.36961 0.551719 6.07425 0.814739 5.87159 0.591062C5.69858 0.358492 5.9519 0.138049 6.18609 0.12188C8.83787 -0.2325 11.9367 0.120261 13.9345 2.05682C14.1571 2.29613 14.8712 3.0383 14.1509 3.06768Z" fill="#633728"/>
<path fill-rule="evenodd" clip-rule="evenodd" d="M3.37368 16.4772C1.8233 14.9586 0.551308 13.0438 0.00316494 10.9294C-0.0464213 10.5821 0.502801 10.5333 0.520587 10.886C0.895448 12.3219 1.67859 13.6273 2.55766 14.8106C2.91959 15.2723 3.31439 15.7075 3.73938 16.1117C3.97734 16.3435 3.61002 16.7165 3.37368 16.4772Z" fill="#633728"/>
<path fill-rule="evenodd" clip-rule="evenodd" d="M4.97983 18.1555C4.74618 18.086 4.63407 17.8152 4.46294 17.6543C4.29505 17.4713 3.99214 17.128 4.33251 16.9549C4.62248 16.8445 4.72893 17.2177 4.90167 17.3729C5.1205 17.6023 5.57217 18.0849 4.97983 18.1555Z" fill="#633728"/>
<path fill-rule="evenodd" clip-rule="evenodd" d="M28.3702 10.9125C28.2365 10.8759 28.1489 10.7293 28.1894 10.5945C28.3443 10.0725 28.4653 9.54055 28.5367 9.00049C28.7558 7.42882 28.5774 5.82266 27.9916 4.34828C27.8999 4.02839 28.4036 3.88583 28.4898 4.21056C29.1245 5.79463 29.2781 7.52746 29.0299 9.21177C28.9227 9.55995 28.8547 11.0443 28.3702 10.9125Z" fill="#633728"/>
<path fill-rule="evenodd" clip-rule="evenodd" d="M27.3145 13.0693C27.0253 12.8839 27.3128 12.5998 27.4126 12.3899C27.4869 12.2072 27.6031 11.9495 27.8459 12.0506C27.9728 12.1045 28.0421 12.2613 27.9836 12.3893C27.83 12.6348 27.7044 13.2388 27.3145 13.0693Z" fill="#633728"/>
<path fill-rule="evenodd" clip-rule="evenodd" d="M9.67205 20.7479C9.0312 19.996 9.14978 18.8 9.30393 17.8776C9.33761 17.7407 9.48934 17.6604 9.6222 17.6967C9.99867 17.8506 9.67879 18.3451 9.71841 18.6467C9.68984 19.1078 9.69739 19.5821 9.8456 20.0241C9.89492 20.155 9.94936 20.2833 10.0111 20.4089C10.1089 20.6113 9.87336 20.8425 9.67205 20.7479Z" fill="#633728"/>
<path fill-rule="evenodd" clip-rule="evenodd" d="M7.98264 19.4592C7.73633 19.1034 7.28116 17.3739 7.95138 17.3394C8.38041 17.4286 8.0236 18.1538 8.17748 18.4885C8.23138 18.7348 8.3001 18.9795 8.42892 19.198C8.5995 19.485 8.14945 19.7502 7.98264 19.4592Z" fill="#633728"/>
<path fill-rule="evenodd" clip-rule="evenodd" d="M17.9875 2.2887C17.8676 1.71091 18.3791 1.007 18.7795 0.61597C19.0167 0.452928 19.5064 0.0659392 19.7171 0.430021C19.8772 0.850695 19.0391 0.82833 18.8116 1.35842C18.6577 1.62252 18.5375 1.83891 18.4669 2.12323C18.5095 2.39245 18.1236 2.53043 17.9875 2.2887Z" fill="#633728"/>
<path fill-rule="evenodd" clip-rule="evenodd" d="M20.1313 1.77539C20.1828 1.31456 21.2616 0.133108 21.6394 0.768567C21.7081 1.18062 21.0988 1.10031 20.9336 1.40187C20.7113 1.57623 20.6986 1.99825 20.3898 2.03383C20.2488 2.03383 20.1313 1.91633 20.1313 1.77539Z" fill="#633728"/>
<path fill-rule="evenodd" clip-rule="evenodd" d="M22.0821 2.32649C21.6422 1.93169 23.2702 1.10516 23.3724 1.63228C23.4462 2.01388 22.9277 1.97885 22.7035 2.13192C22.5089 2.23379 22.3098 2.54801 22.0821 2.32649Z" fill="#633728"/>
</svg>
