<svg width="32" height="20" viewBox="0 0 32 20" fill="none" xmlns="http://www.w3.org/2000/svg">
<path fill-rule="evenodd" clip-rule="evenodd" d="M31.1208 9.2907C31.5143 9.38342 31.2111 10.5874 31.2625 10.9469C31.2246 11.8661 31.2204 12.7867 31.2093 13.7068C31.1112 14.5675 31.3567 17.2577 30.4659 17.8922C30.4394 17.9481 30.3908 17.9963 30.3154 18.0258C29.0759 18.4347 27.7359 18.3938 26.4483 18.5327C23.8224 18.7935 21.1789 18.7469 18.5429 18.7563C16.57 18.7124 14.5965 18.7397 12.6232 18.7413C11.516 18.7846 10.4147 18.8814 9.30847 18.9134C8.63492 18.8082 4.66561 19.0708 4.62255 18.5469C3.9649 18.52 3.25168 18.6345 2.61672 18.4594C2.24725 18.3972 1.32947 18.4639 1.22674 18.0115C1.17475 17.9802 1.12562 17.9365 1.08363 17.8855C0.986619 17.88 0.891213 17.8171 0.834935 17.6726C0.251607 13.8106 0.268044 9.87921 0.247676 5.98047C0.237135 4.99497 0.170852 4.01055 0.164062 3.02506C0.198901 2.85283 0.291091 2.75796 0.392749 2.73384C0.272868 2.19678 1.53743 2.17124 1.89761 2.05743C2.86399 1.89342 3.89951 1.72905 4.86732 1.67831C7.24601 1.47499 9.63328 1.64115 12.0163 1.58112C13.35 1.59452 14.6894 1.52252 16.0104 1.43944C17.208 1.40478 18.4045 1.53056 19.6022 1.50358C23.1724 1.39067 26.7447 1.46177 30.3045 1.74406C30.3958 1.7035 30.5063 1.7069 30.589 1.77032C30.5822 1.7655 30.5752 1.76103 30.5682 1.75621C30.8052 1.91915 30.8655 2.23127 30.9352 2.49265C31.2457 2.52516 31.2034 2.8623 31.1861 3.09205C31.1719 3.55961 31.1716 4.0277 31.1675 4.49526C31.151 6.09517 31.1961 7.6949 31.1208 9.2907Z" fill="#9E7E81"/>
<path fill-rule="evenodd" clip-rule="evenodd" d="M4.61444 18.7019C4.05309 18.6104 1.09911 18.823 1.21524 18.0911C1.02639 17.6982 1.6844 17.3489 1.92667 17.1406C2.1993 16.8794 2.47087 16.6142 2.69473 16.3089C3.05098 15.8381 3.3497 15.3056 3.78045 14.8989C4.00003 14.7705 4.25301 14.8075 4.50385 14.8443C4.62999 14.8627 4.75576 14.8812 4.87636 14.8787C6.30922 14.9799 7.74351 14.9566 9.17745 14.9334C10.611 14.9104 12.0442 14.8873 13.4759 14.9883C14.0138 15.0067 14.5516 14.9838 15.0888 14.9556C15.1853 14.9631 15.2886 14.9506 15.3929 14.9381C15.5921 14.9141 15.7936 14.8902 15.9521 15.007C17.2159 14.9858 18.4805 15.004 19.7449 15.0224C21.2944 15.0447 22.8441 15.0672 24.3929 15.017C25.4433 14.9672 26.5237 14.6233 27.567 14.7949C28.1321 15.1993 28.3121 15.97 28.6603 16.5489C28.8493 16.9294 29.1255 17.2608 29.2972 17.6505C29.341 17.81 29.4483 17.9192 29.5386 18.0496C29.5766 18.1527 29.5659 18.2372 29.5186 18.3063C29.4433 18.2896 29.3612 18.3019 29.2852 18.3096C29.207 18.3174 29.1287 18.3265 29.0506 18.3362C28.8897 18.3562 28.7287 18.3764 28.5679 18.3975C28.4578 18.4119 28.3478 18.4268 28.2379 18.442C28.2204 18.4432 28.2027 18.4445 28.1852 18.4457C27.9606 18.4616 27.736 18.4788 27.512 18.502C27.2847 18.5254 27.0582 18.5558 26.8309 18.5795C26.7091 18.5922 26.5871 18.6038 26.4651 18.6144C26.445 18.6153 26.4249 18.616 26.4048 18.6165C26.2253 18.6149 26.0457 18.6004 25.8664 18.5924C25.6516 18.5829 25.4365 18.5808 25.2216 18.5749C25.005 18.5686 24.788 18.5654 24.5714 18.5747C24.3574 18.5838 24.1435 18.5994 23.9304 18.6226C23.7539 18.6419 23.579 18.6739 23.4037 18.7012C18.8155 18.7603 14.2268 18.7553 9.63732 18.7759C7.96309 18.7532 6.28903 18.7008 4.61444 18.7019Z" fill="#826364"/>
<path fill-rule="evenodd" clip-rule="evenodd" d="M29.2919 1.61785C30.5425 1.58909 30.8452 1.95052 29.8909 2.89742C29.3101 3.52524 28.6612 4.08159 27.9927 4.61293C27.6753 4.93469 27.258 5.05225 26.8144 5.00098C26.1319 4.95524 25.4551 4.81463 24.7682 4.87824C24.3167 4.84161 22.8651 5.32775 22.9776 4.53431C23.2428 4.12357 23.6891 3.83271 24.055 3.50934C24.7828 3.04482 24.9643 2.06183 25.6415 1.54496C25.8605 1.49029 26.0599 1.63232 26.2868 1.61196C27.288 1.67967 28.2901 1.58623 29.2919 1.61785Z" fill="#826364"/>
<path fill-rule="evenodd" clip-rule="evenodd" d="M3.72897 6.01783C3.83063 6.87273 2.94286 7.26489 2.54927 7.90253C2.2493 8.37366 2.06921 8.89142 1.61719 9.24124C1.34938 9.48743 1.06584 9.71772 0.821972 9.98857C0.719242 10.1397 0.520034 10.255 0.343875 10.1526C0.0179967 9.87691 0.201482 9.34718 0.152172 8.96878C0.16575 7.70654 0.357631 6.4518 0.247397 5.18777C0.226851 4.66591 0.249721 4.14368 0.237572 3.62217C0.202018 3.34614 0.0757043 2.8407 0.515032 2.86893C0.763907 2.92485 0.883074 3.19624 1.07871 3.34095C1.42388 3.63628 1.75994 3.9434 2.11941 4.22086C2.58035 3.94965 3.4499 5.28943 3.54012 5.6857C3.6743 5.73162 3.7538 5.88044 3.72897 6.01783Z" fill="#826364"/>
<path fill-rule="evenodd" clip-rule="evenodd" d="M29.603 11.9813C29.6205 11.6336 29.9336 11.2961 30.0491 10.9972C30.2014 10.7188 30.2957 10.3917 30.5274 10.167C30.5833 9.90718 30.5685 9.63026 30.6537 9.37799C30.7711 9.0848 31.2324 9.192 31.2112 9.50609C31.3493 9.84608 31.2187 10.2586 31.2537 10.6233C31.3462 10.8548 31.526 11.2661 31.2637 11.4447C31.2153 11.6118 30.99 11.6997 30.8394 11.603C30.6428 11.923 29.7899 12.6271 29.603 11.9813Z" fill="#826364"/>
<path fill-rule="evenodd" clip-rule="evenodd" d="M20.3441 15.0073C20.4054 15.051 20.3956 15.148 20.3327 15.1845C20.3021 15.2022 20.2664 15.207 20.2325 15.214C19.4844 15.3664 18.7267 15.4718 17.9904 15.6772C17.7307 15.7426 17.4696 15.8082 17.2042 15.8455C16.8724 15.89 16.5113 15.8945 16.1852 15.9204C15.6375 15.9549 15.0906 16.0301 14.5409 16.0147C13.6627 15.9663 12.7857 15.9016 11.9092 15.8311C11.3223 15.7932 10.7352 15.736 10.1545 15.6385C9.91013 15.5942 9.67019 15.5281 9.42739 15.4768C9.15851 15.423 8.88587 15.3891 8.61413 15.3514C8.34203 15.3122 8.07064 15.2642 7.79657 15.2409C7.67866 15.2347 7.56056 15.2342 7.44247 15.2342C7.38404 15.2342 7.33545 15.1854 7.33545 15.127C7.33545 15.0685 7.38404 15.0199 7.44247 15.0199C7.77317 15.0105 8.09994 15.0537 8.42528 15.1073C8.6797 15.0916 8.93875 15.1145 9.1946 15.1032C9.717 15.0891 10.2385 15.1084 10.7609 15.1119C11.5629 15.1161 12.3653 15.1178 13.1668 15.1484C13.9041 15.1647 14.638 15.249 15.3756 15.2552C15.4007 15.2556 15.4259 15.2558 15.4511 15.2556C15.4965 15.2393 15.5474 15.2295 15.5848 15.2166C15.9787 15.118 16.3887 15.1134 16.7925 15.1123C16.9703 15.1148 17.1481 15.1205 17.3256 15.1268C17.326 15.1268 17.3264 15.1268 17.3267 15.1268C17.6304 15.1152 17.9345 15.1087 18.2382 15.0962C18.8602 15.0719 19.4826 15.0321 20.0999 14.9867C20.1808 14.9874 20.2725 14.9604 20.3441 15.0073Z" fill="#6C4E4F"/>
<path fill-rule="evenodd" clip-rule="evenodd" d="M3.89242 6.41757C3.89296 6.54745 3.7879 6.64161 3.70304 6.72683C3.63158 6.79776 3.561 6.86886 3.49276 6.94283C3.40736 7.04895 3.22709 7.22654 3.11364 7.0586C3.01269 6.81687 2.97518 6.55049 2.89067 6.30179C2.77007 5.91696 2.65305 5.55785 2.4735 5.20196C2.36558 4.95969 2.18138 4.77103 1.95895 4.63078C1.77529 4.49964 1.59645 4.36225 1.42011 4.22164C1.07065 3.95008 0.791758 3.60276 0.512868 3.26223C0.457661 3.19327 0.401026 3.12466 0.349751 3.05266C0.313661 3.03533 0.288112 2.99799 0.288112 2.95601C0.283824 2.89383 0.330991 2.83041 0.39656 2.83309C0.49393 2.83666 0.525553 2.94886 0.58469 3.00925C0.630069 2.9971 0.670983 3.0189 0.702249 3.0507C0.953625 3.26295 1.17945 3.50575 1.44619 3.69906C1.70043 3.87272 1.9895 3.98617 2.24517 4.15643C2.51066 4.34278 2.78347 4.51768 3.04539 4.70903C3.46917 4.98542 3.5962 5.29611 3.74896 5.75938C3.81542 5.97359 3.8842 6.19174 3.89242 6.41757Z" fill="#6C4E4F"/>
<path fill-rule="evenodd" clip-rule="evenodd" d="M25.4307 4.89202C25.4307 4.89148 25.4307 4.89095 25.4307 4.89023C25.4492 4.88291 25.4676 4.8754 25.486 4.86808C25.6756 4.79125 25.8648 4.71336 26.0529 4.63278C26.0579 4.63421 26.0631 4.63546 26.0681 4.63689C26.8499 4.3848 27.6268 4.12896 28.2994 3.65015C28.7873 3.31355 29.3224 3.04734 29.7871 2.67751C29.8943 2.60426 29.9822 2.48849 30.1062 2.44633C30.1755 2.43543 30.2463 2.49689 30.2334 2.56853C30.2127 2.67287 30.1187 2.74612 30.056 2.82598C29.7502 3.16312 29.4093 3.46648 29.0745 3.77431C28.738 4.07554 28.4148 4.39159 28.0623 4.67405C27.737 4.96634 27.5642 4.96152 27.1458 4.97706C26.7824 5.0019 26.4196 4.97402 26.0719 4.86022C25.9368 4.90185 25.8014 4.94186 25.6644 4.97599C25.6288 4.98778 25.587 4.99761 25.5488 4.99761C25.488 4.99725 25.436 4.9726 25.4307 4.89202Z" fill="#6C4E4F"/>
<path fill-rule="evenodd" clip-rule="evenodd" d="M6.25798 5.1182C6.21724 5.04834 6.21278 4.95669 6.27477 4.872C6.57421 4.48484 6.84399 4.02032 7.25008 3.74143C7.37693 3.49292 7.76213 3.65532 7.65278 3.91742C7.91363 4.01747 7.95419 4.38819 8.10569 4.60294C8.19395 4.61937 8.26756 4.6928 8.28006 4.78499C8.28257 4.80357 8.28256 4.82198 8.28024 4.83966C8.37868 4.87647 8.4321 4.9792 8.41817 5.07621C9.51908 5.02047 10.6187 4.93042 11.7204 4.88933C13.6987 4.8511 15.6777 4.84842 17.6551 4.77052C19.3129 4.67083 20.9736 4.65511 22.634 4.66065C22.6387 4.62688 22.6514 4.59311 22.6682 4.56542C22.7671 4.37247 22.8972 4.1972 22.9991 4.00585C23.0414 3.92563 23.0798 3.84363 23.1155 3.76037C23.2154 3.61494 23.3135 3.46862 23.4064 3.31854C23.4684 3.21831 23.5306 3.11219 23.5686 3.00017C23.6002 2.90673 23.6237 2.81079 23.6471 2.71503C23.7405 2.33126 23.827 1.94571 23.9226 1.56231C24.0558 1.57142 24.1889 1.58053 24.3226 1.57374C24.5354 1.55784 24.7465 1.51943 24.9586 1.49442C25.101 1.48584 25.312 1.43581 25.3913 1.59143C25.4297 1.70238 25.3386 1.83691 25.299 1.93053C25.0955 2.3234 24.8119 2.69555 24.5184 3.01482C24.2375 3.33248 23.9761 3.62995 23.711 3.95333C23.6008 4.07785 23.2075 4.53344 22.9354 4.72711C22.9739 4.74104 23.0139 4.75105 23.0519 4.75855C23.1196 4.77195 23.1874 4.78285 23.2556 4.79286C23.497 4.82841 23.743 4.83698 23.9862 4.84842C24.2206 4.8595 24.4551 4.86468 24.6897 4.86986C24.9093 4.87468 25.1291 4.87736 25.3486 4.8795C25.464 4.88076 25.5798 4.88165 25.6952 4.88219C25.7122 4.88236 25.7288 4.88236 25.7456 4.88236C25.7915 4.88236 25.8373 4.88218 25.883 4.88183C25.8926 4.88165 25.9028 4.88165 25.9127 4.88165C25.9625 4.88165 26.0136 4.88165 26.0618 4.87075C26.1092 4.86003 26.151 4.83591 26.1837 4.80304C26.1967 4.80304 26.2096 4.80304 26.2225 4.80286C26.2757 4.80268 26.3289 4.80232 26.3822 4.80214C26.3893 4.80232 26.3965 4.80232 26.4034 4.80197C26.4667 4.80161 26.5298 4.80125 26.5928 4.80089C26.6034 4.80161 26.6141 4.80161 26.625 4.80072C26.6253 4.80072 26.6259 4.80072 26.6262 4.80072C26.6655 4.80054 26.705 4.80036 26.7445 4.80036C26.8203 4.83216 26.9087 4.83359 26.9896 4.83698C27.0527 4.83948 27.1161 4.84091 27.1794 4.84127C27.2549 4.84199 27.3307 4.84234 27.4063 4.84181C27.4375 4.84163 27.4692 4.8402 27.5004 4.8377C27.501 4.8377 27.5017 4.83752 27.502 4.83752C27.9467 5.06996 27.9717 5.61273 27.9262 6.83138C27.9964 8.56242 28.038 10.2936 27.9649 12.0249C27.9944 11.9852 28.0373 11.9582 28.0989 11.9557C28.3991 12.0004 28.6765 12.1539 28.9651 12.2289C29.0101 12.2396 29.0542 12.2607 29.1001 12.2641C29.1761 12.2636 29.2213 12.34 29.205 12.4099C29.1941 12.4896 29.1216 12.5321 29.0739 12.5893C29.0103 12.6648 28.9533 12.7445 28.897 12.8255C28.6438 13.2126 28.4459 13.6325 28.2254 14.0384C28.1329 14.2136 28.0414 14.3895 27.9569 14.5688C27.9037 14.6644 27.8642 14.8711 27.7155 14.8016C27.6993 14.7939 27.686 14.7813 27.6755 14.765C27.3662 15.1005 26.7157 15.0532 25.3733 15.0187C22.6639 15.0242 19.954 15.1116 17.2438 15.1813C17.0346 15.1748 16.8256 15.1659 16.6166 15.1538C16.1428 15.1264 15.6688 15.1007 15.1951 15.0703C15.1848 15.0691 15.1746 15.0684 15.1644 15.0684C15.1612 15.0682 15.158 15.068 15.1548 15.0678C15.1546 15.0676 15.1546 15.0676 15.1544 15.0676C15.1542 15.0676 15.1542 15.0676 15.154 15.0676C15.1537 15.0676 15.1533 15.0676 15.153 15.0676C15.1494 15.0675 15.1462 15.0671 15.1426 15.0669C15.1376 15.0666 15.1328 15.0662 15.1278 15.0659C15.1264 15.0657 15.1246 15.0657 15.123 15.0655C15.0983 15.0639 15.0738 15.0621 15.049 15.0605C15.0488 15.0605 15.0486 15.0605 15.0485 15.0605C15.0479 15.0605 15.0474 15.0605 15.0469 15.0603C15.0465 15.0603 15.0461 15.0603 15.0458 15.0603C15.0454 15.0603 15.0451 15.0603 15.0447 15.0603C15.0424 15.0601 15.0402 15.06 15.0379 15.0598C15.0342 15.0594 15.0306 15.0593 15.027 15.0589C15.0261 15.0589 15.0256 15.0589 15.0247 15.0587C14.9479 15.0535 14.8714 15.0484 14.7948 15.0432C14.7781 15.0419 14.7619 15.0407 14.746 15.0398C14.4224 15.018 14.0982 15.001 13.7739 15.0023C13.2947 15.0042 12.8159 15.0182 12.3369 15.0266C11.8506 15.035 11.3643 15.0423 10.8782 15.0614C10.3902 15.0809 9.90284 15.1071 9.4151 15.1302C9.15729 15.1422 8.89984 15.1548 8.64203 15.1675C8.40799 15.1791 8.17358 15.1886 7.93989 15.2083C7.92256 15.2093 7.90577 15.2109 7.88897 15.2142C7.43392 15.1997 6.97905 15.1863 6.52383 15.1791C6.40412 15.174 6.28442 15.1684 6.16454 15.1623C6.04501 15.1563 5.92531 15.1497 5.80561 15.1454C5.63249 15.1204 5.45972 15.0944 5.28696 15.0669C5.12902 15.0382 4.9709 15.0099 4.8135 14.9776C4.72846 14.9603 4.64396 14.9421 4.55927 14.9231C4.46869 14.9027 4.37829 14.8756 4.28485 14.8738C4.26251 14.8734 4.24072 14.877 4.21981 14.8838C3.86874 14.69 3.72242 14.3451 3.67597 13.9444C3.66882 14.0198 3.66275 14.0952 3.65792 14.1708C3.63827 14.3475 3.68258 14.5333 3.61433 14.7023C3.5041 14.9722 3.33455 15.2122 3.17054 15.4516C3.13445 15.508 3.12301 15.5906 3.05369 15.6177C2.87307 15.8688 2.69369 16.1212 2.50413 16.3647C2.4332 16.4893 2.36174 16.6132 2.28902 16.7367C2.23828 16.8098 2.19719 16.9468 2.08464 16.9171C2.00585 17.0034 1.93795 17.2405 1.78752 17.1399C1.69426 17.312 1.58403 17.4746 1.49309 17.6479C1.50524 17.7472 1.3741 17.8049 1.30692 17.7327C1.22206 17.6377 1.32086 17.5191 1.36856 17.4303C1.4277 17.3311 1.48719 17.2321 1.54544 17.1324C1.65942 16.937 1.76412 16.736 1.86685 16.5343C1.97279 16.326 2.07677 16.1166 2.18469 15.9093C2.39336 15.5079 2.65796 15.1384 2.86217 14.7346C3.1432 14.1579 3.39422 13.5614 3.55698 12.9409C3.57449 12.8737 3.59539 12.7715 3.67115 12.7533C3.67597 12.2982 3.68597 11.843 3.70741 11.3883C3.74547 10.7469 3.75512 10.1046 3.75565 9.46234C3.77173 9.21311 3.78656 8.96387 3.80193 8.71482C3.8298 8.25799 3.85856 7.80043 3.85999 7.34253C3.8616 6.85889 3.8432 6.37561 3.83158 5.89198C3.83105 5.81676 3.83123 5.74226 3.83748 5.66722C3.84212 5.60987 3.82372 5.5552 3.79067 5.51179C3.79496 5.50553 3.79942 5.49964 3.80389 5.49374C3.89411 5.44211 3.98595 5.39423 4.07956 5.34831C4.18658 5.30043 4.29396 5.25452 4.4033 5.21235C4.47566 5.18466 4.54873 5.15929 4.62216 5.13463C4.83512 5.12105 5.04844 5.10962 5.26105 5.09122C5.28928 5.0889 5.31786 5.08639 5.34609 5.08371C5.39987 5.08747 5.45365 5.09104 5.50707 5.09497C5.76201 5.11319 6.01089 5.13142 6.23136 5.11695L6.25798 5.1182ZM3.42906 13.9882C3.43889 13.9868 3.44853 13.9864 3.45818 13.9875C3.46122 13.9557 3.46443 13.9239 3.46747 13.8921C3.45479 13.9242 3.44192 13.9562 3.42906 13.9882ZM28.3542 12.2711C28.3569 12.2693 28.3598 12.2675 28.3625 12.2659C28.3692 12.262 28.3762 12.2589 28.3834 12.2566C28.3516 12.2453 28.3196 12.2341 28.2878 12.2228C28.2892 12.2234 28.2906 12.2239 28.2922 12.2244C28.2908 12.2239 28.2894 12.2232 28.2878 12.2228C28.288 12.2234 28.2881 12.2243 28.2883 12.2248C28.3149 12.2312 28.3387 12.2484 28.3542 12.2711ZM30.123 18.0754C30.4274 18.0927 30.4494 17.7556 30.2407 17.6005C30.0999 17.4635 29.9767 17.2559 29.7687 17.2253C29.5241 17.0075 29.3656 16.7083 29.1232 16.4957C29.0049 16.4255 28.8438 16.4905 28.8086 16.6238C28.7678 16.8062 28.9438 16.94 29.0021 17.1005C29.1763 17.339 29.2483 18.0468 29.6277 17.9714C29.699 18.0349 29.7998 18.0522 29.8845 18.0025C29.8911 17.9986 29.8973 17.9945 29.9034 17.99C29.9674 18.0363 30.0433 18.0684 30.123 18.0754Z" fill="#B9A0A3"/>
<path fill-rule="evenodd" clip-rule="evenodd" d="M21.3784 4.81896C21.4763 4.8236 21.6203 4.87345 21.5814 4.9969C21.5374 5.13429 21.2364 5.10178 21.1147 5.1259C20.7885 5.15931 20.4601 5.18414 20.1367 5.23899C19.3696 5.37013 18.616 5.5822 17.8402 5.66224C17.5011 5.68743 17.1602 5.6776 16.8204 5.66742C15.546 5.5813 14.2529 5.63115 12.9958 5.37781C12.8928 5.34797 12.7879 5.34887 12.6814 5.34922C12.6383 5.34833 12.6006 5.32278 12.5837 5.28544C12.4418 5.25221 12.2994 5.21969 12.1556 5.19415C12.0984 5.1836 12.0561 5.1334 12.0641 5.07355C12.0716 5.01781 12.1274 4.97136 12.1847 4.98208C12.4214 5.02549 12.6546 5.08373 12.8895 5.13644C13.0861 5.13501 13.2822 5.12625 13.4638 5.11393C14.3663 5.03174 15.2702 4.96975 16.176 4.93705C16.6287 4.91186 17.0806 4.87613 17.534 4.86791C18.2226 4.84665 18.9118 4.84611 19.6004 4.82146C20.0494 4.80127 20.4989 4.77751 20.9484 4.78948C21.0919 4.79269 21.2362 4.79966 21.3784 4.81896ZM27.5724 14.0348C27.524 13.9321 27.5206 13.8129 27.4911 13.7038C27.4479 13.4951 27.3909 13.2898 27.34 13.0831C27.2258 12.6302 27.1386 12.1508 27.1872 11.6847C27.2135 11.2222 27.3196 10.7693 27.4406 10.3237C27.5221 9.99119 27.636 9.65942 27.6519 9.3155C27.6519 9.25708 27.7007 9.2083 27.7591 9.2083C27.8828 9.21295 27.8712 9.34551 27.861 9.43538C27.8345 9.65781 27.7777 9.87542 27.7229 10.0923C27.8195 10.14 27.7645 10.2778 27.7672 10.3558C27.7373 10.8077 27.7204 11.2608 27.7113 11.7137C27.708 12.3268 27.7341 12.94 27.7706 13.5521C27.7772 13.6621 27.7833 13.7724 27.784 13.8826C27.7831 13.9428 27.7891 14.0118 27.7406 14.0563C27.6918 14.1041 27.6075 14.0956 27.5724 14.0348ZM8.72923 14.8354C8.77068 14.8767 8.77104 14.9476 8.72923 14.9889C8.63365 15.0594 8.49269 15.0339 8.37924 15.0477C8.04532 15.0587 7.71122 15.055 7.37713 15.0553C6.71555 15.0711 6.05396 15.1499 5.39185 15.0939C5.01112 15.0666 4.62682 15.0033 4.27593 14.8476C4.01169 14.7264 3.8391 14.4466 3.7939 14.1649C3.73995 13.7749 3.75549 13.3622 3.86769 12.9856C3.83071 12.7981 3.75317 12.6021 3.78336 12.4104C3.82856 12.2509 4.06564 12.3293 3.98811 12.4826C4.05135 12.9239 4.17963 13.4787 4.47799 13.8199C4.60717 13.9693 4.75903 14.0777 4.93197 14.159C5.31681 14.3671 5.75506 14.4302 6.18546 14.4681C6.63283 14.4985 7.08037 14.537 7.52202 14.6157C7.8429 14.678 8.16752 14.7159 8.49036 14.765C8.57023 14.7838 8.66402 14.7807 8.72923 14.8354Z" fill="#D2C1C3"/>
<path fill-rule="evenodd" clip-rule="evenodd" d="M12.1689 18.9538C8.98071 18.9652 5.79572 18.8739 2.6177 18.6161C2.03473 18.5329 1.31347 18.5952 0.870036 18.1516C0.208812 17.2065 0.365676 15.9601 0.268127 14.8651C0.119302 12.38 0.213635 9.88888 0.0821408 7.40281C0.0415848 6.17898 0.0305075 4.95426 0.0156786 3.73008C-0.0788331 2.71636 0.241685 2.14804 1.31222 2.02637C2.33702 1.81698 3.37397 1.68512 4.41503 1.589C6.60577 1.37193 8.80991 1.44304 11.0076 1.37979C13.2638 1.36925 15.5181 1.27921 17.7742 1.25187C20.9585 1.13806 24.1424 1.25848 27.3263 1.30886C28.2463 1.31994 29.1675 1.35264 30.0808 1.47109C30.3582 1.50628 30.6612 1.54291 30.8787 1.73568C31.2891 2.17198 31.2169 2.85107 31.3 3.40652C31.4534 6.81109 31.4704 10.2232 31.4214 13.6313C31.3357 15.0588 31.5831 16.7234 30.7456 17.961C29.9805 18.4968 28.935 18.3792 28.0435 18.4975C25.8867 18.6336 23.7692 18.8439 21.614 18.8773C18.4648 18.855 15.3176 18.9325 12.1689 18.9538ZM8.77436 18.59C11.9331 18.6454 15.0895 18.5709 18.2473 18.532C20.6275 18.5595 23.0103 18.5591 25.3818 18.3308C26.9079 18.2209 28.4067 18.1961 29.9114 17.9483C31.3039 17.9215 30.9896 14.7799 31.0772 13.7835C31.152 10.6787 31.0648 7.57772 31.0187 4.47384C30.9273 3.87283 31.1088 1.88683 30.338 1.85735C29.2914 1.6853 28.2263 1.66529 27.1679 1.64939C22.7081 1.52111 18.248 1.53344 13.7887 1.67762C9.48579 1.84896 5.10252 1.49145 0.878076 2.48213C0.343343 2.61077 0.333695 3.19463 0.358529 3.64504C0.358172 4.11348 0.36782 4.58193 0.376396 5.05038C0.381755 6.93847 0.506818 8.82335 0.512178 10.7111C0.501279 12.5504 0.573816 14.4092 0.679941 16.2419C0.831803 18.0558 1.08211 18.2059 2.87068 18.2913C4.84775 18.4224 6.7998 18.5629 8.77436 18.59Z" fill="#633728"/>
<path fill-rule="evenodd" clip-rule="evenodd" d="M15.685 15.2859C13.1707 15.2525 10.6563 15.2153 8.14143 15.2298C6.88402 15.1946 5.57872 15.3656 4.35561 15.0151C3.8064 14.8864 3.5184 14.4149 3.57486 13.8661C3.57039 13.1463 3.63185 12.4277 3.63507 11.7079C3.69796 9.7108 3.51268 7.6964 3.62774 5.70772C3.83481 4.86551 6.38948 5.06436 7.13861 4.96664C8.64508 4.88963 10.1537 4.8673 11.6614 4.82853C15.5557 4.78244 19.4596 4.44602 23.3501 4.69632C24.56 4.78387 25.7735 4.68757 26.9843 4.70615C28.1022 4.62504 27.9474 5.3956 28.0137 6.2312C28.0152 8.65313 28.0995 11.0831 27.9473 13.5016C27.8545 13.9676 27.9505 14.6181 27.5531 14.9415C26.9352 15.2009 26.233 15.1055 25.5779 15.1439C22.2816 15.2389 18.9826 15.2679 15.685 15.2859ZM11.4109 14.8943C16.4467 14.9763 21.4824 14.9198 26.5166 14.7805C26.8088 14.7417 27.2128 14.798 27.4288 14.5849C27.5619 14.1146 27.593 13.6206 27.6332 13.1356C27.732 11.173 27.6673 9.20608 27.6834 7.2417C27.6262 6.8415 27.8428 4.93823 27.2944 5.0708C26.019 4.99218 24.7374 5.13904 23.4609 5.04596C19.6803 4.78512 15.8889 5.11421 12.1045 5.15834C10.2246 5.20783 8.34422 5.23999 6.46613 5.34165C5.61874 5.40007 4.69828 5.30573 3.94254 5.75256C3.90163 8.09803 4.0551 10.4467 3.94469 12.7923C3.90413 14.2951 3.63596 14.7147 5.39631 14.8586C7.39999 14.9384 9.40636 14.8525 11.4109 14.8943Z" fill="#633728"/>
<path fill-rule="evenodd" clip-rule="evenodd" d="M27.5224 5.08294C27.254 4.79333 27.9212 4.49533 28.0786 4.29183C28.4441 3.9681 28.8264 3.66491 29.207 3.35958C29.5536 3.04996 29.8464 2.68763 30.1371 2.32638C30.3313 2.16862 30.5075 1.62764 30.8056 1.81434C30.977 2.05857 30.5595 2.26349 30.4615 2.47002C29.7535 3.47285 28.7128 4.15712 27.8202 4.97146C27.8054 5.1101 27.6273 5.16477 27.5224 5.08294Z" fill="#633728"/>
<path fill-rule="evenodd" clip-rule="evenodd" d="M30.3396 17.8422C29.7412 17.0684 28.8168 16.6536 28.1803 15.9216C27.9528 15.5997 27.7549 15.2568 27.5294 14.9331C27.4808 14.8605 27.409 14.7737 27.4272 14.681C27.4544 14.4837 27.7611 14.4861 27.7774 14.6871C28.1015 15.13 28.3268 15.6563 28.7514 16.0161C29.3668 16.5403 30.0744 16.9582 30.5818 17.5996C30.7405 17.7536 30.4934 18.003 30.3396 17.8422Z" fill="#633728"/>
<path fill-rule="evenodd" clip-rule="evenodd" d="M0.981954 18.054C0.842063 17.84 1.16919 17.7157 1.28246 17.5854C1.47238 17.4173 1.65122 17.2376 1.8197 17.0476C2.40374 16.3116 3.03852 15.5724 3.58898 14.818C3.70314 14.6993 3.71618 14.4358 3.92039 14.4519C4.50176 14.583 2.986 16.0514 2.83646 16.3234C2.59187 16.6031 1.31516 18.4046 0.981954 18.054Z" fill="#633728"/>
<path fill-rule="evenodd" clip-rule="evenodd" d="M3.65524 5.9821C3.45067 5.6564 3.32793 5.28014 3.09996 4.96766C2.30528 4.27946 1.33444 3.80154 0.592813 3.05188C0.491513 2.91771 0.221198 2.75941 0.379849 2.577C0.444167 2.51286 0.558511 2.50875 0.622114 2.577C1.20776 3.2711 2.01281 3.70971 2.7296 4.25034C3.14749 4.51529 3.50695 4.83778 3.68919 5.30909C3.75029 5.52151 4.04222 5.76789 3.89768 5.9821C3.83158 6.04821 3.72135 6.04803 3.65524 5.9821Z" fill="#633728"/>
<path fill-rule="evenodd" clip-rule="evenodd" d="M0.326688 10.6909C-0.318457 10.5106 1.61233 9.13261 1.79993 8.89928C2.09365 8.50998 3.28335 6.32388 3.76967 6.58973C3.95922 6.86094 3.42699 7.07819 3.30658 7.29365C3.1113 7.52216 2.94497 7.77336 2.77256 8.01902C2.39004 8.5952 2.07632 9.23177 1.48388 9.62232C1.17551 9.89371 0.857847 10.1908 0.590748 10.4949C0.512495 10.574 0.461041 10.7136 0.326688 10.6909Z" fill="#633728"/>
<path fill-rule="evenodd" clip-rule="evenodd" d="M5.92969 5.07054C6.12961 4.36804 6.88016 3.90352 7.13368 3.20889C7.28072 2.91785 7.42633 1.46194 7.78651 1.54359C8.06737 1.66418 7.78079 2.00882 7.75382 2.21339C7.58963 2.7031 7.56086 3.24926 7.27786 3.69199C6.97039 4.1306 6.62146 4.53902 6.31828 4.98121C6.25646 5.06607 6.25431 5.20471 6.123 5.21704C6.02992 5.23062 5.94577 5.16326 5.92969 5.07054Z" fill="#633728"/>
<path fill-rule="evenodd" clip-rule="evenodd" d="M8.42355 5.07967C8.09428 4.68037 7.80735 4.2489 7.51095 3.82512C7.4025 3.65324 7.0207 3.27734 7.40483 3.19873C7.66853 3.28878 7.90972 3.87407 8.12018 4.10186C8.30403 4.3636 8.49091 4.62373 8.69476 4.87028C8.83179 5.04305 8.55951 5.25655 8.42355 5.07967Z" fill="#633728"/>
<path fill-rule="evenodd" clip-rule="evenodd" d="M29.6998 12.5907C29.1075 12.446 28.5358 12.1934 27.9308 12.0822C27.8242 12.1205 27.7041 12.0327 27.7061 11.9196C27.7938 11.5141 28.4095 11.8957 28.6732 11.9198C29.0319 12.0052 29.3753 12.1648 29.7308 12.2464C30.1398 12.0533 30.5027 11.7605 30.8166 11.4373C30.8895 11.3617 30.9636 11.2868 31.0345 11.2091C31.1884 11.0505 31.4349 11.2945 31.277 11.4517C30.8318 11.9007 30.3363 12.4526 29.6998 12.5907Z" fill="#633728"/>
<path fill-rule="evenodd" clip-rule="evenodd" d="M29.5508 12.4655C29.3262 12.3536 29.5191 12.0898 29.5856 11.9322C29.82 11.4419 30.0421 10.9456 30.2445 10.4412C30.4116 10.1813 30.9138 8.35466 31.2307 8.61926C31.4621 8.80686 31.0878 9.14452 31.0538 9.37535C30.8461 9.8597 30.6526 10.3501 30.4525 10.8375C30.2493 11.3378 30.0103 11.8223 29.7882 12.3138C29.7878 12.4328 29.6558 12.51 29.5508 12.4655Z" fill="#633728"/>
<path fill-rule="evenodd" clip-rule="evenodd" d="M29.2583 18.1223C28.8779 17.4525 28.5528 16.7545 28.2374 16.0527C28.2458 16.0715 28.2576 16.0883 28.2717 16.1028C28.1149 15.9468 28.3591 15.7009 28.514 15.8605C28.7198 16.2228 28.8526 16.6264 29.0516 16.9945C29.2129 17.3164 29.3787 17.635 29.5544 17.9494C29.6671 18.1397 29.3691 18.3157 29.2583 18.1223Z" fill="#633728"/>
<path fill-rule="evenodd" clip-rule="evenodd" d="M23.2197 18.7026C23.1549 18.6376 23.1524 18.5248 23.2197 18.4603C23.6521 18.0483 24.0714 17.6228 24.5052 17.2124C24.7216 17.0686 24.7589 16.8227 24.8214 16.5885C24.9499 16.0909 25.1373 15.6126 25.3144 15.1313C25.2627 14.9468 25.5204 14.8378 25.6269 14.9916C25.7474 15.2657 25.4357 15.6603 25.3778 15.9467C25.172 16.3955 25.1907 16.9706 24.8609 17.3474C24.3884 17.7927 23.9303 18.2531 23.4622 18.7029C23.3947 18.7673 23.2866 18.7694 23.2197 18.7026Z" fill="#633728"/>
<path fill-rule="evenodd" clip-rule="evenodd" d="M3.97163 18.5249C3.82173 18.3627 4.04256 18.226 4.1376 18.1077C4.37987 17.8312 4.61195 17.5457 4.85761 17.2718C5.15955 16.9677 5.44415 16.582 5.87973 16.4759C6.64529 16.2786 7.42818 16.1471 8.21644 16.0853C8.4344 16.0526 8.48407 16.3992 8.26289 16.4248C7.42979 16.5027 6.58419 16.6102 5.79218 16.8696C5.33553 17.1891 4.99285 17.6459 4.6291 18.0627C4.44544 18.2071 4.24391 18.7159 3.97163 18.5249Z" fill="#633728"/>
<path fill-rule="evenodd" clip-rule="evenodd" d="M7.73434 17.0376C7.51869 16.9484 6.73241 16.8066 6.75742 16.537C6.8664 16.1979 7.24963 16.5639 7.46563 16.5954C7.58444 16.6361 7.70415 16.674 7.82563 16.707C8.04039 16.7642 7.94677 17.0989 7.73434 17.0376Z" fill="#633728"/>
<path fill-rule="evenodd" clip-rule="evenodd" d="M22.6743 4.80794C22.948 4.18405 23.6543 3.82209 24.1065 3.3238C24.5842 2.68455 24.9649 1.97813 25.4144 1.31905C25.4979 1.19809 25.7066 1.25544 25.7201 1.40052C25.7055 1.58579 25.5309 1.728 25.4512 1.8929C25.0527 2.47123 24.7416 3.11834 24.2746 3.64575C23.856 4.01236 23.4297 4.37254 23.0558 4.78614C22.983 4.98981 22.719 5.0804 22.6743 4.80794Z" fill="#633728"/>
<path fill-rule="evenodd" clip-rule="evenodd" d="M2.36424 1.20295C2.33048 0.885473 2.81 0.960867 3.01528 0.895656C3.5552 0.817224 4.09404 0.734325 4.63878 0.698771C5.63249 0.562453 6.63103 0.493669 7.63421 0.500458C7.85432 0.498493 7.85736 0.844916 7.63421 0.843308C6.3684 0.822762 5.11491 0.985165 3.85946 1.12095C3.47069 1.17848 3.08014 1.226 2.69298 1.29407C2.57435 1.33391 2.40766 1.35821 2.36424 1.20295Z" fill="#633728"/>
<path fill-rule="evenodd" clip-rule="evenodd" d="M8.53564 0.717123C8.5553 0.463245 8.87778 0.563653 9.04947 0.540249C9.24046 0.566512 9.61315 0.406967 9.64459 0.693718C9.61494 0.96564 9.24225 0.844866 9.05412 0.882742C8.88082 0.865412 8.55565 0.976181 8.53564 0.717123Z" fill="#633728"/>
<path fill-rule="evenodd" clip-rule="evenodd" d="M21.486 19.6619C21.2293 19.6158 20.4196 19.7744 20.4537 19.3858C20.4791 19.2933 20.5737 19.2447 20.6645 19.266C21.4851 19.386 22.3221 19.2847 23.1472 19.2618C23.8524 19.2302 24.5575 19.2283 25.2631 19.2158C25.3565 19.2133 25.4344 19.2958 25.4344 19.3873C25.4401 19.7114 24.4509 19.5138 24.2009 19.5733C23.2955 19.5824 22.3918 19.6595 21.486 19.6619Z" fill="#633728"/>
<path fill-rule="evenodd" clip-rule="evenodd" d="M26.1294 19.3399C26.1371 19.1326 26.3842 19.1621 26.5289 19.1365C26.7343 19.0981 27.1871 19.069 26.9813 19.4024C26.8176 19.5058 26.5986 19.4472 26.4138 19.4957C26.2895 19.5375 26.1303 19.4921 26.1294 19.3399Z" fill="#633728"/>
<path fill-rule="evenodd" clip-rule="evenodd" d="M20.2767 5.85223C20.0816 5.59746 20.61 5.36698 20.7355 5.17206C20.908 5.05647 21.1369 4.63823 21.362 4.78169C21.5925 5.03039 21.1117 5.21923 20.9893 5.40343C20.7901 5.52885 20.5305 6.03839 20.2767 5.85223Z" fill="#633728"/>
<path fill-rule="evenodd" clip-rule="evenodd" d="M19.2743 5.50143C19.0977 5.27774 19.4699 5.11052 19.5876 4.95562C19.7361 4.83824 19.9768 4.49628 20.1574 4.73551C20.2474 4.89112 20.0739 4.98242 19.973 5.06674C19.7661 5.18073 19.5267 5.69009 19.2743 5.50143Z" fill="#633728"/>
<path fill-rule="evenodd" clip-rule="evenodd" d="M12.0069 15.0163C11.6664 14.7172 12.9038 14.2048 13.1073 14.0356C13.1882 13.9892 13.2944 14.0162 13.3419 14.0971C13.4929 14.3762 12.7209 14.5931 12.5488 14.7737C12.3719 14.8457 12.211 15.1423 12.0069 15.0163Z" fill="#633728"/>
<path fill-rule="evenodd" clip-rule="evenodd" d="M13.4914 15.1606C13.3047 14.9146 13.7315 14.762 13.8599 14.6016C13.9955 14.5062 14.1508 14.2371 14.3311 14.3961C14.5099 14.6177 14.144 14.771 14.0214 14.9148C13.8642 15.0107 13.6911 15.3266 13.4914 15.1606Z" fill="#633728"/>
<path fill-rule="evenodd" clip-rule="evenodd" d="M10.686 15.135C10.3456 15.0232 10.6772 14.7197 10.8555 14.6242C11.0472 14.5376 11.3186 14.1624 11.5117 14.4034C11.6209 14.6282 11.2979 14.7104 11.168 14.8249C10.9931 14.9026 10.8766 15.1206 10.686 15.135Z" fill="#633728"/>
<path fill-rule="evenodd" clip-rule="evenodd" d="M27.7652 6.91315C27.5638 6.68107 28.1714 6.31553 28.2917 6.10703C28.5023 5.96196 28.8518 5.30306 29.1171 5.50601C29.1827 5.57158 29.1834 5.68253 29.1171 5.74828C28.8187 6.04307 28.5316 6.34894 28.249 6.65856C28.1202 6.77486 27.9624 7.08091 27.7652 6.91315Z" fill="#633728"/>
<path fill-rule="evenodd" clip-rule="evenodd" d="M27.9252 8.32083C27.4516 8.17093 28.3505 7.29424 28.4832 7.0602C28.5416 6.9873 28.6485 6.9714 28.7235 7.02929C28.9563 7.25369 28.3848 7.6462 28.2961 7.88275C28.1605 8.01478 28.1509 8.32833 27.9252 8.32083Z" fill="#633728"/>
<path fill-rule="evenodd" clip-rule="evenodd" d="M0.203125 11.4338C0.245646 11.2238 0.815218 10.9455 0.988519 10.7336C1.2072 10.613 1.64689 9.89675 1.85806 10.0776C2.12409 10.3314 1.35245 10.7997 1.19863 11.0044C0.990842 11.1243 0.316753 11.9406 0.203125 11.4338Z" fill="#633728"/>
<path fill-rule="evenodd" clip-rule="evenodd" d="M2.15684 9.68215C2.15273 9.56531 2.27136 9.5319 2.32979 9.45222C2.42483 9.34288 2.539 9.13277 2.7064 9.25515C2.87703 9.39862 2.67407 9.57263 2.57598 9.69019C2.48058 9.85813 2.17917 9.94068 2.15684 9.68215Z" fill="#633728"/>
<path fill-rule="evenodd" clip-rule="evenodd" d="M23.0338 12.8812C23.0168 12.8596 23.0002 12.8378 22.9839 12.8156C22.983 12.8144 22.9821 12.8131 22.9811 12.8117C22.9802 12.8329 22.9796 12.854 22.9796 12.8753C22.9978 12.8776 23.0157 12.8796 23.0338 12.8812ZM23.4583 8.75553C23.4359 8.68389 23.4125 8.6126 23.3882 8.54167C23.3539 8.53578 23.3227 8.52149 23.2942 8.50255C23.1399 8.5356 22.9936 8.37391 23.0502 8.22437C22.9246 8.04571 22.8169 7.85044 22.6545 7.70161C22.4944 7.55261 22.2675 7.43809 22.1903 7.22262C22.0174 7.08505 22.1728 6.78347 22.3859 6.85154C22.5342 6.91711 22.7014 6.88263 22.844 6.97017C23.059 7.09113 23.2251 7.27747 23.3596 7.48132C23.4917 7.72966 24.1466 8.78108 23.7218 8.90525C23.6103 8.93687 23.4926 8.86809 23.4583 8.75553ZM8.47681 7.95817C8.71568 7.81756 8.93437 8.19043 8.69299 8.32817C8.46645 8.45913 8.24598 8.6076 8.05839 8.79144C7.88491 9.05175 8.05893 9.90629 7.56225 9.74156C7.34589 9.56987 7.44255 9.2213 7.39324 8.97582C7.34696 8.72784 7.38198 8.18775 7.75824 8.39642C7.81362 8.29709 7.92511 8.21151 8.04338 8.24134C8.18149 8.13808 8.32656 8.04196 8.47681 7.95817ZM10.1948 7.82381C9.95827 7.42308 9.43265 7.12882 8.97617 7.3157C8.67977 7.46292 8.87916 7.83114 9.09641 7.80237C9.09963 7.80434 9.10284 7.80631 9.10606 7.80809C9.33189 7.84293 9.55414 7.87884 9.68617 8.09788C9.6951 8.10949 9.70422 8.1195 9.71386 8.12843C9.88716 8.92097 9.85804 9.78355 9.63007 10.5584C9.33778 10.5373 9.06014 10.679 8.78893 10.7708C8.61009 10.8082 8.39016 10.7798 8.24134 10.8971C8.20239 10.8912 8.16237 10.8968 8.12432 10.9113C8.0491 10.9397 8.01176 10.9977 7.99068 11.0649C7.8356 11.1121 7.76646 11.3211 7.86633 11.4503C7.89688 11.9548 7.70035 12.5128 7.84417 12.9928C7.84221 12.9998 7.84042 13.007 7.8381 13.0139C7.57065 13.1665 7.24101 13.104 6.94587 13.1143C6.90084 13.1229 6.86279 13.1372 6.8317 13.1558C6.7597 12.8801 7.05735 12.4172 6.69324 12.3104C6.34432 12.3032 6.43758 12.7972 6.39791 13.0314C6.36308 13.4709 6.64625 13.6523 7.05449 13.6383C7.68535 13.6251 8.09787 13.5728 8.25813 13.1188C8.40821 12.8183 8.40678 12.3945 8.41768 11.9532C8.48307 11.7556 8.62921 11.6245 9.00547 11.5348C10.264 11.1424 10.2833 10.8393 10.3106 9.58273C10.2682 9.00691 10.4914 8.34818 10.1948 7.82381ZM12.8608 11.1285C12.8383 11.2789 12.955 11.4354 12.8774 11.5784C12.7924 11.7381 12.5246 11.7067 12.4858 11.5271C12.4054 11.1056 12.0293 9.13126 12.4331 8.94706C12.3984 8.56562 12.4472 7.50205 11.8364 7.69196C11.6904 8.06 11.2493 7.70947 11.4506 7.42951C12.3538 6.78615 12.8211 7.75557 12.8467 8.56669C12.8794 9.41979 12.8612 10.275 12.8608 11.1285ZM14.9408 11.6686C14.8071 11.5296 14.4846 11.3238 14.3203 11.4839C14.0534 11.4665 13.7477 11.5253 13.4763 11.5977C13.2076 11.6657 13.3239 12.0885 13.5903 12.0109C14.3085 11.8449 14.7289 11.7628 14.5634 12.6291C14.4922 12.6746 14.3912 12.7148 14.2692 12.75C13.4427 12.9035 12.5671 13.0343 11.7474 12.8865C11.6114 12.6294 11.8883 11.801 11.5866 11.7C11.5802 11.5509 11.5677 11.4029 11.5394 11.258C10.964 10.7467 11.1022 12.174 11.0826 12.4544C11.0917 13.0986 11.3877 13.4604 12.0574 13.4011C12.6503 13.3991 13.2453 13.3519 13.8329 13.2639C14.0412 13.2347 14.2486 13.1997 14.4552 13.1585C14.7389 13.1543 14.9013 12.9852 14.9751 12.7645C14.9753 12.7641 14.9753 12.764 14.9754 12.7636C15.1348 12.4292 15.1067 11.9582 14.9408 11.6686ZM17.8306 8.95367C18.0434 8.75732 18.8838 8.28905 18.7454 8.91901C18.5867 9.09088 18.3078 9.10982 18.1433 9.29152C17.9433 9.45535 17.797 9.66581 17.7041 9.90593C17.6353 10.1761 17.2777 10.4119 17.1637 10.0397C17.1549 9.9765 17.1674 9.91218 17.1905 9.85144C17.0872 9.56862 17.4031 9.33064 17.5833 9.15502C17.6257 9.04818 17.7013 8.93991 17.8306 8.95367ZM20.3122 12.6325C20.3122 12.6321 20.3122 12.6319 20.3122 12.6316C20.3126 12.6126 20.312 12.5932 20.3108 12.5733C20.3258 11.968 20.257 11.3615 20.1693 10.7633C20.0944 10.2382 20.0069 9.71441 19.8891 9.19736C19.8618 9.01602 19.8334 8.83468 19.8025 8.65387C19.7441 8.37838 19.718 8.07858 19.6094 7.81649C19.601 7.69268 19.5184 7.53992 19.319 7.41236C18.9621 7.09095 18.4441 6.89513 17.9785 7.05128C17.9014 7.06915 17.8413 7.10595 17.7985 7.15133C17.355 7.28855 17.5835 7.73502 17.9039 7.56083C17.9841 7.56083 18.0731 7.56083 18.1665 7.5635C18.1854 7.62121 18.2308 7.67017 18.3085 7.68982C18.546 7.74342 18.7997 7.77129 19.0126 7.89707C19.2878 8.3146 19.3639 8.86023 19.4793 9.36387C19.4793 9.36423 19.4793 9.36441 19.4795 9.36477C19.5574 9.93702 19.668 10.5044 19.7573 11.0749C19.8205 11.5659 19.8588 12.0617 19.8731 12.5565C19.8563 12.6512 19.8289 12.722 19.7886 12.7616C19.7777 12.7683 19.7662 12.7742 19.7543 12.7801C19.5406 12.663 19.2658 12.8031 19.041 12.8408C18.5881 12.9973 18.6853 12.1663 18.5822 11.6368C18.7555 11.4958 18.6991 11.2471 18.4068 11.2625C18.3418 11.1785 18.2708 11.1319 18.2017 11.1124C18.2004 10.9481 17.9964 10.7941 17.8367 10.9495C17.7531 11.041 17.4837 11.3261 17.245 11.6359C17.2262 11.6448 17.2076 11.6543 17.189 11.6638C17.1365 11.7015 17.1097 11.7615 17.107 11.8233C16.8364 12.2117 16.6795 12.586 17.05 12.6227C17.0374 12.6661 17.0243 12.7091 17.0109 12.7524C16.7813 12.68 16.5468 12.6169 16.3508 12.4715C16.1939 11.8144 15.7072 12.2053 15.6801 12.6861C15.5679 13.2051 15.7617 13.5946 16.3431 13.5365C17.2786 13.5336 17.3752 13.1113 17.5921 12.3288C17.6305 12.2264 17.6677 12.1229 17.7081 12.0207C17.7954 12.0047 17.8824 11.99 17.9671 11.9914C18.1533 12.419 18.0266 13.2019 18.5864 13.3314C19.1222 13.3557 20.3437 13.3764 20.3122 12.6325ZM26.1382 7.56404C26.1391 7.59334 26.1367 7.62282 26.1312 7.65176C26.1201 7.70947 26.1064 7.76611 26.0903 7.82149C26.0546 7.96103 25.9995 8.117 25.9238 8.23063C25.7494 8.56311 25.5021 8.85987 25.2565 9.1552C24.9649 9.54521 24.6573 9.92791 24.4764 10.2382C24.4641 11.1984 24.6312 13.3137 24.1 13.4577C24.0328 13.4897 23.9465 13.5202 23.8638 13.5297C23.7262 13.5744 23.5454 13.5846 23.3084 13.5547C23.2826 13.5551 23.2576 13.5545 23.2337 13.5537C23.0527 13.5762 22.8776 13.5537 22.724 13.4325C22.4556 13.0982 22.4592 12.5592 22.5817 12.1653C22.5592 11.2638 22.5994 10.3537 22.2452 9.51931C21.858 8.78733 21.0797 8.28655 20.8121 7.4915C20.7555 7.0788 21.474 7.12918 21.2818 7.52956C21.6216 8.12075 22.1539 8.56972 22.5212 9.14144C23.0407 10.028 22.9746 11.1251 23.0107 12.1199C23.2172 12.4231 23.452 12.7068 23.6841 12.9859C23.7 12.9819 23.7159 12.9782 23.732 12.9746C23.7507 12.9705 23.7697 12.9669 23.7884 12.9628C23.7941 12.9028 23.7991 12.8426 23.8034 12.7824C23.6017 12.6434 23.797 12.3055 23.7795 12.0936C23.8075 11.8717 23.8215 11.6489 23.8317 11.4258C23.8301 11.2334 23.8274 11.041 23.8265 10.8485C23.8172 10.8426 23.8088 10.8366 23.8013 10.8298C23.7507 10.8332 23.7027 10.8175 23.6587 10.7778C23.4854 10.5948 23.7093 10.4267 23.83 10.2951C23.8308 10.2622 23.8315 10.2295 23.8324 10.1966C23.8368 10.0094 23.7782 9.69761 24.0477 9.68778C24.0727 9.68778 24.0968 9.69207 24.1193 9.70029C24.1634 9.63972 24.2306 9.61632 24.2969 9.62114C24.396 9.45963 24.4999 9.30045 24.607 9.14323C24.8245 8.80091 25.0423 8.45878 25.2586 8.11557C25.3535 7.98997 25.401 7.77772 25.5806 7.75557C25.5849 7.63783 25.4398 7.55957 25.4716 7.42879C25.473 7.41682 25.4752 7.40521 25.478 7.39431C25.478 7.3911 25.478 7.38806 25.4782 7.38484C25.4487 7.28354 25.4805 7.17134 25.6043 7.12025C25.8352 7.04825 26.0524 7.22512 26.118 7.44219C26.1183 7.44327 26.1187 7.44398 26.1189 7.44505C26.1303 7.47828 26.1369 7.51437 26.1378 7.55279C26.1382 7.55636 26.1382 7.56011 26.1382 7.56404Z" fill="#896C6F"/>
<path fill-rule="evenodd" clip-rule="evenodd" d="M8.02254 9.60253C8.41649 9.61218 8.65518 9.30792 8.59836 8.92666C8.60658 8.34619 7.87103 8.2908 7.45583 8.46231C7.42259 8.90057 7.37364 9.70186 8.02254 9.60253ZM9.88204 7.96849C9.90866 8.78087 10.0852 9.81103 9.46326 10.4463C9.18026 10.6845 8.79471 10.699 8.45472 10.8051C8.23658 10.8985 7.81386 10.8707 7.84048 11.1923C7.79582 11.9585 8.12098 13.4434 6.88 13.2433C6.63059 13.18 6.56395 12.9087 6.58092 12.6819C6.59021 12.253 6.51803 11.8942 6.49749 11.4844C6.46908 10.7724 6.3885 10.0642 6.36028 9.35223C6.37439 9.13122 6.28292 8.86716 6.39583 8.6692C6.39512 8.62329 6.39458 8.57737 6.39458 8.53128C6.39404 8.45695 6.39458 8.38281 6.39601 8.30849C6.13159 8.15877 6.28613 7.72444 6.46944 7.56097C7.1128 7.08144 9.73626 6.89385 9.88204 7.96849Z" fill="#CBB8BA"/>
<path fill-rule="evenodd" clip-rule="evenodd" d="M14.0221 11.2556C14.4609 11.2322 14.6487 11.4152 14.5926 11.8579C14.5633 12.1395 14.5719 12.5486 14.2483 12.6551C13.7491 12.7365 13.2444 12.8264 12.7392 12.8573C10.9718 12.8321 11.4078 12.257 11.218 10.8663C11.1853 9.96444 11.202 9.06113 11.1968 8.15871C11.223 7.96022 11.1091 7.65882 11.3254 7.54626C11.4356 7.16929 12.0186 7.36349 12.1056 7.67436C12.3506 8.6109 12.2578 9.60372 12.437 10.5538C12.4996 10.7734 12.5264 11.0938 12.7711 11.1833C13.1778 11.2889 13.6062 11.2347 14.0221 11.2556Z" fill="#CBB8BA"/>
<path fill-rule="evenodd" clip-rule="evenodd" d="M17.7625 8.87894C17.7495 8.89037 17.735 8.90038 17.7195 8.9086C17.7363 8.90306 17.7495 8.89055 17.7625 8.87894ZM18.5565 9.77993C18.5188 10.0306 18.2101 10.0822 18.0034 10.1312C17.1447 10.1633 17.655 9.21732 17.8267 8.7796C18.3469 8.53466 18.6394 9.37955 18.5565 9.77993ZM19.8552 11.9489C19.8879 12.3705 19.6965 13.063 19.145 12.8761C18.4427 12.705 18.6346 11.7829 18.1824 11.3848C17.6114 11.4 17.3366 11.8235 17.0972 12.2803C16.8948 12.5517 16.7767 13.1729 16.3236 12.9833C15.7238 12.7068 15.8832 12.0471 16.0156 11.5344C16.1585 10.6611 16.2889 9.76849 16.5941 8.93575C16.7393 8.52198 16.7901 8.02262 17.0643 7.67709C17.2978 7.03319 18.0727 6.931 18.6321 7.19917C19.2318 7.48038 19.2383 8.24934 19.4182 8.80515C19.6735 9.83335 19.8225 10.8894 19.8552 11.9489Z" fill="#CBB8BA"/>
<path fill-rule="evenodd" clip-rule="evenodd" d="M24.5088 7.01982C24.8884 6.93014 26.0009 6.93103 25.6683 7.57439C25.4055 7.99246 25.131 8.39873 24.8343 8.79321C24.5331 9.21342 24.1357 9.58129 23.9392 10.0671C23.7187 10.6776 24.1918 12.9894 23.2622 12.9228C22.5413 12.8156 22.7482 11.8405 22.6703 11.3148C22.6278 10.7989 22.603 10.2811 22.516 9.77067C22.4449 9.38405 22.1406 9.10515 21.936 8.78482C21.7888 8.58007 21.6573 8.36425 21.5196 8.15289C21.3947 7.8774 20.5788 7.21224 20.9807 6.97802C21.1246 6.74754 21.5058 6.8735 21.7392 6.84277C22.7522 6.77685 22.7188 7.75466 23.328 8.3019C23.6703 7.84238 23.9337 7.22564 24.5088 7.01982Z" fill="#CBB8BA"/>
<path fill-rule="evenodd" clip-rule="evenodd" d="M6.44459 9.63735C6.29559 9.60358 6.35294 9.40455 6.35169 9.29325C6.2922 9.29504 6.24146 9.24555 6.24164 9.18623C6.23985 8.92646 6.25146 8.66633 6.27094 8.40763C6.28255 8.2329 6.29112 8.05799 6.3097 7.88361C6.31828 7.78517 6.31453 7.61223 6.45406 7.6217C6.48497 7.56274 6.51356 7.49431 6.57823 7.46555C6.67042 7.42374 6.75725 7.52182 6.73724 7.61241C6.81567 7.52933 6.89482 7.34209 7.03436 7.40766C7.15799 7.30547 7.29716 7.21989 7.44116 7.14914C7.49387 7.12395 7.55962 7.15414 7.58159 7.20595C7.6041 7.25937 7.57927 7.31672 7.53121 7.34298C7.21159 7.49931 6.99219 7.68494 6.88571 8.03476C6.77673 8.37779 6.71473 8.73333 6.65023 9.08672C6.63004 9.20374 6.61093 9.32148 6.59163 9.43868C6.58181 9.52479 6.55679 9.65057 6.44459 9.63735ZM23.5391 12.4043C23.4681 11.9725 23.4513 11.5319 23.4349 11.0947C23.4247 10.8951 23.4233 10.6965 23.3845 10.4999C23.3531 10.2805 23.3391 10.0336 23.5316 9.8823C23.7427 9.67201 23.9734 9.48138 24.1928 9.28521C24.3146 9.18159 24.4247 9.05902 24.5551 8.96791C24.6577 8.92217 24.7527 9.0567 24.6768 9.13924C24.5058 9.31344 24.3162 9.4519 24.144 9.61788C24.1863 9.72829 24.0649 9.79672 23.9907 9.8521C23.9153 9.90784 23.8385 9.96251 23.7672 10.0236C23.7011 10.0786 23.6923 10.1703 23.6702 10.2484C23.6171 10.4964 23.6318 10.7493 23.6795 10.9966C23.7124 11.2128 23.7418 11.4295 23.7756 11.6457C23.7981 11.7908 23.8204 11.936 23.8362 12.082C23.8428 12.1418 23.8003 12.1986 23.7386 12.2033C23.7417 12.2697 23.7595 12.3383 23.7456 12.4041C23.7177 12.5074 23.5671 12.5072 23.5391 12.4043ZM23.4646 8.45658C23.3847 8.37511 23.4758 8.27863 23.5326 8.21485C23.615 8.1198 23.7009 8.02815 23.7854 7.93525C23.7858 7.91238 23.7935 7.88951 23.8072 7.86986C23.8996 7.74569 24.0072 7.63295 24.1067 7.51432C24.181 7.42785 24.2582 7.34388 24.3387 7.2633C24.3959 7.20434 24.4826 7.10805 24.5673 7.17344C24.6457 7.11787 24.7223 7.05981 24.8017 7.00549C24.8461 6.96744 24.9176 6.97995 24.9521 7.02461C25.0152 7.13592 24.9912 7.19988 24.8999 7.28224C24.5583 7.60597 24.2351 7.95061 23.873 8.25183C23.8058 8.3065 23.7384 8.3601 23.6727 8.4162C23.6187 8.46962 23.5296 8.52376 23.4646 8.45658ZM22.0649 8.86089C22.0042 8.76513 21.9506 8.6649 21.8977 8.56449C21.781 8.58718 21.7398 8.44354 21.6831 8.36939C21.4912 8.05477 21.3614 7.70906 21.2234 7.36889C21.1895 7.29278 21.1502 7.21917 21.1168 7.14306C21.105 7.1109 21.1053 7.07303 21.1248 7.04391C21.1202 6.95618 21.2284 6.89758 21.2981 6.95368C21.3397 6.9828 21.3419 7.03319 21.3519 7.07678C21.44 7.0205 21.5127 7.09482 21.5373 7.17844C21.5745 7.2633 21.6051 7.35102 21.6376 7.43767C21.76 7.73622 21.8804 8.04673 22.0188 8.33366C22.0919 8.47516 22.1646 8.61791 22.2498 8.75244C22.3183 8.87429 22.1405 8.98113 22.0649 8.86089ZM18.2982 10.3302C18.2666 10.33 18.2357 10.3252 18.2044 10.3293C18.1437 10.3293 18.0831 10.2845 18.0856 10.2189C18.0874 10.1707 18.1171 10.1288 18.1642 10.1154C18.3 10.1097 18.4397 10.1206 18.5753 10.0915C18.5219 10.0704 18.491 10.0038 18.5162 9.95019C18.5294 9.92428 18.5365 9.89677 18.5435 9.86889C18.5764 9.70417 18.5742 9.53498 18.5671 9.36775C18.5539 9.2786 18.588 9.17319 18.6961 9.1848C18.879 9.2032 18.9267 9.8471 18.9173 10.0013C18.9414 10.3325 18.5307 10.3163 18.2982 10.3302ZM18.7559 12.7544C18.7023 12.6315 18.6948 12.4936 18.6548 12.3662C18.571 12.0434 18.456 11.7209 18.2376 11.4643C18.1621 11.4658 18.0962 11.397 18.1178 11.3198C18.1408 11.236 18.2419 11.2208 18.315 11.2096C18.5735 11.1638 18.6625 11.3639 18.7799 11.5456C18.8848 11.7457 18.9153 11.9746 18.965 12.1926C18.9891 12.313 19.0116 12.4334 19.0347 12.5538C19.0448 12.6074 19.0045 12.6596 18.9539 12.6723C18.9821 12.7911 18.8174 12.8608 18.7559 12.7544ZM16.2199 10.7826C16.167 10.7601 16.1391 10.6956 16.163 10.6421C16.1795 10.6052 16.1963 10.5682 16.2136 10.5315C16.1411 10.4867 16.1638 10.3976 16.1922 10.3325C16.2207 10.2512 16.2497 10.1699 16.2785 10.0886C16.3933 9.7642 16.5196 9.44386 16.6401 9.12173C16.7081 8.96362 16.7298 8.79407 16.7483 8.62452C16.7764 8.40477 16.7966 8.1843 16.8182 7.96383C16.8273 7.85503 16.8534 7.74765 16.9098 7.65332C17.0204 7.45715 17.1818 7.28617 17.396 7.20542C17.4862 7.17451 17.5961 7.10644 17.689 7.15718C17.7821 7.09965 17.8935 7.21828 17.8332 7.3085C17.7347 7.44214 17.6286 7.57489 17.5386 7.71263C17.456 7.83216 17.4008 7.96812 17.3318 8.09586C17.2706 8.21646 17.2096 8.33741 17.1471 8.45747C17.135 8.5368 17.1255 8.61648 17.1153 8.69599C17.0692 8.9981 17.0546 9.30861 16.9697 9.60323C16.8993 9.77117 16.7939 9.92142 16.7042 10.0794C16.624 10.215 16.5436 10.3507 16.4709 10.4906C16.4325 10.5684 16.3951 10.6462 16.3599 10.7254C16.3365 10.7794 16.2731 10.8056 16.2199 10.7826ZM17.0254 8.04441C17.0242 8.05781 17.0228 8.07139 17.0215 8.08479C17.0856 7.88093 17.1657 7.67958 17.2959 7.50825C17.143 7.64582 17.0254 7.83359 17.0254 8.04441ZM14.4884 11.8999C14.3634 11.8108 14.2085 11.8106 14.0611 11.7993C13.8608 11.7825 13.6605 11.7904 13.4603 11.799C13.3566 11.8031 13.2512 11.7993 13.1528 11.7631C12.9968 11.7345 12.7322 11.4692 12.9423 11.3504C13.0195 11.3164 13.1092 11.3893 13.0881 11.472C13.1229 11.5237 13.179 11.5508 13.238 11.5651C13.2344 11.5044 13.2807 11.4534 13.3382 11.4438C13.5206 11.4063 13.7082 11.3998 13.8939 11.4C14.0597 11.3998 14.226 11.4041 14.3916 11.4129C14.4499 11.4161 14.4986 11.4593 14.4986 11.5199C14.4986 11.5674 14.4636 11.6135 14.4175 11.6246C14.5101 11.6625 14.6676 11.705 14.661 11.829C14.6514 11.9106 14.5535 11.9471 14.4884 11.8999ZM11.2734 11.4851C11.2148 11.477 11.175 11.4224 11.182 11.3645C11.2091 11.1143 11.2499 10.8658 11.2738 10.6155C11.2649 10.1317 11.2175 9.64896 11.2209 9.16443C11.2113 8.93575 11.2066 8.70617 11.2209 8.47748C11.2357 8.30954 11.2759 8.14589 11.2829 7.9767C11.1425 7.89737 11.2727 7.72532 11.3197 7.62384C11.3463 7.55899 11.3528 7.46197 11.4378 7.45018C11.4687 7.4207 11.5087 7.39962 11.5522 7.40552C11.5874 7.41034 11.6188 7.43214 11.637 7.46197C11.6454 7.45143 11.6545 7.44125 11.664 7.43124C11.6904 7.29528 11.8866 7.32673 11.8871 7.46054C11.8873 7.52701 11.8268 7.56327 11.7925 7.61276C11.6138 7.93507 11.6004 8.31365 11.5659 8.67258C11.5416 8.94486 11.517 9.22518 11.4991 9.49674C11.4823 9.73329 11.4703 9.9702 11.4785 10.2075C11.4802 10.397 11.5027 10.5876 11.4723 10.7765C11.4459 10.9821 11.4185 11.188 11.394 11.3938C11.3874 11.4515 11.3299 11.4927 11.2734 11.4851ZM7.81993 10.0145C7.95839 10.0447 8.10275 10.0236 8.23942 9.99521C8.43184 9.96966 8.65142 9.94125 8.79381 9.79725C9.02535 9.51086 8.98587 8.91824 8.81435 8.61291C8.74593 8.54037 8.61622 8.60523 8.63248 8.70331C8.63784 8.74262 8.65141 8.78103 8.65713 8.82033C8.63569 8.88787 8.64445 8.96148 8.63837 9.03133C8.63623 9.2384 8.48937 9.41081 8.34805 9.54909C8.30749 9.58429 8.26658 9.61788 8.22245 9.64879C8.17171 9.67612 8.11829 9.72043 8.13294 9.78421C8.10132 9.78117 8.06898 9.77688 8.04182 9.75902C8.04379 9.76027 8.04558 9.76152 8.04754 9.76295C8.04879 9.76366 8.05004 9.7642 8.05129 9.76474C8.05111 9.76545 8.04897 9.76402 8.04683 9.76259C8.04522 9.7617 8.04361 9.76098 8.042 9.76009C8.02414 9.74633 8.00895 9.72168 7.99966 9.69988C8.00395 9.64575 7.96643 9.59947 7.9148 9.58697C7.84833 9.56714 7.77312 9.62645 7.77901 9.70238C7.75489 9.68755 7.72506 9.68219 7.6954 9.69041C7.51495 9.76241 7.68271 9.99968 7.81993 10.0145Z" fill="#DED2D3"/>
<path fill-rule="evenodd" clip-rule="evenodd" d="M6.74981 13.3737C6.34104 13.2471 6.28243 12.7929 6.27314 12.424C6.24742 11.7236 6.22348 11.0227 6.18292 10.3229C6.14808 9.61168 6.13665 8.89971 6.09573 8.18882C6.10288 7.99015 5.9587 7.53832 6.2953 7.58673C6.54542 6.66502 9.41633 6.84029 9.84619 7.58245C10.1342 8.3623 10.1619 9.57327 9.82028 10.3395C9.42848 10.9459 8.58948 10.8861 7.9731 11.0787C8.051 11.9954 8.21465 13.8338 6.74981 13.3737ZM23.3097 13.0952C22.629 13.0949 22.4697 12.5523 22.5229 11.9718C22.4607 10.9679 22.7153 9.7614 21.9485 8.97225C21.6123 8.56883 21.3043 8.14344 20.9752 7.73431C20.9066 7.63176 20.767 7.53171 20.8183 7.39414C20.5823 6.92211 20.9685 6.71254 21.3961 6.72058C21.7345 6.71647 22.1072 6.59802 22.4262 6.74881C22.8607 7.09059 23.0516 7.6573 23.3615 8.10271C23.743 7.59763 24.0833 6.70147 24.8439 6.80259C25.1935 6.86941 25.734 6.79509 25.916 7.16581C25.9959 7.8449 24.6833 9.16377 24.2822 9.76783C23.8743 10.1704 24.051 10.7494 24.0297 11.2598C23.9686 11.7928 24.1469 13.2283 23.3097 13.0952ZM23.4537 12.7584C23.7721 12.3239 23.6551 11.3661 23.6797 10.8107C23.5384 10.0265 23.9945 9.55326 24.4562 8.99315C24.8501 8.44073 25.3595 7.92137 25.59 7.27711C24.322 6.88388 24.2956 7.35983 23.6447 8.29477C23.1734 9.10303 22.6533 7.31946 22.2942 7.07273C21.9199 6.94552 21.4811 7.06719 21.0956 7.11203C21.0815 7.23691 21.2194 7.33411 21.1935 7.45828C21.6376 8.03392 22.0995 8.59635 22.5367 9.17664C22.9426 9.92558 22.8239 10.835 22.8649 11.6586C22.8854 12.1631 22.7037 12.8333 23.4537 12.7584ZM17.4618 10.0305C17.2595 9.68475 17.4053 9.14466 17.651 8.86112C18.0378 8.05483 18.8021 9.08123 18.7235 9.62883C18.7571 10.289 17.8202 10.5666 17.4618 10.0305ZM18.0675 9.97186C18.5997 9.90093 18.3685 9.11393 18.0444 8.91079C17.9846 8.92633 17.9495 8.98529 17.8963 9.01138C17.7868 9.32707 17.4734 9.99062 18.0675 9.97186ZM16.2346 13.1481C17.0862 13.3902 17.0623 12.2346 17.435 11.7687C17.6094 11.6289 18.0262 11.372 18.192 11.6139C18.3672 12.0234 18.3138 12.5623 18.6919 12.8624C19.0206 13.0924 19.6381 13.152 19.8989 12.7988C20.1803 11.8617 19.8655 10.8453 19.7156 9.9054C19.5689 9.07802 19.4808 8.20829 19.0437 7.47203C18.6158 6.80991 17.1268 6.64912 16.877 7.55047C16.6739 7.63211 16.6723 7.91243 16.5998 8.09252C16.39 8.90775 16.1529 9.71744 15.9768 10.5409C15.9364 11.2995 15.1217 12.9435 16.2346 13.1481ZM16.4774 12.8362C16.882 12.5866 16.8304 11.9152 17.1584 11.5648C17.4384 11.2798 17.9858 11.0242 18.3537 11.2757C18.7569 11.6182 18.5189 12.3488 18.9758 12.6378C19.7922 12.9383 19.6704 12.2755 19.6488 11.7038C19.6036 11.0042 19.4355 10.3222 19.3217 9.6324C19.1844 8.89757 19.1128 8.08949 18.6229 7.49937C18.2865 7.27265 17.7739 7.21262 17.3978 7.36305C17.2392 7.45167 17.2556 7.69339 17.0946 7.76468C16.6893 8.82414 16.4563 9.98043 16.2196 11.0969C16.2162 11.6352 15.5494 12.8235 16.4774 12.8362ZM12.4268 13.0191C10.8013 13.0688 11.0752 11.9884 10.9807 10.7817C10.968 10.0757 10.9659 9.36941 10.9508 8.66334C10.9759 8.31245 10.8535 7.90547 11.0046 7.58245C11.0446 7.01019 11.8813 7.10238 12.1709 7.43148C12.6363 8.22652 12.3576 9.24131 12.4745 10.1219C12.4839 11.4733 13.058 11.1887 14.1049 11.1968C15.0334 11.1525 14.9888 12.1585 14.6029 12.7247C14.0729 13.1113 13.0787 12.9448 12.4268 13.0191ZM13.0855 12.6528C13.7124 12.566 14.5471 12.8385 14.5066 11.9155C14.5991 11.2648 13.5007 11.6425 13.1191 11.5491C12.5168 11.5936 12.1874 11.0558 12.1679 10.5125C12.033 9.61096 12.2052 8.67889 11.9858 7.79076C11.919 7.53778 11.4057 7.36787 11.3041 7.6607C11.2608 8.84987 11.3184 10.069 11.343 11.2641C11.3575 12.8172 11.681 12.6959 13.0855 12.6528ZM11.1926 7.85276C11.2179 7.84561 11.2406 7.82971 11.2583 7.81024C11.2401 7.82864 11.2178 7.84329 11.1926 7.85276ZM7.73691 9.7312C8.56358 10.0029 8.88803 9.26508 8.7342 8.56222C8.58395 8.09485 7.77711 8.03142 7.47214 8.34962C7.08873 8.46539 7.29616 9.6885 7.73691 9.7312ZM8.07137 9.43498C8.38063 9.46178 8.40189 9.14055 8.42244 8.90757C8.52195 8.43895 7.95202 8.45092 7.65419 8.58473C7.58577 8.90579 7.60006 9.50645 8.07137 9.43498ZM7.16859 13.0949C7.85304 13.0202 7.6399 12.0531 7.66134 11.5644C7.5947 11.0767 7.58023 10.7065 8.18232 10.6765C8.64255 10.5655 9.27876 10.5679 9.54925 10.1214C9.79759 9.3871 9.75757 8.52238 9.56533 7.78308C8.96074 7.1726 7.90825 7.31428 7.11982 7.37967C6.765 7.40146 6.61671 7.76986 6.41572 7.73109C6.47396 8.76661 6.49736 9.80392 6.55239 10.8398C6.58509 11.3693 6.5933 11.937 6.61778 12.4594C6.59777 12.8154 6.75964 13.1558 7.16859 13.0949Z" fill="#633728"/>
</svg>
