<svg width="25" height="24" viewBox="0 0 25 24" fill="none" xmlns="http://www.w3.org/2000/svg">
<path fill-rule="evenodd" clip-rule="evenodd" d="M23.6235 8.01C24.3058 8.19801 24.2183 8.63177 23.9468 9.15785C23.6788 9.78942 23.3102 10.3702 22.9112 10.9281C22.9114 10.9958 22.885 11.0655 22.8217 11.1271C22.7046 11.2613 22.5861 11.3958 22.4661 11.5303C22.4499 11.5517 22.4335 11.5732 22.4173 11.5946C22.333 11.7075 22.2273 11.8629 22.1008 11.9347C21.1312 12.9914 20.0718 14.0108 18.8778 14.7702C18.9174 14.8324 18.932 14.9119 18.9034 15.0036C18.906 15.0234 18.9086 15.0434 18.9112 15.0633C18.954 15.1103 18.9811 15.1754 18.9809 15.2583C18.9749 15.5507 19.121 16.4917 19.2758 17.618C19.339 18.0318 19.4047 18.4452 19.4732 18.8582C19.4824 18.9187 19.4748 18.9716 19.4553 19.0164C19.6726 20.8849 19.7739 22.7559 19.2205 22.8789C19.1196 23.002 18.9018 23.0606 18.6904 22.9678C16.0481 22.4578 13.7739 20.9005 11.5266 19.5049C10.9893 19.7748 10.679 20.3583 10.114 20.605C9.26745 21.0344 8.38832 21.397 7.54457 21.834C6.97973 22.1187 6.38353 22.3307 5.80451 22.5836C5.28363 22.8737 4.63448 23.1053 4.07804 22.7678C4.06685 22.7617 4.05646 22.7551 4.04687 22.7479C3.93278 22.7744 3.8073 22.7383 3.73537 22.6028C3.30341 21.7061 3.60331 20.6606 3.75775 19.7275C4.05585 17.9768 5.0159 16.4278 5.4109 14.7071C4.20671 13.4797 2.85845 12.4096 1.75076 11.0909C1.4127 10.6655 1.09741 10.2228 0.791521 9.77363C0.67224 9.6044 0.486026 9.32748 0.517594 9.12289L0.517192 9.12209C0.0442643 8.13647 5.94077 7.41859 6.68782 7.36524C7.19991 7.32329 7.7134 7.27593 8.2131 7.15285C7.97014 6.87053 8.60971 5.8072 8.72159 5.5001C9.13079 4.54046 9.58953 3.62418 10.1478 2.74026C10.7024 1.86594 11.2419 0.903499 12.0906 0.28232C12.6185 -0.039958 12.9396 0.719686 13.2207 1.04576C13.9102 1.97823 14.4639 3.0056 14.936 4.06274C15.278 4.95785 15.6818 5.84376 15.9118 6.77583C16.0197 6.79981 16.135 6.85495 16.2345 6.9069C16.7781 7.08612 17.3723 6.96544 17.9384 7.02718C19.1667 7.04995 20.3861 7.22978 21.5973 7.42858C22.2874 7.56644 22.9666 7.75885 23.6235 8.01Z" fill="#FEB904"/>
<path fill-rule="evenodd" clip-rule="evenodd" d="M23.5539 8.54806C23.5471 8.53028 23.5421 8.5121 23.5389 8.49412C23.5385 8.49452 23.5381 8.49491 23.5377 8.49551C23.5425 8.5133 23.5459 8.53128 23.5539 8.54806ZM16.3785 6.99681C16.3743 7.01819 16.3681 7.03897 16.3597 7.05895C16.2828 7.05775 16.2059 7.05715 16.1289 7.05595C16.1066 7.05116 16.0844 7.04636 16.0622 7.04117C15.9931 7.02558 15.924 7.009 15.8548 6.99261C15.8344 6.98762 15.8137 6.98282 15.7933 6.97783C15.7607 6.97004 15.7282 6.96224 15.6954 6.95465C15.6756 6.95006 15.6558 6.94526 15.636 6.94047C15.5995 6.93168 15.5625 6.92329 15.5258 6.9149C15.4976 6.9083 15.469 6.90211 15.4408 6.89592C15.4265 6.89292 15.4125 6.88992 15.3983 6.88692C15.3839 6.88392 15.3699 6.88093 15.3555 6.87813C15.3515 6.87713 15.3475 6.87653 15.3433 6.87573V6.87553C15.3369 6.87413 15.3308 6.87314 15.3244 6.87174C14.9661 6.59681 14.7565 6.12388 14.6207 5.67913C14.3847 5.03357 14.1731 4.37903 13.9014 3.74706C13.3733 2.63537 12.9361 1.44376 12.1258 0.499507C12.0277 0.43657 11.9751 0.348656 11.9593 0.259945C11.9979 0.241963 12.0366 0.22398 12.0754 0.205599C12.0794 0.203801 12.0838 0.201604 12.0878 0.199806C12.1028 0.192813 12.1176 0.185617 12.1323 0.178624C12.1835 0.154648 12.2344 0.130276 12.2854 0.1059C12.3405 0.119286 12.3989 0.118086 12.4588 0.1039C12.4726 0.100503 12.4862 0.0961091 12.4992 0.0903149C12.5287 0.109496 12.5571 0.129877 12.5855 0.150856C12.6141 0.174632 12.6422 0.198604 12.6698 0.223379C12.6958 0.252949 12.7214 0.282922 12.7463 0.313291C12.7549 0.316888 12.7637 0.319882 12.7721 0.323279C12.7883 0.340662 12.8043 0.358246 12.8199 0.376028H12.8201C12.8221 0.378226 12.8241 0.380424 12.8261 0.383022C12.8281 0.385219 12.83 0.387417 12.8318 0.389814C12.8424 0.401602 12.8528 0.413789 12.8628 0.425777C12.8772 0.44236 12.891 0.459143 12.905 0.475727C12.9483 0.530672 12.9913 0.585819 13.0334 0.641363C13.097 0.72468 13.1595 0.808996 13.2215 0.893711C13.2834 0.978227 13.3447 1.06354 13.4057 1.14866C13.4348 1.18942 13.464 1.23037 13.4934 1.27093C13.494 1.27193 13.4946 1.27273 13.4952 1.27373C13.5515 1.35166 13.6087 1.42918 13.6682 1.5047C13.7052 1.55146 13.7433 1.59741 13.7839 1.64136C14.0822 2.15805 14.3435 2.68552 14.5755 3.22418C14.683 3.45175 14.7853 3.68193 14.8814 3.91489C15.2806 4.73228 15.523 5.6096 15.8161 6.46474C15.8978 6.49212 15.9847 6.5073 16.067 6.51769C16.0722 6.51849 16.0772 6.51909 16.082 6.51989C16.0812 6.54027 16.081 6.56065 16.0812 6.58063C16.0814 6.59082 16.0816 6.60101 16.0822 6.6114H16.0824C16.0828 6.61939 16.0834 6.62758 16.084 6.63557C16.0848 6.64377 16.0856 6.65176 16.0866 6.65995C16.088 6.67174 16.0898 6.68353 16.092 6.69512C16.093 6.69931 16.0936 6.70391 16.0946 6.7081C16.0962 6.71609 16.0982 6.72408 16.1002 6.73188C16.1012 6.73567 16.1022 6.73967 16.1034 6.74366C16.1056 6.75145 16.108 6.75925 16.1106 6.76684C16.112 6.77083 16.1132 6.77443 16.1148 6.77823C16.1178 6.78662 16.1212 6.79481 16.1248 6.803C16.1258 6.806 16.1272 6.8088 16.1288 6.8118C16.1371 6.82978 16.1469 6.84736 16.1583 6.86395C16.1605 6.86734 16.1627 6.87054 16.1651 6.87354C16.1675 6.87673 16.1699 6.87993 16.1723 6.88293C16.1747 6.88612 16.1773 6.88932 16.1799 6.89232C16.1825 6.89532 16.1851 6.89831 16.1879 6.90131C16.1961 6.9103 16.2049 6.91849 16.2141 6.92668C16.2173 6.92948 16.2205 6.93208 16.2235 6.93448C16.2299 6.93967 16.2364 6.94447 16.2434 6.94926C16.2502 6.95366 16.2572 6.95805 16.2642 6.96165C16.2676 6.96344 16.271 6.96544 16.2746 6.96704V6.96724C16.308 6.98343 16.3431 6.99301 16.3785 6.99681ZM5.73414 14.2408C5.73374 14.2554 5.73294 14.2703 5.73234 14.2849C5.72535 14.3043 5.71835 14.3237 5.71196 14.3427C5.68379 14.424 5.65602 14.5055 5.62805 14.587C5.62525 14.595 5.62245 14.603 5.61965 14.6112C5.61586 14.622 5.61226 14.6328 5.60846 14.6438L5.60827 14.6442C5.58569 14.7097 5.56351 14.7754 5.54153 14.8414C5.52695 14.8855 5.51116 14.9297 5.49858 14.9744C5.49778 14.9776 5.49698 14.9808 5.49598 14.984C5.49218 14.9842 5.48858 14.9842 5.48459 14.9842C5.44303 14.9842 5.39888 14.9746 5.35232 14.9535C5.32295 14.9413 5.29658 14.9247 5.2736 14.9045C5.26321 14.8815 5.25062 14.8596 5.23744 14.8388C5.22085 14.8128 5.20307 14.7874 5.18429 14.7629C5.18309 14.7589 5.18209 14.7551 5.1811 14.7511C5.1769 14.7487 5.1729 14.7459 5.16891 14.7431C5.14773 14.7163 5.12535 14.6903 5.10277 14.6645C5.0726 14.6306 5.04183 14.5972 5.01046 14.5641C4.78689 14.3001 4.55791 14.0402 4.30197 13.808C4.29757 13.803 4.29298 13.7982 4.28899 13.7932C4.26861 13.77 4.24503 13.7509 4.21985 13.7353C4.10197 13.6336 3.97809 13.5379 3.84642 13.4508C3.61406 13.213 2.95132 13.0224 3.20707 12.603C3.22245 12.583 3.24003 12.5656 3.25882 12.5511C2.79967 12.1423 2.36371 11.7087 1.98269 11.2162C1.49278 10.639 1.00187 10.0622 0.529341 9.47074C0.404067 9.29152 0.227642 9.11929 0.170898 8.90491C0.257212 8.76964 0.348125 8.63658 0.441831 8.50631C0.588884 8.5139 0.746127 8.63837 0.799274 8.83777C1.74893 10.045 2.71856 11.2562 3.84883 12.3003C4.39009 12.8048 5.04263 13.1954 5.5763 13.7067C5.60127 13.7565 5.62465 13.807 5.64683 13.8584C5.66961 13.9159 5.69118 13.9732 5.70877 14.0328C5.71656 14.0685 5.72335 14.1039 5.72895 14.1401C5.73175 14.174 5.73334 14.2072 5.73414 14.2408ZM24.1174 8.50451C24.1545 8.55626 24.1741 8.62019 24.1653 8.69112C24.0972 9.15585 23.8273 9.54966 23.5765 9.93468C23.3352 10.3213 23.0674 10.6883 22.7951 11.0534C22.0882 12.0154 21.2484 12.8733 20.3314 13.6352C19.9875 13.9642 19.6119 14.2566 19.2492 14.5644C19.1869 14.6244 19.115 14.6967 19.0376 14.7541C19.0518 15.662 19.3713 16.5331 19.466 17.4336C19.6329 18.7625 19.8536 20.1231 19.6306 21.457C19.5431 21.7816 19.4432 22.9251 19.0312 22.9675C18.9851 22.999 18.9262 23.0176 18.8544 23.016C17.9713 22.8799 17.1707 22.4196 16.3469 22.0933C14.7895 21.4683 13.3136 20.6576 11.9074 19.7439C11.8011 19.6548 11.6392 19.5892 11.5218 19.4961C11.4025 19.5766 11.2792 19.652 11.2039 19.7333C10.5485 20.3249 9.79048 20.789 8.99468 21.1682C8.0732 21.6975 7.09318 22.1954 6.08818 22.5343C5.44942 22.7611 4.73094 23.0244 4.06661 22.7471C3.38349 22.4078 3.66321 21.4833 3.72035 20.8789C3.7751 20.5651 3.78149 20.2438 3.83344 19.9305C3.65802 19.774 3.75032 19.44 3.99668 19.418C4.43544 19.3808 4.8728 19.3235 5.30457 19.2362C6.25821 19.047 7.1731 18.7163 8.06061 18.3241C9.88279 17.6216 11.4704 16.4496 12.9595 15.2068C15.1158 13.3726 16.7469 10.971 17.6996 8.3073C17.8185 7.95066 17.9411 7.59262 18.0069 7.22199C18.0115 6.89392 18.4712 6.85495 18.5791 7.1087C20.0053 7.27433 21.4518 7.34047 22.8522 7.66754C23.1977 7.75686 24.0051 8.02698 24.1214 8.38023C24.1292 8.42199 24.1274 8.46435 24.1174 8.50451Z" fill="#F19523"/>
<path fill-rule="evenodd" clip-rule="evenodd" d="M1.97255 8.0132C2.20771 7.93727 2.46006 7.9057 2.69862 7.84716C3.73279 7.62438 4.79713 7.6084 5.84208 7.48193C5.99193 7.46454 6.2321 7.39481 6.50402 7.3123C6.56796 7.38922 6.66506 7.43458 6.76996 7.43657C6.77136 7.43657 6.77275 7.43657 6.77415 7.43657C6.84388 7.43657 6.91541 7.4082 6.98134 7.38942C7.05207 7.36944 7.1226 7.34926 7.19373 7.33008C7.3286 7.29411 7.46386 7.25955 7.60013 7.22918C7.67106 7.2142 7.74219 7.20001 7.81391 7.19022C7.85967 7.20401 7.90962 7.2086 7.96256 7.20241C7.96316 7.20241 7.96396 7.20221 7.96436 7.20221C8.06306 7.19102 8.15457 7.12568 8.20632 7.04197C8.20832 7.04377 8.21052 7.04557 8.21231 7.04736C8.21691 7.03897 8.2213 7.03058 8.2259 7.02219C8.20952 6.59961 8.49983 5.98602 8.63269 5.66674C8.86406 5.03417 9.16935 4.43238 9.50462 3.84436C9.79633 3.34466 10.0609 2.82518 10.3474 2.32009C10.4111 2.03837 10.6798 1.7023 10.9204 1.40021C10.9857 1.3073 11.0529 1.21559 11.1226 1.12568C11.1432 1.1041 11.163 1.08112 11.1821 1.05735C11.1991 1.03297 11.2149 1.009 11.2293 0.98602C11.2437 0.966639 11.2593 0.950055 11.2759 0.935869C11.3564 0.831373 11.4421 0.732074 11.5674 0.688917C11.6007 0.678328 11.6343 0.674729 11.6671 0.677326C11.722 0.560443 11.7769 0.443758 11.8317 0.326675C11.8327 0.323678 11.8335 0.320686 11.8345 0.317889C11.8393 0.31649 11.8441 0.31549 11.8491 0.314292C11.9476 0.290715 12.0461 0.26674 12.1444 0.242964C12.1955 0.230576 12.2469 0.217589 12.2982 0.205001C12.3362 0.209797 12.3752 0.210794 12.4145 0.209995C12.3346 0.346059 12.2571 0.483525 12.1795 0.621187C11.9628 1.0064 11.7642 1.4036 11.5774 1.8044C11.339 2.31589 11.1066 2.83258 10.8956 3.35625C10.6878 3.87194 10.5014 4.39661 10.327 4.92449C10.1544 5.44736 9.98694 5.97144 9.85827 6.5069C9.79493 6.77004 9.73859 7.03397 9.68844 7.29991C9.64428 7.53247 9.60692 7.76604 9.56376 7.99861C9.55657 8.03477 9.54938 8.07074 9.54119 8.1065C9.53239 8.12469 9.5236 8.14306 9.51461 8.16125C9.47845 8.18502 9.44188 8.208 9.40472 8.23018C9.36636 8.25176 9.3282 8.27294 9.28964 8.29352C9.24648 8.3103 9.20292 8.32549 9.15877 8.33927C8.89483 8.33188 8.6307 8.32428 8.36676 8.31809C7.25447 8.29232 6.13978 8.3117 5.0283 8.36105C4.46346 8.38622 3.89843 8.41839 3.33399 8.44956C3.23729 8.45496 3.14078 8.46075 3.04428 8.46714C2.5216 8.53208 1.99033 8.67414 1.47325 8.6114C1.15517 8.48593 1.30202 7.98243 1.63389 8.04377C1.74658 8.03578 1.85966 8.02538 1.97255 8.0132Z" fill="#FFD976"/>
<path fill-rule="evenodd" clip-rule="evenodd" d="M8.08694 7.24017C7.71791 7.09651 8.23599 6.27094 8.28014 5.98602C8.83019 4.51309 9.59363 3.12808 10.4494 1.8122C10.9107 1.14266 11.3653 0.336665 12.1427 0.00459678C12.8246 -0.0673313 13.2546 0.722279 13.674 1.15345C14.9293 2.86694 15.7289 4.92089 16.2176 6.95745C15.7705 7.62618 15.4164 5.23337 15.2348 4.97583C14.8382 3.81479 14.2654 2.73687 13.6084 1.71089C13.3273 1.36983 12.6258 0.268933 12.1625 0.405996C11.3323 0.958644 10.8666 1.90031 10.3319 2.71469C9.6216 3.86754 9.00322 5.08073 8.55067 6.35685C8.41361 6.57324 8.39523 7.33048 8.08694 7.24017Z" fill="#623425"/>
<path fill-rule="evenodd" clip-rule="evenodd" d="M18.856 14.9233C18.6708 14.6068 19.4027 14.3471 19.5803 14.1359C19.8278 13.9525 20.0676 13.7597 20.299 13.5563C21.3098 12.639 22.3188 11.6865 23.086 10.5513C23.0844 10.5535 23.0838 10.5545 23.0826 10.5563C23.473 9.89251 24.0688 9.11909 23.8776 8.3109C23.4644 7.87773 22.7453 7.86414 22.2127 7.71529C22.2135 7.71549 22.2143 7.71569 22.2153 7.71589C22.2191 7.71669 22.2228 7.71749 22.2266 7.71829C20.887 7.44396 19.5363 7.23777 18.1669 7.2116C17.7647 7.19162 17.3623 7.17363 16.9595 7.16165C16.6918 7.12788 15.8073 7.27693 16.1271 6.78762C17.3543 6.73567 18.6382 6.86035 19.8802 6.93727C20.7775 7.05016 21.6688 7.21939 22.5547 7.39821C23.4586 7.57943 24.6348 7.82838 24.2496 9.03058C23.649 11.005 22.0268 12.4741 20.5585 13.8346C20.3128 13.9946 18.9943 15.2701 18.856 14.9233Z" fill="#623425"/>
<path fill-rule="evenodd" clip-rule="evenodd" d="M0.298827 8.85815C-0.187886 7.82918 6.97955 7.03877 7.86007 6.92409C8.5328 6.76445 8.52041 7.41579 8.04908 7.29272C6.07526 7.53468 4.07305 7.73567 2.15157 8.26534C1.69283 8.39501 1.2203 8.49451 0.790932 8.7083C0.625897 8.76704 0.478448 9.02598 0.298827 8.85815Z" fill="#623425"/>
<path fill-rule="evenodd" clip-rule="evenodd" d="M5.1986 14.7045C3.31728 13.1748 1.34865 11.5277 0.237561 9.33068C-0.199402 8.33567 1.04576 8.57483 0.539261 9.0104C1.11129 10.4873 2.37023 11.6474 3.46913 12.7379C4.07213 13.2693 4.66434 13.8134 5.3007 14.3049C5.33627 14.3187 5.36663 14.3369 5.39241 14.3581C5.41299 14.4302 5.43797 14.5009 5.46454 14.5698C5.47273 14.591 5.48092 14.612 5.48911 14.633C5.46933 14.6959 5.41799 14.7417 5.33807 14.7417C5.29851 14.7417 5.25195 14.7305 5.1986 14.7045Z" fill="#623425"/>
<path fill-rule="evenodd" clip-rule="evenodd" d="M4.07915 23.1109C2.79683 22.5247 3.70532 19.5177 3.90732 18.41C4.21961 17.2799 4.63699 16.1818 5.02161 15.0751C5.14428 14.8919 5.17585 14.4302 5.38584 14.3333C5.40762 14.4138 5.43519 14.4929 5.46476 14.5696C5.49253 14.6416 5.52091 14.7131 5.55068 14.7842C5.51372 14.8616 5.47635 14.9361 5.46137 14.9988C5.24718 15.5223 5.08055 16.0632 4.89513 16.597C4.29354 18.1986 3.87435 19.8671 3.79943 21.5748C3.7255 23.2144 4.70672 22.8246 5.82061 22.4462C6.86237 22.0959 7.85658 21.6282 8.831 21.1225C9.62341 20.6897 10.4684 20.2701 11.0887 19.6016C11.0919 19.59 11.0957 19.5796 11.1005 19.5698C11.1135 19.5605 11.1265 19.5513 11.1397 19.5421C11.1715 19.5195 11.2032 19.4967 11.235 19.4739C11.3635 19.4604 11.5139 19.5758 11.4464 19.7293C11.023 20.3665 10.2696 20.7247 9.6332 21.1213C8.36946 21.7657 5.94069 23.1351 4.41241 23.1353C4.29553 23.1359 4.18444 23.1279 4.07915 23.1109Z" fill="#623425"/>
<path fill-rule="evenodd" clip-rule="evenodd" d="M18.8904 23.2668C17.1608 22.8763 15.515 22.0945 13.9458 21.2801C13.0127 20.8124 12.1915 20.1431 11.2563 19.6883C11.1827 19.6592 11.1478 19.6012 11.1426 19.5399C11.1871 19.5081 11.2315 19.4763 11.276 19.4446C11.2768 19.4442 11.2776 19.4436 11.2786 19.4432C11.3324 19.4134 11.3861 19.3836 11.4397 19.3539C12.3514 19.7888 13.1446 20.4482 14.0505 20.9025C14.7554 21.3069 18.6383 23.1858 19.2013 22.8196C19.6153 21.6819 19.4605 20.4306 19.3478 19.2574C19.1781 17.8915 19.1122 16.5105 18.8517 15.1579C18.5985 14.9439 19.0169 14.6506 19.1712 14.9299C19.3807 15.6092 19.4079 16.3425 19.4958 17.0472C19.507 18.1099 20.5817 23.2708 18.9712 23.2708C18.945 23.2708 18.9182 23.2695 18.8904 23.2668Z" fill="#623425"/>
<path fill-rule="evenodd" clip-rule="evenodd" d="M7.24246 5.94006C7.23527 5.63397 8.4083 2.37783 8.77434 3.26794C8.47783 3.92148 8.02449 4.57923 7.82009 5.28632C7.68343 5.50051 7.70281 6.11989 7.43287 6.13067C7.32898 6.13047 7.24246 6.04376 7.24246 5.94006Z" fill="#623425"/>
<path fill-rule="evenodd" clip-rule="evenodd" d="M9.15234 2.57223C8.92597 2.46434 9.0906 2.22518 9.20049 2.09151C9.31758 1.95645 9.44685 1.65195 9.66383 1.8012C9.88601 2.01179 9.52417 2.23317 9.43226 2.42138C9.38271 2.53108 9.27822 2.62838 9.15234 2.57223Z" fill="#623425"/>
<path fill-rule="evenodd" clip-rule="evenodd" d="M20.1748 15.0703C20.0529 14.7421 20.6359 14.6296 20.8202 14.4416C21.2683 14.1437 21.6721 13.7846 22.027 13.3802C22.2615 13.2122 22.6735 12.3471 22.956 12.5523C23.0373 12.6152 23.0549 12.7383 22.9904 12.8194C22.4238 13.5361 21.8212 14.2422 21.0575 14.7401C20.8146 14.8356 20.4002 15.3531 20.1748 15.0703Z" fill="#623425"/>
<path fill-rule="evenodd" clip-rule="evenodd" d="M23.3743 11.9954C23.265 11.9169 23.2944 11.7611 23.3749 11.6787C23.4606 11.5469 23.5589 11.3155 23.7531 11.4236C24.0147 11.5583 23.6029 12.1916 23.3743 11.9954Z" fill="#623425"/>
<path fill-rule="evenodd" clip-rule="evenodd" d="M14.8072 22.6544C13.8028 22.4058 12.8893 21.9091 12.0721 21.2827C11.9214 21.1283 11.5041 20.9854 11.6621 20.7195C11.8431 20.4292 12.5324 21.23 12.7928 21.3269C13.0609 21.5031 13.3324 21.6755 13.6203 21.8182C14.0335 22.0154 14.4659 22.1702 14.9083 22.2871C15.1464 22.3503 15.0437 22.7221 14.8072 22.6544Z" fill="#623425"/>
<path fill-rule="evenodd" clip-rule="evenodd" d="M16.2772 23.4086C16.0341 23.3029 15.7637 23.2252 15.5487 23.0731C15.444 22.9485 15.5631 22.7367 15.7254 22.768C15.9637 22.8486 16.1857 22.9772 16.4255 23.0576C16.6542 23.1509 16.5026 23.5061 16.2772 23.4086Z" fill="#623425"/>
<path fill-rule="evenodd" clip-rule="evenodd" d="M3.95107 13.8128C3.47534 13.1509 3.43639 12.177 3.45117 11.3742C3.46216 11.2709 3.56545 11.1978 3.66575 11.2114C3.97484 11.3027 3.75647 11.7886 3.83359 12.034C3.86855 12.4554 3.94967 12.8727 4.07954 13.2753C4.17584 13.4801 4.35606 13.8831 3.95107 13.8128Z" fill="#623425"/>
<path fill-rule="evenodd" clip-rule="evenodd" d="M4.83763 14.3035C4.72094 14.0464 4.34193 12.3015 4.99088 12.7121C5.07619 13.0382 4.97049 13.4132 5.07619 13.7519C5.08198 13.9613 5.34033 14.2676 5.08718 14.4048C4.99507 14.444 4.87379 14.4008 4.83763 14.3035Z" fill="#623425"/>
<path fill-rule="evenodd" clip-rule="evenodd" d="M16.4652 8.26175C16.3531 7.89831 16.2335 7.52748 16.0239 7.2074C15.7667 6.93547 16.2441 6.70531 16.3707 7.04057C16.488 7.27973 17.0734 8.27313 16.6994 8.39461C16.6009 8.42239 16.4932 8.36225 16.4652 8.26175Z" fill="#623425"/>
<path fill-rule="evenodd" clip-rule="evenodd" d="M17.6634 7.96644C17.5035 7.8116 17.4972 7.54446 17.3775 7.35565C17.294 7.24736 17.2874 7.07453 17.4308 7.01459C17.6598 6.92928 17.7291 7.22378 17.8048 7.37783C17.9103 7.58422 18.0922 8.09771 17.6634 7.96644Z" fill="#623425"/>
<path fill-rule="evenodd" clip-rule="evenodd" d="M8.24206 21.5157C7.99031 21.3209 8.57813 20.8318 8.63587 20.5597C8.76934 20.3814 8.79131 19.9265 9.09461 20.0122C9.18851 20.0518 9.23827 20.1671 9.19591 20.2618C9.02548 20.5387 8.64386 21.7259 8.24206 21.5157Z" fill="#623425"/>
<path fill-rule="evenodd" clip-rule="evenodd" d="M6.64057 22.2743C6.407 22.034 6.84456 21.7906 6.93407 21.5692C7.13427 21.3822 7.28213 20.6723 7.63437 20.9083C7.81619 21.1331 7.39142 21.4773 7.30271 21.7021C7.12089 21.8873 6.96245 22.4326 6.64057 22.2743Z" fill="#623425"/>
</svg>
