<svg width="127" height="122" viewBox="0 0 127 122" fill="none" xmlns="http://www.w3.org/2000/svg">
<path d="M125.823 39.5254C126.491 34.5754 124.765 29.0651 120.595 26.3158C114.513 22.3058 106.441 25.4104 99.8807 28.5774C98.5723 15.837 90.278 2.82229 77.6925 0.450521C73.4506 -0.349317 68.5784 0.315673 65.7035 3.53583C62.3153 7.33159 62.8293 13.1123 63.7116 18.124C63.9874 16.6838 62.6759 15.1635 61.2111 15.2259C59.7463 15.2884 58.5681 16.9142 58.9665 18.3251C55.8758 16.203 52.547 14 48.799 13.9306C45.051 13.8613 41.0133 16.9774 41.6136 20.6776C39.7635 16.4658 34.8342 14.1687 30.244 14.4662C25.653 14.7636 21.4412 17.2417 18.0684 20.3702C15.4008 22.8444 13.0406 26.0207 12.8834 29.6569C12.7269 33.2924 15.6296 37.1806 19.2582 36.9202C13.6416 38.6462 9.67015 44.6396 10.2704 50.4851C10.8707 56.3305 15.9779 61.3915 21.8288 61.9394C18.9176 65.3506 17.2378 69.7921 17.163 74.276C17.1122 77.3644 17.9097 80.6446 20.162 82.7583C22.4144 84.8719 26.3596 85.3057 28.5172 83.095C24.0403 89.8274 27.0023 100.258 34.348 103.633C36.8245 104.772 39.7558 105.152 42.2847 104.133C44.8121 103.113 46.7647 100.498 46.5174 97.7841C45.5657 103.922 47.8859 110.568 52.7319 114.454C57.5779 118.339 64.8412 119.095 70.1858 115.931C75.5304 112.768 78.3614 105.72 76.3179 99.8554C77.2726 101.501 79.5234 102.248 81.2741 101.501C82.6626 100.039 81.7834 97.1677 79.8139 96.7331C82.5555 99.1827 87.8076 96.1667 87.0741 92.5644C91.121 97.7941 99.8429 98.4468 104.624 93.8789C109.727 89.0029 108.194 82.2104 105.128 76.8643C106.281 76.9722 107.86 76.7464 108.693 75.8009C109.753 74.5958 109.835 72.7534 109.257 71.2562C108.679 69.7582 107.546 68.5454 106.359 67.465C107.458 68.6047 108.649 69.7967 110.194 70.1481C113.406 70.8763 114.478 67.727 112.348 65.6211C116.824 66.7839 120.999 67.5552 123.823 63.1938C125.12 61.1935 125.805 58.3347 124.767 56.0824C124.397 55.2795 120.721 51.1038 119.577 52.7189C122.419 48.7074 125.15 44.5194 125.823 39.5254Z" fill="#F74D26"/>
<path d="M77.5946 4.73245C79.9956 4.49204 82.4398 6.43538 84.3686 7.70834C86.4645 9.09226 88.2722 11.6513 90.5199 12.7069C90.7919 12.6784 91.0624 12.6499 91.3344 12.6222C91.1356 12.5613 90.936 12.5004 90.738 12.4396C90.3473 12.1514 89.6877 11.9402 89.2431 11.6975C88.0888 11.0687 87.047 10.3837 86.0237 9.55151C84.9519 8.67847 80.1305 5.59085 80.3331 3.87944C80.1251 4.2416 79.9178 4.60377 79.7098 4.9667C80.3023 4.60454 85.0906 7.49797 85.3256 7.66519C86.3658 8.40723 87.2304 9.3188 88.0734 10.2758C88.4887 10.7466 89.8565 11.9056 90.0845 12.5382C90.2718 12.0766 90.459 11.6166 90.6463 11.155C90.1446 11.4455 85.8488 8.40338 85.1915 8.03814C83.4847 7.09035 81.3403 6.05318 80.6098 4.11446C80.3108 4.64152 80.0118 5.16858 79.7121 5.69564C80.0118 5.58931 82.3374 7.03487 82.6356 7.19823C83.5957 7.72683 84.159 8.18146 84.9727 8.86571C85.811 9.57 86.6425 10.2835 87.4531 11.0194C87.8268 11.3585 88.1759 11.7645 88.575 12.0705C89.1136 12.4835 88.9919 12.9705 89.0612 12.2639C89.6122 11.8439 90.1639 11.424 90.7148 11.004C88.5272 10.087 86.7295 8.99054 84.7654 7.70294C84.0911 7.26064 79.4902 4.21386 79.4925 4.20847C79.1927 4.50745 78.8945 4.80642 78.5955 5.1054C78.7597 5.05454 78.9246 5.00368 79.0887 4.95283C80.646 4.46969 79.9995 2.21658 78.4206 2.52866C75.1912 3.16668 77.8281 5.95301 79.1843 6.96783C82.6155 9.53533 86.0669 11.8717 90.0206 13.5237C90.8797 13.882 91.6033 13.0013 91.675 12.2639C91.863 10.3167 87.7359 7.77846 86.4745 6.73744C85.4119 5.85977 84.32 5.10694 83.0732 4.49512C81.8981 3.91874 80.3932 2.71976 79.0301 3.21599C78.4283 3.4356 77.8658 4.10676 78.1324 4.79718C79.2498 7.69216 81.7525 8.99517 84.367 10.4307C86.127 11.3978 89.6654 14.5771 91.8846 13.2687C92.3168 13.0136 92.6335 12.3887 92.4463 11.8863C91.6357 9.70177 88.6683 7.03025 86.8405 5.69873C85.2169 4.51592 82.1054 2.62806 80.0249 2.4516C78.013 2.28054 77.2186 4.05128 78.1902 5.67561C79.7452 8.2747 82.822 10.3945 85.1892 12.2038C86.8451 13.4706 89.6769 15.6481 91.9424 15.2975C94.0098 14.9778 93.8788 12.7547 92.8786 11.3446C91.1741 8.94046 87.8861 6.67656 85.3942 5.10848C82.7211 3.42559 80.4857 1.77351 77.281 2.40614C75.9872 2.66042 76.2584 4.86575 77.5946 4.73245Z" fill="#F4683D"/>
<path d="M68.7 5.00146C68.7693 4.99684 68.8387 4.99222 68.9081 4.98836C68.5659 4.39195 68.223 3.79631 67.8817 3.1999C65.7919 7.25611 66.6395 10.8369 67.3315 15.0441C67.3469 15.1404 67.5318 16.0774 67.5318 16.0774C67.3793 16.5321 67.5866 16.5714 68.1545 16.1946C68.9019 16.2161 69.0221 15.9842 68.5166 15.4964C68.4873 15.0765 68.0157 14.3637 67.931 13.8752C67.8339 13.3142 67.8454 12.7587 67.7807 12.1946C67.5056 9.79355 66.7759 7.58514 68.5983 5.57168C69.6509 4.40814 68.0234 2.76454 66.8715 3.84486C64.6669 5.91534 64.3494 8.52445 64.7324 11.411C65.0314 13.6656 64.8896 18.1895 67.8863 18.9239C70.4815 19.5588 70.8375 16.4134 70.4823 14.638C70.0986 12.7201 69.3218 10.8947 69.4197 8.89817C69.5075 7.08813 70.557 5.2727 70.0554 3.48424C69.6354 1.98782 67.2113 2.71368 67.7622 4.11609C67.7946 4.197 67.827 4.27868 67.8586 4.36036C67.9919 4.70326 68.2924 5.0292 68.7 5.00146Z" fill="#F4683D"/>
<path d="M107.295 28.1198C108.484 28.4936 109.653 28.2871 110.847 28.5167C112.142 28.7656 113.472 29.5199 114.645 30.0878C116.95 31.2044 118.498 33.4351 120.746 34.5347C121.752 35.0263 122.772 34.4176 122.867 33.318C123.401 27.1227 116.845 26.4292 112.381 25.4144C110.643 25.0191 109.901 27.6991 111.644 28.0898C114.094 28.6384 121.125 28.8226 120.099 32.9435C120.789 32.663 121.48 32.3818 122.17 32.1013C120.837 31.4278 119.792 30.0355 118.616 29.1277C117.501 28.2678 116.408 27.6698 115.125 27.0881C112.502 25.8991 110.158 25.2572 107.296 26.1565C106.327 26.4593 106.326 27.8155 107.295 28.1198Z" fill="#F4683D"/>
<path d="M121.119 36.5441C120.542 39.6749 119.241 42.284 117.788 45.0572C116.985 46.5891 115.91 48.5956 116.339 50.3664C116.441 50.7909 116.86 51.2741 117.314 51.3411C120.062 51.7472 121.703 48.3591 122.427 46.1576C123.492 42.9197 124.347 38.4898 122.822 35.2843C122.433 34.4667 120.968 34.6293 120.816 35.5463C120.439 37.8155 121.012 39.9885 120.513 42.331C120.333 43.184 119.293 48.8052 117.685 48.5995C118.134 48.9408 118.582 49.2822 119.031 49.6243C118.646 48.1634 120.874 45.1081 121.467 43.7612C122.436 41.5628 123.126 39.2318 123.051 36.8053C123.016 35.7481 121.328 35.4099 121.119 36.5441Z" fill="#F4683D"/>
<path d="M44.3731 22.1432C44.9248 21.7718 45.2546 21.2408 45.6113 20.6853C46.264 19.6743 46.7525 19.1919 48.0101 18.9238C48.6805 18.7805 49.4364 18.5786 50.1237 18.6356C51.0923 18.7157 51.6695 19.0532 52.6612 18.7874C53.3516 18.6025 53.3462 17.761 52.8438 17.3881C51.0469 16.0511 48.5841 15.877 46.4374 16.6822C44.6204 17.3642 42.8921 19.2551 42.8828 21.2886C42.8813 22.0029 43.7412 22.5701 44.3731 22.1432Z" fill="#F4683D"/>
<path d="M22.9358 21.2964C27.2956 20.0458 31.4998 21.2124 35.8719 21.5692C38.1643 21.7557 39.3048 19.7545 37.4955 18.0609C33.0163 13.8667 24.853 14.8654 21.4078 19.7399C20.4631 21.0753 22.6091 22.2427 23.5661 21.0013C25.4494 18.5579 29.1003 17.3119 32.1062 18.0716C32.7473 18.2335 33.7544 18.5409 34.3855 18.8345C34.7323 18.9963 35.1977 19.5727 35.5745 19.6104C35.5907 19.3631 35.6069 19.1158 35.623 18.8692C35.2532 18.7813 34.8794 18.7135 34.5034 18.6665C32.2888 18.0169 29.266 18.0185 26.9658 18.1163C25.1797 18.1919 23.375 18.5147 22.0019 19.6921C21.256 20.3301 22.0528 21.5499 22.9358 21.2964Z" fill="#F4683D"/>
<path d="M16.2019 26.6131C16.9339 26.9468 17.2044 28.7383 17.4625 29.4449C17.8447 30.4936 18.5167 31.4638 18.8418 32.5179C19.2903 33.9743 18.3988 32.5765 18.1044 32.0155C17.612 31.0762 17.3978 30.0267 17.2506 28.9934C17.2113 28.7167 17.2807 28.1974 17.1019 27.977C16.5995 27.3575 17.1805 28.8123 17.2514 29.0026C17.3084 29.1544 18.4041 32.2035 18.1853 32.2328C18.8488 32.1426 17.7923 28.716 17.78 28.2714C17.7569 27.4561 17.3346 26.795 18.1668 25.9674C18.4196 25.7147 18.9551 25.5413 19.2595 25.3278C20.5856 24.3993 19.449 22.4013 17.9834 23.1449C15.2056 24.5534 14.8557 26.2918 15.2325 29.2554C15.4629 31.0646 16.3684 34.788 18.8657 34.5691C23.3103 34.1785 19.0129 23.1348 15.3219 25.7093C13.5951 26.9136 14.6122 30.3079 15.1431 31.8637C15.7465 33.6329 17.031 36.0193 19.2132 35.9916C21.7977 35.9584 21.8925 33.2962 21.1342 31.4738C20.5725 30.1246 19.7773 28.8624 19.1662 27.5262C18.6376 26.3719 18.3232 25.0666 16.9432 24.857C15.9723 24.7106 15.1177 26.12 16.2019 26.6131Z" fill="#F4683D"/>
<path d="M17.5086 41.5905C17.4585 41.5435 17.4076 41.4965 17.3575 41.4495C16.5854 40.7298 15.398 41.2592 15.3394 42.2856C15.2277 44.2358 15.9297 46.7009 16.6201 48.4793C17.3506 50.3633 20.9422 54.6453 20.197 56.5308C20.6494 56.1864 21.1009 55.842 21.5532 55.4983C19.0535 55.5307 17.0262 50.972 16.3851 49.0171C15.9728 47.7596 15.744 46.4381 15.6877 45.1073C15.67 44.6866 15.4481 42.3988 15.6908 42.1754C15.2108 42.237 14.7315 42.2994 14.2514 42.3611C14.9049 42.7679 15.0281 44.9995 15.23 45.6298C15.6615 46.9775 16.2787 48.2558 16.7341 49.592C17.2951 51.2371 19.0427 52.937 19.25 54.5752C19.6785 54.1475 20.1061 53.7191 20.5345 53.2914C18.5519 53.491 17.4955 50.6584 17.1248 49.246C16.7164 47.6887 16.7072 46.0497 16.6317 44.4485C16.5816 43.3921 16.8143 41.7061 15.8989 40.954C15.3618 40.5125 14.7068 40.7044 14.4502 41.337C12.8821 45.1983 13.3537 49.0464 14.7453 52.9431C16.053 56.604 17.9231 58.1259 21.2342 59.8604C21.2342 59.0929 21.2342 58.3247 21.2342 57.5572C19.9975 58.2723 17.1133 55.6108 15.8865 55.1253C15.0004 54.7747 14.0187 55.8281 14.3223 56.6903C15.5906 60.2965 21.1749 61.437 24.4559 60.8321C25.3235 60.6726 25.2087 59.415 24.4559 59.1885C22.8061 58.6922 17.5795 58.025 16.775 56.0138C16.2533 56.5355 15.7324 57.0571 15.21 57.5788C17.4762 58.441 19.868 61.1819 22.5804 59.8612C23.505 59.4112 23.391 58.0388 22.5804 57.558C19.5197 55.7418 18.0711 54.6707 16.8729 51.1007C15.8596 48.0817 15.4689 44.934 16.1216 41.7993C15.697 41.9719 15.2724 42.1446 14.8486 42.3172C15.2408 42.5398 14.6922 46.5028 14.6721 46.8419C14.5704 48.5679 14.6614 50.1845 15.2701 51.8366C16.0892 54.0566 18.0372 56.1232 20.5345 55.862C21.1541 55.7973 21.9146 55.3226 21.8183 54.5775C21.4962 52.1048 19.5975 49.9611 18.6906 47.6509C17.92 45.686 17.4577 41.5797 15.4512 40.3114C14.9896 40.0194 14.394 40.1496 14.011 40.4971C11.8434 42.4651 13.0971 48.2828 14.0403 50.606C15.3094 53.7306 17.6211 58.2538 21.554 58.3139C22.0001 58.3208 22.5827 58.0519 22.7684 57.6173C23.6723 55.5106 22.5441 53.219 21.4507 51.3851C19.821 48.6504 18.1081 45.4564 17.7051 42.2879C17.1117 42.6285 16.5192 42.9683 15.9258 43.3089C15.9844 43.3459 16.0422 43.3828 16.1008 43.4198C17.2096 44.1218 18.4787 42.4936 17.5086 41.5905Z" fill="#F4683D"/>
<path d="M19.7987 70.4496C19.3517 73.9386 18.152 80.7049 22.1712 82.8624C24.3056 84.0083 29.3258 84.187 29.2118 80.7727C29.1887 80.0692 28.7587 79.5776 28.1222 79.3418C27.1244 78.9727 25.8968 79.1322 24.9706 78.6282C23.6776 77.9247 23.3871 76.127 23.1722 74.8109C22.6975 71.9113 22.7353 69.1073 22.8732 66.1961C22.8994 65.639 22.1851 65.1936 21.7096 65.5288C18.8717 67.5322 19.9374 72.6487 20.4043 75.5738C20.6555 77.1534 21.0177 78.7485 22.0965 79.9921C23.6283 81.759 25.0261 81.2042 26.9787 82.0549C26.7337 81.628 26.4886 81.2004 26.2436 80.7735C26.2498 80.1848 24.1176 80.4575 23.6946 80.1786C22.9009 79.6546 22.7514 78.8247 22.4686 78.0018C21.5971 75.469 22.1797 73.0471 22.081 70.4503C22.0248 68.9408 19.9813 69.0287 19.7987 70.4496Z" fill="#F4683D"/>
<path d="M28.4316 91.9998C28.5795 92.5669 28.4046 93.3267 28.4894 93.9316C28.6265 94.9102 28.9879 95.7817 29.3979 96.6732C30.294 98.6273 31.3212 100.305 33.0148 101.673C35.1578 103.406 39.8697 105.608 41.9425 102.703C42.2369 102.29 42.1829 101.662 41.9425 101.244C41.2775 100.087 40.4576 100.393 39.3542 100.028C37.5503 99.431 36.0847 98.0039 34.8102 96.6624C33.5496 95.3355 32.6396 93.6665 31.8228 92.0121C31.2988 90.9518 30.9929 89.6604 29.6498 89.4446C28.7475 89.2998 27.5277 90.0518 27.9615 91.1329C28.0054 91.2416 28.0486 91.351 28.0925 91.4596C28.4655 92.3889 29.7215 92.7041 30.2979 91.7478C30.3549 91.6523 30.4127 91.5567 30.4705 91.4612C29.9542 91.6715 29.4371 91.8819 28.9201 92.0922C28.7305 92.0398 29.5535 93.9069 29.5011 93.8052C29.9334 94.6443 30.3942 95.4835 30.8411 96.3134C31.4699 97.4808 32.4392 98.4516 33.3793 99.3825C34.3541 100.347 35.4205 101.142 36.6033 101.799C37.2259 102.144 37.9056 102.566 38.5998 102.764C39.1947 102.935 39.6971 103.217 39.4474 102.703C39.523 102.119 39.5977 101.535 39.6732 100.951C39.1354 101.609 37.0865 100.566 36.5324 100.32C35.0846 99.6784 33.8624 98.5449 33.0071 97.2288C32.2551 96.0722 31.5277 94.6089 31.1424 93.2959C30.8827 92.4097 30.9166 91.6168 30.1954 90.9734C29.4233 90.2861 28.1557 90.9449 28.4316 91.9998Z" fill="#F4683D"/>
<path d="M28.5399 84.758C28.5322 85.2696 28.5114 85.7196 28.8412 86.1388C29.0215 86.3677 29.49 86.3661 29.6688 86.1388C29.9994 85.7189 29.977 85.2704 29.9709 84.758C29.9562 83.8379 28.553 83.8364 28.5399 84.758Z" fill="#F4683D"/>
<path d="M70.6832 105.798C68.0309 111.244 61.2339 109.971 56.3894 109.931C55.8207 109.927 55.1072 110.374 55.0108 110.981C54.3859 114.898 62.1716 116.546 64.9102 115.993C70.2047 114.925 74.6346 109.782 73.9434 104.332C73.807 103.258 72.7398 102.784 71.8822 103.478C69.2407 105.614 68.5141 109.513 65.3078 111.251C63.1333 112.429 61.5267 111.327 59.6049 110.24C58.7457 109.755 56.592 109.467 55.9925 108.768C56.0642 109.326 56.1359 109.884 56.2083 110.441C56.5165 110.826 56.8895 111.133 57.3248 111.365C56.9681 109.892 56.6175 109.588 56.273 110.451C56.7847 109.992 59.3799 111.201 60.0873 111.351C62.0799 111.773 64.1366 111.357 65.9921 110.697C67.9423 110.002 70.0459 109.004 71.3875 107.348C72.1326 106.43 72.373 104.715 73.0635 105.532C74.0721 106.727 75.7812 105.004 74.7802 103.815C72.2397 100.805 69.9781 105.233 67.9369 106.618C64.9333 108.657 62.1632 108.912 58.6972 108.164C56.9866 107.795 55.2251 107.404 53.8396 108.747C53.5298 109.048 53.3187 109.632 53.4944 110.055C54.5277 112.54 57.0482 114.917 59.8222 113.118C60.1736 112.891 60.4972 112.469 60.4518 112.021C60.2067 109.56 55.4169 105.478 53.8227 109.048C53.5499 109.658 53.6023 110.212 54.0384 110.722C55.0748 111.935 57.2355 112.104 58.5855 112.878C60.5958 114.029 62.4421 115.191 64.9271 114.485C66.8605 113.937 68.5757 112.262 69.7901 110.747C71.1055 109.107 72.0571 106.533 73.5897 105.185C72.9024 104.901 72.2158 104.617 71.5285 104.332C71.5948 108.108 69.2746 111.533 65.6361 112.789C64.1096 113.316 62.7565 113.212 61.2747 112.822C61.9381 112.997 57.791 111.588 57.8195 111.361C57.3433 111.838 56.8671 112.314 56.3909 112.79C61.9543 112.63 70.2579 113.467 72.2166 106.445C72.4632 105.553 71.1085 104.925 70.6832 105.798Z" fill="#F4683D"/>
<path d="M50.2939 101.281C50.4565 101.506 50.4526 101.776 50.5335 102.036C50.6191 102.311 50.7963 102.565 50.8541 102.848C50.8965 103.055 50.8672 103.331 50.8456 103.538C50.8479 103.627 50.8371 103.714 50.8125 103.798C50.7139 104.084 50.7763 104.015 50.9997 103.591C51.2032 103.536 51.4058 103.481 51.6092 103.426C52.1178 103.392 51.9521 103.689 51.8812 103.445C51.8681 103.401 51.8157 103.335 51.7919 103.295C51.6886 103.127 51.4883 102.724 51.4944 102.741C51.2093 101.998 50.9188 101.169 51.0221 100.367C50.7123 100.774 50.4018 101.182 50.092 101.589C49.8662 101.528 49.6397 101.468 49.4131 101.407C49.5179 101.501 49.5465 101.531 49.4987 101.498C49.501 101.518 49.5788 101.65 49.6066 101.703C49.7067 101.897 49.7722 102.092 49.8408 102.3C50.0042 102.794 50.3471 103.379 50.3201 103.882C50.7686 103.434 51.2163 102.986 51.6647 102.538C51.1146 102.584 51.9113 102.949 51.9021 102.798C51.8967 102.713 51.7318 102.486 51.6932 102.428C51.5044 102.149 51.2648 101.894 51.0013 101.686C50.438 101.244 49.659 101.374 49.4193 102.104C48.7983 103.993 50.0612 105.502 52.023 105.179C52.7705 105.055 53.098 104.173 52.9623 103.525C52.7689 102.603 52.3151 101.509 51.9121 100.645C51.4397 99.6344 50.5952 98.8831 49.4209 99.1466C48.8283 99.2792 48.5571 99.8255 48.4908 100.368C48.3459 101.558 48.8198 102.917 49.3376 103.984C49.7499 104.833 50.4473 105.896 51.5145 105.87C52.8768 105.837 53.1411 104.428 53.0317 103.346C52.9716 102.754 52.8475 102.275 52.5855 101.739C52.3174 101.192 52.1787 100.612 51.7703 100.145C51.0768 99.3508 49.6651 100.412 50.2939 101.281Z" fill="#F4683D"/>
<path d="M83.2606 92.2401C83.4378 92.3934 83.6574 92.6069 83.8886 92.6723C84.1374 92.8496 84.1282 92.7656 83.8616 92.4204C83.7429 92.5491 83.6173 92.67 83.4833 92.7825C83.0171 93.1694 82.4492 93.5331 81.9183 93.8158C81.6763 93.9445 81.3057 93.9738 81.0891 94.1102C81.0675 94.1125 81.0445 94.1141 81.0221 94.1164C80.576 94.0717 80.683 94.2612 81.3457 94.6843C81.3257 94.6943 81.476 94.0516 81.4929 94.0193C81.6085 93.8051 81.8312 93.6263 82.013 93.4668C82.245 93.2626 82.4954 93.0515 82.7821 92.9282C82.8013 92.9197 83.2798 92.7833 83.1011 92.7456C83.051 92.613 83.0332 92.6084 83.0486 92.7325C83.0587 92.8542 83.0356 92.9729 82.9801 93.0869C82.8853 93.3759 82.6657 93.6756 82.443 93.879C82.3613 93.9545 81.8766 94.1811 81.8635 94.2435C82.0739 94.5456 82.285 94.8476 82.4954 95.1489C82.5339 95.0734 82.5748 95.0002 82.6179 94.9278C82.7158 94.8207 82.8999 94.3676 82.9454 94.3352C83.0664 94.2481 83.8015 94.1202 83.9741 94.1272C83.7352 94.0624 83.4979 93.9977 83.259 93.9337C83.2035 93.8058 83.1465 93.6772 83.0903 93.5492C83.145 93.4105 83.1388 93.4067 83.071 93.5369C83.0841 93.5361 82.9261 93.7165 82.9015 93.7334C82.7428 93.8421 82.3675 94.0085 82.3698 93.9815C82.3767 93.8968 82.7651 94.4107 82.4653 94.3706C82.4584 94.3699 83.1095 93.8328 82.7959 93.9962C82.5447 94.064 82.2935 94.1326 82.0416 94.2004C82.6264 94.1264 83.2475 93.99 83.5734 93.4406C83.7113 93.2079 83.689 93.127 83.7329 92.8789C83.6936 92.5799 83.6898 92.5537 83.7198 92.7987C83.7113 92.64 83.6859 92.4851 83.6435 92.3333C83.5218 91.8417 83.1072 91.4526 82.6279 91.3169C80.7393 90.7806 79.2645 93.2248 79.6366 94.8638C80.1159 96.9705 82.5917 97.3157 84.1922 96.2839C85.7317 95.2915 86.7913 92.8241 84.8703 91.5859C84.4395 91.3085 83.8292 91.1975 83.3261 91.3339C82.9092 91.4464 82.4615 91.5234 82.057 91.6791C81.0845 92.0536 80.4064 92.9505 79.9973 93.8783C79.0186 96.0967 81.1269 97.6124 83.1588 96.6276C84.8248 95.8201 86.1856 93.6648 85.5815 91.7908C84.8664 89.5716 82.1802 89.9307 80.6769 91.0203C79.3192 92.0043 77.9037 94.0393 78.863 95.7708C80.042 97.8983 82.8275 96.1992 84.0889 95.199C84.8641 94.5856 85.7487 93.7735 85.6863 92.6847C85.6277 91.6714 84.8487 91.5512 84.1544 91.0811C83.4671 90.618 82.6256 91.6922 83.2606 92.2401Z" fill="#F4683D"/>
<path d="M78.7907 99.2105C78.9279 99.1497 79.1035 98.9979 79.2469 98.9624C79.0481 99.0117 79.4503 99.0048 79.4811 99.0063C79.6607 99.0171 79.6322 98.9871 79.8125 99.2028C79.8433 99.2398 79.9566 99.4926 79.9504 99.3978C79.9334 99.1027 79.9435 99.4194 79.8564 99.3986C79.8102 99.4201 79.7739 99.4548 79.747 99.5026C79.8047 99.4163 79.8702 99.3816 79.9434 99.4001C80.2155 99.4864 80.2555 99.4748 80.0644 99.3662C80.1191 99.3916 80.1114 99.377 80.0436 99.3238C79.9858 99.2668 79.7886 99.0495 79.7963 99.0503C80.0082 99.0672 79.8032 100.366 79.2068 100.169C79.0589 100.12 79.0658 100.061 78.9826 99.9603C79.0203 100.119 79.0311 100.137 79.0134 100.011C79.0088 100.164 79.0103 100.199 79.0188 100.114C79.1999 99.9318 79.3779 99.6174 79.7054 99.6151C79.8063 99.6089 79.9026 99.6274 79.9935 99.6713C80.1137 99.7815 80.1137 99.7777 79.9928 99.6605C80.0714 99.7453 80.0613 99.713 79.9635 99.565C79.9226 99.4641 79.8741 99.3677 79.8155 99.276C79.7423 99.1266 79.7138 99.0649 79.6452 98.8653C79.4349 98.2558 78.8801 97.8343 78.2182 97.9345C77.6025 98.027 77.067 98.554 77.0901 99.2113C77.1271 100.232 77.3744 101.22 78.2097 101.88C79.0088 102.511 80.1777 102.593 80.9637 101.883C82.4354 100.554 81.5508 97.8174 79.6013 97.5739C78.5264 97.4398 77.3351 98.0755 77.2812 99.2583C77.238 100.213 77.9431 101.042 78.7059 101.545C80.4335 102.683 82.6836 100.695 82.0532 98.8183C81.7828 98.0131 80.8997 97.2356 80.0475 97.1323C79.6961 97.09 79.3216 97.1439 78.9756 97.2186C78.5503 97.3111 78.2968 97.5446 77.9439 97.7642C77.0084 98.3452 77.8244 99.639 78.7907 99.2105Z" fill="#F4683D"/>
<path d="M94.5334 92.7045C94.5973 92.7539 96.0129 94.0461 95.6985 92.8694C95.6915 92.8448 94.3978 92.7901 94.2598 92.7708C93.8083 92.7069 93.2373 92.3979 92.8104 92.3917C92.2279 91.9556 92.0553 92.3524 92.2903 93.5807C92.5569 93.5044 92.8281 93.4635 93.1055 93.4581C93.6588 93.4797 93.769 93.6562 94.2282 93.8873C94.5765 94.5069 94.9364 94.305 95.307 93.2817C95.0943 93.2855 94.8817 93.2825 94.669 93.2717C93.7875 93.1931 92.9183 92.8548 92.1893 92.3593C91.9697 92.2199 91.7663 92.0588 91.5806 91.877C91.3826 91.5086 91.2215 91.5325 91.0967 91.9478C90.6952 92.4826 91.4149 92.3855 91.8927 92.6167C92.4113 92.8671 92.8775 93.3757 93.3814 93.5922C93.8599 93.7987 94.5896 92.6028 93.6442 92.7161C93.5463 92.7284 93.1364 92.6298 93.3814 92.8301C93.1156 92.6128 93.0724 91.2019 93.01 90.8336C92.8243 89.7286 90.9958 89.7456 90.7946 90.8336C90.5142 92.3555 90.3238 94.1509 91.9304 95.037C93.151 95.7105 95.5675 95.581 96.0337 94.016C96.9437 90.9677 89.524 87.5472 88.5608 91.138C88.0314 93.1106 90.6698 94.7365 92.157 95.3537C93.4454 95.8885 96.2779 96.6667 97.1209 95.0332C98.1388 93.0636 95.3155 91.0139 93.6711 90.809C92.1678 90.6217 88.8921 91.4624 90.1944 93.6246C91.2262 95.336 94.7021 95.7182 96.3927 95.074C97.2172 94.7596 97.6079 93.9343 97.396 93.0798C97.1587 92.1197 96.2525 91.5826 95.4596 91.121C94.4055 90.5069 93.628 92.0064 94.5334 92.7045Z" fill="#F4683D"/>
<path d="M103.353 86.1949C102.552 86.4631 102.895 86.9832 102.89 87.7253C102.887 88.317 102.853 88.898 102.7 89.4744C102.508 90.1995 102.155 90.9816 101.714 91.5935C101.985 91.3854 102.255 91.1773 102.526 90.9693C102.322 91.0502 101.913 91.229 101.688 91.2367C102.097 91.4717 102.507 91.7059 102.916 91.941C102.444 91.3245 104.089 87.6012 104.716 87.1897C104.071 87.021 103.427 86.8522 102.782 86.6827C103.129 87.3146 102.524 89.2402 102.343 89.8782C102.117 90.6796 101.853 91.343 101.362 92.0149C101.207 92.2215 101.046 92.4226 100.879 92.6191C101.683 93.2656 102.044 93.3619 101.962 92.9072C102.157 92.6067 102.086 91.4648 102.195 91.0379C102.546 89.6463 103.086 88.2639 103.985 87.1312C103.277 87.1312 102.57 87.1312 101.862 87.1312C103.277 88.7216 99.9091 90.9308 100.015 92.4935C100.057 93.1284 100.516 93.6593 101.185 93.6639C102.915 93.6763 104.262 91.2922 104.68 89.8073C105.147 88.1414 105.147 86.386 103.985 85.0098C103.494 84.4273 102.352 84.425 101.863 85.0098C100.471 86.675 96.3746 94.3204 100.588 95.4848C102.618 96.0457 104.073 93.5345 104.671 91.9741C105.338 90.235 106.184 87.031 105.224 85.2564C104.873 84.606 103.917 84.3448 103.29 84.7494C101.621 85.8281 100.833 88.4095 100.299 90.2026C99.7958 91.8917 99.9191 94.6764 102.475 93.9252C104.303 93.3881 104.989 91.4694 105.226 89.7071C105.409 88.3448 105.594 84.559 103.666 84.1691C103.193 84.0736 102.815 84.2439 102.541 84.6276C102.477 84.7155 102.414 84.8033 102.352 84.8911C101.902 85.5176 102.647 86.4315 103.353 86.1949Z" fill="#F4683D"/>
<path d="M118.36 56.3829C119.929 56.685 119.333 60.1918 118.02 60.6333C118.378 60.6803 118.736 60.7273 119.095 60.7743C119.364 61.222 119.446 61.2251 119.344 60.7867C119.334 60.5247 119.335 60.2627 119.345 59.9999C119.353 59.6717 119.386 59.3442 119.394 59.0159C119.414 58.3417 119.273 55.4721 119.539 55.3173C119.092 55.3173 118.645 55.3173 118.198 55.3173C119.382 55.8197 119.421 58.5259 119.341 59.5923C119.318 59.8998 119.185 61.4101 118.553 61.1928C118.378 61.1327 118.373 59.9028 118.401 59.7857C118.498 59.3889 118.973 58.616 119.228 58.2978C119.6 57.8308 119.387 57.8 119.489 58.4118C119.688 59.6085 119.344 60.329 119.142 61.4871C118.803 62.2738 118.847 62.2962 119.275 61.5541C119.073 61.531 118.872 61.5071 118.671 61.484C118.255 61.5303 118.084 61.3353 118.159 60.8976C118.264 60.5386 118.414 60.2003 118.612 59.8828C118.904 59.3496 119.299 58.8919 119.552 58.334C120.015 57.9895 120.049 57.874 119.649 57.9865C119.885 58.4288 119.968 58.8926 119.9 59.3766C119.86 60.0439 119.535 61.0741 119.13 61.6312C118.785 62.1066 118.414 62.2484 118.653 62.5274C118.053 61.8269 119.088 58.8418 119.942 58.9003C120.671 58.9504 121.395 58.0751 121.112 57.3639C120.324 55.382 118.538 55.5053 117.241 56.9809C115.84 58.5729 114.878 60.8283 115.417 62.9681C115.876 64.7928 117.154 65.5425 118.998 65.373C121.089 65.1812 122.001 63.1569 122.578 61.3561C123.206 59.3966 123.161 56.8923 121.422 55.5122C119.883 54.2893 118.043 55.0614 117.021 56.5563C115.95 58.1229 114.501 60.1749 115.111 62.1891C115.678 64.0638 117.731 64.6395 119.497 64.5609C122.888 64.4098 123.276 58.2885 121.603 56.1048C118.882 52.5533 115.098 57.8115 115.43 60.6457C115.643 62.4642 116.506 64.0831 118.564 64.0353C120.512 63.9899 121.674 62.653 121.985 60.8237C122.326 58.8241 122.067 56.1957 120.998 54.4357C120.227 53.1674 118.569 52.1025 117.454 53.6428C116.288 55.2541 116.574 58.2916 116.539 60.1957C116.513 61.6381 116.95 63.8519 118.918 63.2571C122.453 62.1906 122.822 54.5706 118.587 54.7078C117.668 54.7386 117.378 56.1942 118.36 56.3829Z" fill="#F4683D"/>
<path d="M110.351 67.5036C110.216 67.4758 110.127 67.3548 110.05 67.2562C110.066 67.2832 110.082 67.3101 110.098 67.3371C109.953 66.6436 110.103 66.2121 110.55 66.041C110.646 66.0048 110.659 65.9963 110.588 66.0171C110.383 66.0657 110.536 66.0695 111.046 66.0295C110.945 65.9393 110.699 65.9671 110.55 65.9825C110.912 66.2583 111.274 66.5342 111.637 66.8093C111.479 66.4309 111.308 66.0749 110.878 65.957C110.71 65.9108 110.499 65.9177 110.331 65.9632C110.254 65.984 109.545 66.4333 109.948 66.1597C109.081 66.7476 109.063 67.9266 109.948 68.5114C110.921 69.1549 112.527 68.2371 112.51 67.0813C112.495 66.1112 111.629 65.2427 110.66 65.2327C109.384 65.2204 109.05 67.2354 110.351 67.5036Z" fill="#F4683D"/>
<path d="M105.125 72.7457C105.382 72.7888 105.003 72.6386 104.949 72.5931C104.784 72.2671 104.727 72.1824 104.775 72.3388C104.794 72.4082 104.793 72.3981 104.772 72.3103C104.743 72.2232 104.754 72.1377 104.807 72.0529C104.876 71.8587 104.885 71.8117 104.831 71.9119C104.77 72.0383 105.026 71.7401 104.807 71.9373C104.454 72.254 104.133 72.5268 103.972 72.9938C103.76 73.6148 104.218 74.3053 104.815 74.4756C105.93 74.7961 107.112 73.6511 107.254 72.5969C107.408 71.4496 106.605 70.4733 105.439 70.4332C104.852 70.4132 104.358 70.8971 104.282 71.4542C104.211 71.982 104.546 72.6486 105.125 72.7457Z" fill="#F4683D"/>
<path d="M106.211 42.4938C107.609 43.356 107.424 45.6538 106.725 46.8474C106.208 47.7289 104.921 48.0726 106.518 48.397C108.046 48.7076 107.112 48.5804 107.235 47.8476C107.366 47.0632 106.587 43.7914 107.159 43.4539C106.646 43.4539 106.133 43.4539 105.619 43.4539C106.972 44.0588 105.993 48.1535 105.438 49.0689C104.496 50.617 102.591 51.3405 101.364 52.6474C100.765 53.2854 101.134 54.6532 102.151 54.5461C107.249 54.0121 109.669 49.2261 109.115 44.5442C108.928 42.9638 108.229 40.1459 105.984 40.6653C103.998 41.1253 104.061 43.9162 104.093 45.4535C104.128 47.1056 104.173 52.37 107.239 50.7472C108.707 49.9705 109.927 47.2905 109.884 45.6785C109.827 43.5972 108.788 41.7217 106.802 41.0937C105.957 40.8278 105.487 42.0469 106.211 42.4938Z" fill="#F4683D"/>
<path d="M78.2469 3.24911C78.2438 3.3123 78.2407 3.37625 78.2369 3.43944C78.2253 3.65905 78.3933 3.82163 78.5813 3.89253C80.4838 4.6076 82.3201 5.4922 83.7972 6.88383C84.7743 7.80387 85.83 8.67691 86.7045 9.68711C87.351 10.433 87.9729 11.3954 88.9684 11.6844C89.1056 11.7237 89.2343 11.6551 89.3106 11.5449C90.9719 9.15388 85.3854 5.88364 83.8311 5.194C83.2101 4.91737 78.2908 2.40304 78.2469 3.24911Z" fill="#F28E2C"/>
<path d="M108.859 27.0201C111.37 26.7211 113.075 26.9569 115.312 27.9563C116.524 28.4972 117.841 29.1946 118.883 30.0268C119.727 30.7003 120.292 31.6403 121.191 32.2475C121.472 32.4379 121.801 32.125 121.732 31.8314C120.566 26.8359 113.211 24.1136 108.761 26.6572C108.604 26.7465 108.66 27.044 108.859 27.0201Z" fill="#F28E2C"/>
<path d="M119.303 55.4536C119.448 56.0947 119.939 56.4376 120.198 57.0333C120.534 57.8046 120.561 58.6638 120.572 59.4867C120.594 61.1958 119.928 62.0403 118.655 63.1183C118.246 63.4643 118.446 64.2757 118.985 64.3666C121.225 64.7473 122.511 61.7414 122.451 59.9398C122.404 58.5073 121.572 54.5313 119.484 55.1331C119.344 55.1731 119.271 55.3141 119.303 55.4536Z" fill="#F28E2C"/>
<path d="M67.7114 5.97233C66.5594 7.44948 66.1033 9.01679 66.0362 10.8538C65.9669 12.7263 65.5177 15.9765 67.3647 17.1593C67.5959 17.3072 67.8763 17.1107 67.8871 16.8595C67.9588 15.0957 67.649 13.1832 67.592 11.3978C67.5496 10.0987 67.2337 7.12277 67.8702 6.09484C67.9295 6.00007 67.7831 5.88063 67.7114 5.97233Z" fill="#F28E2C"/>
<path d="M37.5231 19.6663C37.5382 19.6663 37.5382 19.6436 37.5231 19.6436C37.5079 19.6436 37.5079 19.6663 37.5231 19.6663Z" fill="#F28E2C"/>
<path d="M37.4108 19.457C35.6439 17.076 30.7439 15.9594 27.8574 16.3208C26.5498 16.485 24.9748 17.3318 23.8151 18.0176C23.1763 18.3952 22.4042 18.8244 22.4797 19.655C22.4875 19.7421 22.5406 19.8484 22.6385 19.8638C24.3414 20.132 26.1483 19.1426 27.8574 19.0648C31.0314 18.9199 34.1444 19.2721 37.2798 19.6843C37.39 19.6997 37.4755 19.5441 37.4108 19.457Z" fill="#F28E2C"/>
<path d="M16.7618 25.6091C15.374 26.0599 14.7306 29.0705 15.0504 30.2872C15.3101 31.2743 16.0321 32.3446 16.8535 32.9448C17.228 33.2192 17.7497 33.5043 18.2274 33.5621C18.5595 33.6021 18.9556 33.3648 19.2499 33.4226C19.357 33.4442 19.4487 33.3764 19.4557 33.2662C19.5273 32.0402 17.7396 31.1548 17.1848 30.2194C16.6485 29.3163 16.6208 28.5665 16.8859 27.544C17.023 27.0146 17.2102 26.5246 17.2418 25.9744C17.2557 25.7347 16.9876 25.5352 16.7618 25.6091Z" fill="#F28E2C"/>
<path d="M15.9654 42.7687C14.5799 45.2368 14.4196 48 15.5863 50.6122C16.3853 52.4006 17.7916 54.9566 19.6818 55.7394C20.057 55.8951 20.2466 55.3703 20.0401 55.1238C17.0118 51.5206 17.1081 47.1732 16.3221 42.8149C16.2921 42.6461 16.044 42.63 15.9654 42.7687Z" fill="#F28E2C"/>
<path d="M15.5148 56.4777C15.4639 57.3415 15.7336 57.8616 16.3948 58.4087C16.9773 58.8911 17.6053 59.2679 18.3435 59.4366C18.8644 59.5561 19.4662 58.9573 19.1025 58.4495C18.6617 57.8346 18.0892 57.5911 17.4928 57.1589C17.2301 56.9685 17.0004 56.7481 16.686 56.6434C16.3431 56.5293 15.8847 56.4969 15.5264 56.4661C15.5202 56.4654 15.5156 56.4723 15.5148 56.4777Z" fill="#F28E2C"/>
<path d="M19.8358 74.719C18.586 76.4898 19.6802 79.1821 20.9516 80.63C22.4503 82.336 24.7381 82.8615 26.9503 82.6218C27.6908 82.5417 28.2703 81.3913 27.3873 81.0068C25.8215 80.324 24.1633 80.6415 22.8248 79.347C21.4917 78.0578 21.2452 76.1723 20.2095 74.719C20.1117 74.5811 19.9344 74.5795 19.8358 74.719Z" fill="#F28E2C"/>
<path d="M29.4502 94.2726C29.2521 96.5974 31.7225 100.006 33.6605 101.169C35.5144 102.282 37.6828 103.001 39.7332 102.209C40.1224 102.058 40.3242 101.44 39.8627 101.218C38.3077 100.474 36.7751 99.8614 35.1684 99.245C33.9664 98.7842 32.7443 98.026 31.9244 97.035C31.1022 96.041 30.7524 95 29.7461 94.1493C29.6282 94.0499 29.4633 94.1185 29.4502 94.2726Z" fill="#F28E2C"/>
<path d="M74.5701 104.106C73.9329 105.146 73.7402 106.213 72.9119 107.17C72.1051 108.103 71.1165 108.808 70.1086 109.512C68.1437 110.887 65.9553 111.157 63.6868 111.749C62.9471 111.942 62.9401 113.063 63.6868 113.254C66.8885 114.069 69.7226 113.638 71.9811 111.108C72.9605 110.011 73.664 108.694 74.1872 107.331C74.5778 106.316 75.3322 105.09 74.6079 104.105C74.5979 104.093 74.5794 104.09 74.5701 104.106Z" fill="#F28E2C"/>
<path d="M59.3886 111.243C58.7667 111.12 58.2458 110.71 57.6386 110.525C57.026 110.338 56.3564 110.129 55.7931 109.827C55.3092 109.568 54.7213 110.099 55.0218 110.598C55.2484 110.974 55.4248 111.303 55.8116 111.538C56.1414 111.739 56.5267 111.877 56.892 111.994C57.7496 112.269 58.4038 112.18 59.2761 112.073C59.7037 112.021 59.9018 111.345 59.3886 111.243Z" fill="#F28E2C"/>
<path d="M104.951 86.2913C104.223 87.303 103.567 88.3179 102.894 89.3851C102.56 89.9168 102.186 90.4361 101.8 90.9385C101.304 91.5843 100.614 92.0266 100.283 92.7825C100.039 93.3411 100.582 94.1209 101.209 93.7079C102.365 92.9458 103.399 91.639 104.125 90.4723C104.469 89.9206 105.008 89.1532 105.186 88.5205C105.383 87.8193 105.008 87.1019 105.248 86.4169C105.314 86.2312 105.052 86.1518 104.951 86.2913Z" fill="#F28E2C"/>
<path d="M95.2468 94.067C95.3085 94.1117 95.2129 94.0077 95.1829 93.9661C95.142 93.9091 95.0904 93.8613 95.0372 93.8166C94.8361 93.6502 94.6681 93.6332 94.4231 93.5993C94.2243 93.5723 94.054 93.476 93.8498 93.4814C93.6664 93.486 93.4591 93.4953 93.2757 93.5115C93.0993 93.5269 92.9498 93.6232 92.8989 93.7989C92.7818 94.1988 93.5061 94.6242 93.8082 94.6989C94.1334 94.7798 94.4239 94.7197 94.7413 94.6557C94.8531 94.6334 94.9579 94.6188 95.0673 94.5779C95.169 94.5001 95.1798 94.4916 95.0996 94.5517C95.1513 94.5332 95.2013 94.5086 95.2476 94.4785C95.4156 94.3837 95.3855 94.168 95.2468 94.067Z" fill="#F28E2C"/>
<path d="M92.8082 93.5668C92.7003 93.2887 92.5416 93.1307 92.3089 92.9535C92.1232 92.8117 92.0292 92.6637 91.8658 92.4996C91.5214 92.1536 91.1399 92.0704 90.7146 91.9248C90.317 91.7884 89.7552 92.1613 89.8138 92.6113C89.8924 93.2124 90.3624 93.6007 90.9334 93.7579C91.1731 93.8234 91.3827 93.761 91.6138 93.7849C91.8704 93.8111 92.1039 93.9683 92.3559 94.0199C92.6017 94.0708 92.9176 93.8496 92.8082 93.5668Z" fill="#F28E2C"/>
<path d="M84.2811 92.7485C83.8519 93.0791 83.5992 93.5861 83.143 93.9051C82.5065 94.3497 81.5187 94.4422 81.1296 95.1758C80.9238 95.5641 81.0379 96.0303 81.4154 96.2653C83.0259 97.2655 87.0628 94.0508 85.0679 92.7485C84.8606 92.6121 84.4869 92.5898 84.2811 92.7485Z" fill="#F28E2C"/>
<path d="M80.0573 101.152C80.7324 101.152 81.3781 100.559 81.3473 99.8631C81.3157 99.1642 80.7809 98.574 80.0573 98.574C79.3831 98.574 78.7366 99.1673 78.7682 99.8631C78.799 100.562 79.3353 101.152 80.0573 101.152Z" fill="#F28E2C"/>
<path d="M123.348 37.0335C123.333 38.9938 121.886 41.4581 121.176 43.2527C120.552 44.8308 117.122 47.7342 118.123 49.5458C118.317 49.8964 118.811 50.116 119.2 49.9843C121.542 49.1914 121.885 45.1005 122.549 43.1425C123.162 41.3332 123.982 38.9807 123.781 37.0343C123.752 36.7623 123.349 36.7484 123.348 37.0335Z" fill="#F28E2C"/>
<path d="M95.1949 21.4711C95.2149 21.5867 95.2365 21.7031 95.2573 21.8187C95.3205 22.1708 95.9046 22.1708 95.9678 21.8187C95.9886 21.7031 96.0102 21.5875 96.031 21.4711C96.1574 20.773 95.0678 20.7684 95.1949 21.4711Z" fill="#F28E2C"/>
<path d="M44.861 8.2793C44.861 8.2793 54.8875 26.9637 53.0652 41.0919C51.242 55.2193 0.655762 46.1044 0.655762 46.1044C0.655762 46.1044 37.1139 53.3961 44.4056 65.7012C51.6974 78.0054 40.304 114.464 40.304 114.464C40.304 114.464 53.976 84.8418 61.7231 74.8161C69.4711 64.7896 103.194 92.589 103.194 92.589C103.194 92.589 79.9522 70.2582 79.4968 54.7639C79.0406 39.2695 113.676 33.3447 113.676 33.3447C113.676 33.3447 83.1431 40.6365 73.1166 36.5348C63.0901 32.4332 44.861 8.2793 44.861 8.2793Z" fill="#FFD731"/>
<path d="M66.0324 21.669C66.0324 21.669 67.3993 47.6452 73.3241 49.9238C79.2489 52.2023 107.048 44.4551 107.048 44.4551C107.048 44.4551 84.2622 51.7461 81.0721 59.4941C77.8812 67.2412 106.137 82.7364 106.137 82.7364C106.137 82.7364 82.439 69.9759 75.1473 68.609C67.8555 67.242 69.2232 104.156 69.2232 104.156C69.2232 104.156 66.9439 71.3429 60.5645 67.6974C54.1843 64.0511 38.2338 95.4968 38.2338 95.4968C38.2338 95.4968 53.7281 67.242 55.0958 59.0387C56.4628 50.8353 25.4741 52.2031 25.4741 52.2031C25.4741 52.2031 54.6412 50.3799 51.4503 39.4426C48.2602 28.5054 45.0709 18.9351 45.0709 18.9351C45.0709 18.9351 56.9197 43.9997 61.4768 44.4559C66.0323 44.9113 66.0324 21.669 66.0324 21.669Z" fill="#F7B726"/>
<path d="M63.2204 41.484C63.2204 41.484 63.8091 52.6579 66.3566 53.638C68.9056 54.6181 80.8639 51.2855 80.8639 51.2855C80.8639 51.2855 71.0616 54.4217 69.6893 57.7551C68.3169 61.0877 80.4717 67.7531 80.4717 67.7531C80.4717 67.7531 70.278 62.2636 67.1403 61.6757C64.0041 61.0877 64.592 76.9674 64.592 76.9674C64.592 76.9674 63.6119 62.8523 60.8672 61.2835C58.1217 59.7154 51.2606 73.2425 51.2606 73.2425C51.2606 73.2425 57.9259 61.0877 58.5139 57.5594C59.1026 54.0302 45.772 54.6189 45.772 54.6189C45.772 54.6189 58.3182 53.8345 56.9458 49.1295C55.5742 44.4245 54.2019 40.3074 54.2019 40.3074C54.2019 40.3074 59.2991 51.0898 61.2594 51.2863C63.2205 51.482 63.2204 41.484 63.2204 41.484Z" fill="#F28E2C"/>
<path d="M12.8837 32.211C14.9603 32.3089 17.0007 32.53 19.0419 32.8167C21.0785 33.1149 23.1082 33.4686 25.1055 33.9687C27.0989 34.4726 29.0815 35.0405 30.984 35.8273C32.8812 36.6163 34.7212 37.5633 36.3594 38.8016C34.6773 37.6226 32.8157 36.7481 30.9055 36.0322C28.9906 35.3195 27.0026 34.8263 25.0099 34.3971C23.0126 33.9725 20.9876 33.6944 18.9611 33.4709C16.9353 33.2605 14.8894 33.1141 12.869 33.0902H12.8582C12.6155 33.0879 12.4206 32.8884 12.4229 32.6456C12.426 32.4029 12.6255 32.208 12.8683 32.211C12.8729 32.2103 12.8791 32.211 12.8837 32.211Z" fill="#F28E2C"/>
<path d="M108.604 11.5487C106.54 12.1128 104.482 12.8093 102.464 13.5691C100.443 14.335 98.453 15.1827 96.5074 16.1258C94.5709 17.0867 92.6792 18.1393 90.8677 19.3244C89.0769 20.538 87.3716 21.8834 85.8413 23.4261C87.3177 21.8333 88.9829 20.424 90.7421 19.1433C92.522 17.8912 94.3891 16.7669 96.307 15.7344C98.2334 14.718 100.21 13.7972 102.219 12.9558C104.234 12.1205 106.267 11.353 108.368 10.7019C108.6 10.6302 108.846 10.7597 108.919 10.9916C108.991 11.2235 108.861 11.4701 108.629 11.5418C108.624 11.5433 108.62 11.5441 108.616 11.5456L108.604 11.5487Z" fill="#F28E2C"/>
<path d="M121.892 81.6223C119.681 79.6297 117.348 77.7356 114.976 75.9163C112.594 74.104 110.158 72.3587 107.637 70.7413C105.11 69.1378 102.525 67.6151 99.8321 66.2998C97.1305 65.0068 94.3411 63.8833 91.4346 63.1228C94.3588 63.8117 97.1845 64.8697 99.9269 66.101C102.662 67.3547 105.293 68.8195 107.871 70.3683C110.443 71.931 112.932 73.6239 115.371 75.387C117.805 77.1616 120.182 78.997 122.481 80.9673C122.665 81.1253 122.687 81.4027 122.528 81.5877C122.37 81.7718 122.093 81.7934 121.908 81.6346C121.905 81.6331 121.903 81.6308 121.901 81.6293L121.892 81.6223Z" fill="#F28E2C"/>
<path d="M106.14 62.4309C102.912 61.5362 99.6477 60.7218 96.3659 60.0198C94.7246 59.6653 93.0741 59.354 91.4151 59.0951C89.7576 58.8424 88.0855 58.6243 86.4019 58.6505C88.084 58.5503 89.7707 58.6967 91.4436 58.8771C93.118 59.0643 94.787 59.3039 96.4476 59.5875C99.7718 60.1485 103.071 60.8204 106.362 61.5794C106.598 61.6341 106.746 61.8707 106.691 62.1072C106.637 62.3438 106.401 62.4917 106.164 62.437C106.157 62.4355 106.152 62.4339 106.147 62.4324L106.14 62.4309Z" fill="#F28E2C"/>
<path d="M52.9743 121.512C53.5014 116.667 54.1194 111.84 54.8483 107.025C55.2143 104.618 55.622 102.217 56.0843 99.8267C56.5567 97.4411 57.0722 95.0508 57.8859 92.7561C57.1423 95.0739 56.7008 97.4704 56.3008 99.866C55.9109 102.265 55.5765 104.672 55.2837 107.085C54.7019 111.909 54.2296 116.75 53.8512 121.591C53.8343 121.833 53.6232 122.016 53.3812 121.999C53.1385 121.981 52.9566 121.771 52.9743 121.529C52.9736 121.526 52.9743 121.516 52.9743 121.512Z" fill="#F28E2C"/>
<path d="M20.0454 87.2219C21.7029 84.6135 23.4467 82.0799 25.3214 79.6342C26.2561 78.4113 27.2262 77.2139 28.2595 76.0719C29.2944 74.9361 30.3693 73.8211 31.6076 72.9072C30.4156 73.8781 29.4015 75.037 28.4268 76.2152C27.4543 77.398 26.5474 78.6332 25.6774 79.8931C23.9337 82.4074 22.3155 85.0188 20.8044 87.668L20.8006 87.6749C20.6804 87.8861 20.4114 87.96 20.2003 87.8391C19.9899 87.7189 19.916 87.4499 20.0362 87.2388C20.0377 87.2342 20.0423 87.2272 20.0454 87.2219Z" fill="#F28E2C"/>
<path d="M23.4777 70.3524C24.8408 69.1988 26.244 68.1316 27.7235 67.1569C28.464 66.6737 29.2153 66.2068 30.0028 65.803C30.788 65.4 31.5963 65.0324 32.4462 64.8013C31.6194 65.1033 30.8527 65.5318 30.1122 65.9941C29.3709 66.4564 28.6682 66.9781 27.9801 67.5144C26.6092 68.5909 25.3032 69.769 24.0811 70.9927L24.0734 71.0004C23.9008 71.1722 23.6226 71.1722 23.45 71.0004C23.2781 70.8286 23.2774 70.5496 23.45 70.3778C23.4592 70.3685 23.4685 70.3601 23.4777 70.3524Z" fill="#F28E2C"/>
<path d="M72.8554 2.81759C71.9608 7.33459 71.1325 11.8709 70.3765 16.4156C70.0059 18.6895 69.6553 20.9673 69.3502 23.2512C69.0689 25.5359 68.7792 27.8275 68.7892 30.1354C68.706 27.8283 68.9233 25.5228 69.1321 23.2265C69.3648 20.9311 69.643 18.6394 69.9419 16.3516C70.553 11.7768 71.238 7.21515 71.9909 2.65808C72.0302 2.41844 72.2567 2.25662 72.4963 2.29592C72.736 2.33522 72.8986 2.56176 72.8585 2.8014C72.8577 2.80526 72.8562 2.81373 72.8554 2.81759Z" fill="#F28E2C"/>
<path d="M15.5713 14.916C17.4862 15.8245 19.3478 16.8008 21.1956 17.8172C23.0396 18.8366 24.8596 19.8992 26.6311 21.0389C28.4011 22.1793 30.1472 23.3606 31.7916 24.679C33.4336 25.9928 35.0194 27.3936 36.3602 29.0164C34.9647 27.4422 33.3365 26.1037 31.6575 24.8539C29.9777 23.6002 28.1992 22.486 26.4007 21.4141C24.6 20.3423 22.7545 19.349 20.8874 18.4005C19.0196 17.4565 17.1256 16.5465 15.2146 15.7205L15.2084 15.7182C14.9857 15.6219 14.8832 15.3629 14.9796 15.1403C15.0759 14.9168 15.3348 14.8143 15.5575 14.9114C15.5613 14.9114 15.5675 14.9145 15.5713 14.916Z" fill="#F28E2C"/>
<g filter="url(#filter0_d_10058_7987)">
<path d="M11.3091 58.6242C11.3091 54.0482 13.1491 52.6402 15.5171 52.6402C18.5571 52.6402 20.2371 53.6962 20.2371 55.4562C20.2371 56.7362 19.3251 57.5842 18.3011 57.5842C17.8211 57.5842 17.3091 57.3922 16.8611 56.9602C16.5091 56.6242 16.1571 56.4642 15.8531 56.4642C15.2611 56.4642 14.8131 57.0402 14.8131 58.0642C14.8131 59.2642 15.4211 60.0642 16.1251 60.0642C16.4131 60.0642 16.7331 59.9202 17.0211 59.6322C17.4211 59.2322 17.9171 59.0562 18.4131 59.0562C19.3731 59.0562 20.3011 59.7442 20.3811 60.9922C20.4771 62.6242 19.0691 64.1602 16.6371 64.1602C12.5251 64.1602 11.3091 62.3362 11.3091 58.6242Z" fill="white"/>
<path d="M24.5387 60.6562C22.9547 59.4882 21.7547 57.1522 21.7547 54.8962C21.7547 53.2482 21.9147 52.8002 23.4347 52.8002C26.7947 52.8002 25.0347 57.7282 26.7627 57.7282C28.4747 57.7282 26.0107 52.8002 29.9467 52.8002C31.3707 52.8002 31.5627 53.2482 31.5627 54.8962C31.5627 58.2242 28.7947 64.1602 24.2987 64.1602C23.4827 64.1602 22.3947 63.6002 22.3947 62.4002C22.3947 61.0722 23.7387 61.1362 24.5387 60.6562Z" fill="white"/>
<path d="M33.4222 54.5442C33.4222 54.2402 33.8382 52.8002 35.4382 52.8002H39.2302C41.7422 52.8002 42.4942 53.2642 42.4942 54.7202V58.1122C42.4942 63.6322 42.3822 63.9842 40.8302 63.9842C39.1502 63.9842 38.8782 62.6242 38.8782 61.3122V57.4882C38.8302 57.0882 38.5582 56.8002 37.9822 56.8002C37.3102 56.8002 37.1502 57.1842 37.1502 57.7762V60.8482C37.1502 63.0882 36.6062 64.0002 35.0542 64.0002C33.6622 64.0002 33.4222 63.2642 33.4222 60.2242V54.5442Z" fill="white"/>
<path d="M46.292 63.7602C44.468 63.6642 44.516 62.5762 44.516 56.8482V55.3762C44.516 52.9602 44.772 52.8642 48.26 52.8642H50.612C52.404 52.8642 53.076 52.9122 53.076 54.4002C53.076 56.3362 51.924 56.2722 51.188 56.2722C50.452 56.2722 49.716 56.2082 49.236 56.2082C48.612 56.2082 48.1 56.3202 48.1 56.6562C48.1 56.8642 48.276 56.9282 48.548 56.9282H48.644L49.812 56.8802H49.956C50.692 56.8802 51.364 57.1362 51.364 58.2562C51.364 59.4882 50.532 59.6642 49.716 59.6642H49.172L48.708 59.6482H48.628C48.34 59.6482 48.132 59.7282 48.132 59.9842C48.132 60.2562 48.388 60.2722 49.108 60.2722H49.812C52.388 60.2722 52.932 60.5442 52.932 62.0802C52.932 63.7122 52.308 63.8402 50.724 63.8402H49.668C48.116 63.8402 47.028 63.7922 46.292 63.7602Z" fill="white"/>
<path d="M55.0941 55.6162C55.0941 52.9122 55.3981 52.8002 59.9421 52.8002C63.0781 52.8002 64.1021 53.4402 64.1021 56.6562C64.1021 58.6242 63.2221 60.5122 60.8701 60.6882C57.7181 60.9122 59.7981 64.0162 56.8701 64.0162C55.1421 64.0162 55.0941 62.9442 55.0941 57.9362V55.6162ZM58.6301 56.8802C58.6301 57.5362 58.9501 57.9522 59.4941 57.9522C60.0221 57.9522 60.5021 57.5202 60.5021 56.9442C60.5021 56.4642 60.1661 56.1122 59.6221 56.1122C59.0941 56.1122 58.6301 56.4642 58.6301 56.8802Z" fill="white"/>
<path d="M74.8356 60.6562C73.2516 59.4882 72.0516 57.1522 72.0516 54.8962C72.0516 53.2482 72.2116 52.8002 73.7316 52.8002C77.0916 52.8002 75.3316 57.7282 77.0596 57.7282C78.7716 57.7282 76.3076 52.8002 80.2436 52.8002C81.6676 52.8002 81.8596 53.2482 81.8596 54.8962C81.8596 58.2242 79.0916 64.1602 74.5956 64.1602C73.7796 64.1602 72.6916 63.6002 72.6916 62.4002C72.6916 61.0722 74.0356 61.1362 74.8356 60.6562Z" fill="white"/>
<path d="M81.6378 62.5442C81.6378 61.2642 81.9738 60.0962 83.4298 60.0962C83.5898 60.0962 83.7338 60.1122 83.8618 60.1442C84.1178 55.2482 85.7338 52.6242 88.7738 52.6242C91.3498 52.6242 93.1098 55.6962 93.4298 60.1282C93.5578 60.1122 93.7018 60.0962 93.8458 60.0962C95.3018 60.0962 95.6378 61.2642 95.6378 62.5442C95.6378 63.6802 95.3658 65.6642 93.7498 65.6642C92.9658 65.6642 92.1338 65.1842 92.1338 64.2722V63.9522C92.0058 63.9682 91.8778 63.9842 91.7338 63.9842H85.1418V64.2722C85.1418 65.1842 84.3098 65.6642 83.5258 65.6642C81.9098 65.6642 81.6378 63.6802 81.6378 62.5442ZM87.4618 58.8642C87.4618 59.8242 88.0058 60.2882 88.5658 60.2882C89.1098 60.2882 89.6698 59.8082 89.6698 58.8642C89.6698 57.9842 89.2058 56.8002 88.5658 56.8002C87.9418 56.8002 87.4618 57.9842 87.4618 58.8642Z" fill="white"/>
<path d="M96.6997 61.6162C96.6997 56.3842 98.7157 52.6242 101.404 52.6242C104.54 52.6242 106.348 55.7442 106.348 61.5362C106.348 63.1842 106.044 63.9842 104.716 63.9842C102.38 63.9842 103.436 61.4882 101.484 61.4882C99.5317 61.4882 100.62 64.0002 98.3157 64.0002C97.0677 64.0002 96.6997 63.2642 96.6997 61.6162ZM100.476 57.2802C100.476 58.0162 100.956 58.4322 101.532 58.4322C102.092 58.4322 102.572 58.0162 102.572 57.2802C102.572 56.5282 102.092 55.9682 101.532 55.9682C100.956 55.9682 100.476 56.5282 100.476 57.2802Z" fill="white"/>
<path d="M108.203 55.6162C108.203 52.9122 108.507 52.8002 113.051 52.8002C116.187 52.8002 117.211 53.4402 117.211 56.6562C117.211 58.6242 116.331 60.5122 113.979 60.6882C110.827 60.9122 112.907 64.0162 109.979 64.0162C108.251 64.0162 108.203 62.9442 108.203 57.9362V55.6162ZM111.739 56.8802C111.739 57.5362 112.059 57.9522 112.603 57.9522C113.131 57.9522 113.611 57.5202 113.611 56.9442C113.611 56.4642 113.275 56.1122 112.731 56.1122C112.203 56.1122 111.739 56.4642 111.739 56.8802Z" fill="white"/>
<path d="M121.075 60.0962C119.619 60.0962 119.075 59.5682 119.075 57.5202C119.075 56.4962 119.171 55.1202 119.315 53.2642C119.363 52.5762 119.555 51.9202 121.011 51.9202C122.483 51.9202 122.499 52.2562 122.499 57.0722V58.2562C122.499 59.3122 122.387 60.0962 121.075 60.0962ZM119.203 62.4322C119.203 61.4242 119.779 60.8802 120.867 60.8802C121.939 60.8802 122.691 61.4242 122.691 62.5762C122.691 63.5842 122.099 64.1282 121.027 64.1282C119.939 64.1282 119.203 63.5842 119.203 62.4322Z" fill="white"/>
</g>
<defs>
<filter id="filter0_d_10058_7987" x="7.30908" y="49.9202" width="119.382" height="21.7439" filterUnits="userSpaceOnUse" color-interpolation-filters="sRGB">
<feFlood flood-opacity="0" result="BackgroundImageFix"/>
<feColorMatrix in="SourceAlpha" type="matrix" values="0 0 0 0 0 0 0 0 0 0 0 0 0 0 0 0 0 0 127 0" result="hardAlpha"/>
<feOffset dy="2"/>
<feGaussianBlur stdDeviation="2"/>
<feComposite in2="hardAlpha" operator="out"/>
<feColorMatrix type="matrix" values="0 0 0 0 0 0 0 0 0 0 0 0 0 0 0 0 0 0 0.75 0"/>
<feBlend mode="normal" in2="BackgroundImageFix" result="effect1_dropShadow_10058_7987"/>
<feBlend mode="normal" in="SourceGraphic" in2="effect1_dropShadow_10058_7987" result="shape"/>
</filter>
</defs>
</svg>
