<svg width="24" height="24" viewBox="0 0 24 24" fill="none" xmlns="http://www.w3.org/2000/svg">
<path d="M10.0001 3.578C9.80118 3.578 9.61041 3.49899 9.46976 3.35833C9.32911 3.21768 9.25009 3.02692 9.25009 2.828C9.25009 2.62909 9.32911 2.43833 9.46976 2.29767C9.61041 2.15702 9.80118 2.078 10.0001 2.078H13.5361C13.735 2.078 13.9258 2.15702 14.0664 2.29767C14.2071 2.43833 14.2861 2.62909 14.2861 2.828C14.2861 3.02692 14.2071 3.21768 14.0664 3.35833C13.9258 3.49899 13.735 3.578 13.5361 3.578H10.0001ZM6.53009 4.03C6.67054 4.17063 6.74943 4.36125 6.74943 4.56C6.74943 4.75875 6.67054 4.94938 6.53009 5.09L4.03009 7.59C3.88792 7.72248 3.69987 7.79461 3.50557 7.79118C3.31127 7.78775 3.12588 7.70904 2.98847 7.57162C2.85106 7.43421 2.77234 7.24883 2.76892 7.05453C2.76549 6.86022 2.83761 6.67218 2.97009 6.53L5.47009 4.03C5.61072 3.88955 5.80134 3.81066 6.00009 3.81066C6.19884 3.81066 6.38947 3.88955 6.53009 4.03Z" fill="white"/>
<path fill-rule="evenodd" clip-rule="evenodd" d="M12 5.06C9.74566 5.06 7.58365 5.95553 5.98959 7.54959C4.39553 9.14365 3.5 11.3057 3.5 13.56C3.5 15.8143 4.39553 17.9763 5.98959 19.5704C7.58365 21.1645 9.74566 22.06 12 22.06C14.2543 22.06 16.4163 21.1645 18.0104 19.5704C19.6045 17.9763 20.5 15.8143 20.5 13.56C20.5 11.3057 19.6045 9.14365 18.0104 7.54959C16.4163 5.95553 14.2543 5.06 12 5.06ZM16.99 8.771C17.063 8.67478 17.0988 8.55538 17.0906 8.43486C17.0824 8.31434 17.0309 8.20086 16.9456 8.11538C16.8602 8.0299 16.7468 7.97822 16.6263 7.96987C16.5058 7.96153 16.3863 7.9971 16.29 8.07L13.115 10.538L11.04 12.021C10.8703 12.1419 10.7289 12.2984 10.6259 12.4795C10.5228 12.6607 10.4604 12.8621 10.4431 13.0698C10.4258 13.2774 10.4539 13.4864 10.5256 13.6821C10.5973 13.8778 10.7108 14.0555 10.8581 14.2029C11.0055 14.3502 11.1832 14.4637 11.3789 14.5354C11.5746 14.6071 11.7836 14.6352 11.9912 14.6179C12.1989 14.6006 12.4003 14.5382 12.5815 14.4351C12.7626 14.3321 12.9191 14.1907 13.04 14.021L14.522 11.945L16.99 8.771Z" fill="white"/>
</svg>
